%TF.GenerationSoftware,KiCad,Pcbnew,9.0.0-rc3*%
%TF.CreationDate,2025-06-15T12:53:26-05:00*%
%TF.ProjectId,PCI-104-Template,5043492d-3130-4342-9d54-656d706c6174,A*%
%TF.SameCoordinates,Original*%
%TF.FileFunction,Legend,Top*%
%TF.FilePolarity,Positive*%
%FSLAX46Y46*%
G04 Gerber Fmt 4.6, Leading zero omitted, Abs format (unit mm)*
G04 Created by KiCad (PCBNEW 9.0.0-rc3) date 2025-06-15 12:53:26*
%MOMM*%
%LPD*%
G01*
G04 APERTURE LIST*
%ADD10C,0.200000*%
%ADD11C,0.100000*%
%ADD12C,0.000000*%
%ADD13C,0.120000*%
G04 APERTURE END LIST*
D10*
X57309523Y-125441980D02*
X57261904Y-125489600D01*
X57261904Y-125489600D02*
X57119047Y-125537219D01*
X57119047Y-125537219D02*
X57023809Y-125537219D01*
X57023809Y-125537219D02*
X56880952Y-125489600D01*
X56880952Y-125489600D02*
X56785714Y-125394361D01*
X56785714Y-125394361D02*
X56738095Y-125299123D01*
X56738095Y-125299123D02*
X56690476Y-125108647D01*
X56690476Y-125108647D02*
X56690476Y-124965790D01*
X56690476Y-124965790D02*
X56738095Y-124775314D01*
X56738095Y-124775314D02*
X56785714Y-124680076D01*
X56785714Y-124680076D02*
X56880952Y-124584838D01*
X56880952Y-124584838D02*
X57023809Y-124537219D01*
X57023809Y-124537219D02*
X57119047Y-124537219D01*
X57119047Y-124537219D02*
X57261904Y-124584838D01*
X57261904Y-124584838D02*
X57309523Y-124632457D01*
X53130326Y-64547780D02*
X53130326Y-65547780D01*
X53130326Y-65547780D02*
X52892231Y-65547780D01*
X52892231Y-65547780D02*
X52749374Y-65500161D01*
X52749374Y-65500161D02*
X52654136Y-65404923D01*
X52654136Y-65404923D02*
X52606517Y-65309685D01*
X52606517Y-65309685D02*
X52558898Y-65119209D01*
X52558898Y-65119209D02*
X52558898Y-64976352D01*
X52558898Y-64976352D02*
X52606517Y-64785876D01*
X52606517Y-64785876D02*
X52654136Y-64690638D01*
X52654136Y-64690638D02*
X52749374Y-64595400D01*
X52749374Y-64595400D02*
X52892231Y-64547780D01*
X52892231Y-64547780D02*
X53130326Y-64547780D01*
X52225564Y-65547780D02*
X51606517Y-65547780D01*
X51606517Y-65547780D02*
X51939850Y-65166828D01*
X51939850Y-65166828D02*
X51796993Y-65166828D01*
X51796993Y-65166828D02*
X51701755Y-65119209D01*
X51701755Y-65119209D02*
X51654136Y-65071590D01*
X51654136Y-65071590D02*
X51606517Y-64976352D01*
X51606517Y-64976352D02*
X51606517Y-64738257D01*
X51606517Y-64738257D02*
X51654136Y-64643019D01*
X51654136Y-64643019D02*
X51701755Y-64595400D01*
X51701755Y-64595400D02*
X51796993Y-64547780D01*
X51796993Y-64547780D02*
X52082707Y-64547780D01*
X52082707Y-64547780D02*
X52177945Y-64595400D01*
X52177945Y-64595400D02*
X52225564Y-64643019D01*
X50987469Y-65547780D02*
X50892231Y-65547780D01*
X50892231Y-65547780D02*
X50796993Y-65500161D01*
X50796993Y-65500161D02*
X50749374Y-65452542D01*
X50749374Y-65452542D02*
X50701755Y-65357304D01*
X50701755Y-65357304D02*
X50654136Y-65166828D01*
X50654136Y-65166828D02*
X50654136Y-64928733D01*
X50654136Y-64928733D02*
X50701755Y-64738257D01*
X50701755Y-64738257D02*
X50749374Y-64643019D01*
X50749374Y-64643019D02*
X50796993Y-64595400D01*
X50796993Y-64595400D02*
X50892231Y-64547780D01*
X50892231Y-64547780D02*
X50987469Y-64547780D01*
X50987469Y-64547780D02*
X51082707Y-64595400D01*
X51082707Y-64595400D02*
X51130326Y-64643019D01*
X51130326Y-64643019D02*
X51177945Y-64738257D01*
X51177945Y-64738257D02*
X51225564Y-64928733D01*
X51225564Y-64928733D02*
X51225564Y-65166828D01*
X51225564Y-65166828D02*
X51177945Y-65357304D01*
X51177945Y-65357304D02*
X51130326Y-65452542D01*
X51130326Y-65452542D02*
X51082707Y-65500161D01*
X51082707Y-65500161D02*
X50987469Y-65547780D01*
X59071428Y-125013409D02*
X59214285Y-125061028D01*
X59214285Y-125061028D02*
X59261904Y-125108647D01*
X59261904Y-125108647D02*
X59309523Y-125203885D01*
X59309523Y-125203885D02*
X59309523Y-125346742D01*
X59309523Y-125346742D02*
X59261904Y-125441980D01*
X59261904Y-125441980D02*
X59214285Y-125489600D01*
X59214285Y-125489600D02*
X59119047Y-125537219D01*
X59119047Y-125537219D02*
X58738095Y-125537219D01*
X58738095Y-125537219D02*
X58738095Y-124537219D01*
X58738095Y-124537219D02*
X59071428Y-124537219D01*
X59071428Y-124537219D02*
X59166666Y-124584838D01*
X59166666Y-124584838D02*
X59214285Y-124632457D01*
X59214285Y-124632457D02*
X59261904Y-124727695D01*
X59261904Y-124727695D02*
X59261904Y-124822933D01*
X59261904Y-124822933D02*
X59214285Y-124918171D01*
X59214285Y-124918171D02*
X59166666Y-124965790D01*
X59166666Y-124965790D02*
X59071428Y-125013409D01*
X59071428Y-125013409D02*
X58738095Y-125013409D01*
X62822054Y-123166504D02*
X63298244Y-123166504D01*
X62726816Y-123452219D02*
X63060149Y-122452219D01*
X63060149Y-122452219D02*
X63393482Y-123452219D01*
X64250625Y-123452219D02*
X63679197Y-123452219D01*
X63964911Y-123452219D02*
X63964911Y-122452219D01*
X63964911Y-122452219D02*
X63869673Y-122595076D01*
X63869673Y-122595076D02*
X63774435Y-122690314D01*
X63774435Y-122690314D02*
X63679197Y-122737933D01*
X56690476Y-62558019D02*
X56738095Y-62510400D01*
X56738095Y-62510400D02*
X56880952Y-62462780D01*
X56880952Y-62462780D02*
X56976190Y-62462780D01*
X56976190Y-62462780D02*
X57119047Y-62510400D01*
X57119047Y-62510400D02*
X57214285Y-62605638D01*
X57214285Y-62605638D02*
X57261904Y-62700876D01*
X57261904Y-62700876D02*
X57309523Y-62891352D01*
X57309523Y-62891352D02*
X57309523Y-63034209D01*
X57309523Y-63034209D02*
X57261904Y-63224685D01*
X57261904Y-63224685D02*
X57214285Y-63319923D01*
X57214285Y-63319923D02*
X57119047Y-63415161D01*
X57119047Y-63415161D02*
X56976190Y-63462780D01*
X56976190Y-63462780D02*
X56880952Y-63462780D01*
X56880952Y-63462780D02*
X56738095Y-63415161D01*
X56738095Y-63415161D02*
X56690476Y-63367542D01*
D11*
X139477180Y-108344687D02*
X139524800Y-108392306D01*
X139524800Y-108392306D02*
X139572419Y-108535163D01*
X139572419Y-108535163D02*
X139572419Y-108630401D01*
X139572419Y-108630401D02*
X139524800Y-108773258D01*
X139524800Y-108773258D02*
X139429561Y-108868496D01*
X139429561Y-108868496D02*
X139334323Y-108916115D01*
X139334323Y-108916115D02*
X139143847Y-108963734D01*
X139143847Y-108963734D02*
X139000990Y-108963734D01*
X139000990Y-108963734D02*
X138810514Y-108916115D01*
X138810514Y-108916115D02*
X138715276Y-108868496D01*
X138715276Y-108868496D02*
X138620038Y-108773258D01*
X138620038Y-108773258D02*
X138572419Y-108630401D01*
X138572419Y-108630401D02*
X138572419Y-108535163D01*
X138572419Y-108535163D02*
X138620038Y-108392306D01*
X138620038Y-108392306D02*
X138667657Y-108344687D01*
X138905752Y-107487544D02*
X139572419Y-107487544D01*
X138905752Y-107916115D02*
X139429561Y-107916115D01*
X139429561Y-107916115D02*
X139524800Y-107868496D01*
X139524800Y-107868496D02*
X139572419Y-107773258D01*
X139572419Y-107773258D02*
X139572419Y-107630401D01*
X139572419Y-107630401D02*
X139524800Y-107535163D01*
X139524800Y-107535163D02*
X139477180Y-107487544D01*
X139572419Y-107011353D02*
X138572419Y-107011353D01*
X138953371Y-107011353D02*
X138905752Y-106916115D01*
X138905752Y-106916115D02*
X138905752Y-106725639D01*
X138905752Y-106725639D02*
X138953371Y-106630401D01*
X138953371Y-106630401D02*
X139000990Y-106582782D01*
X139000990Y-106582782D02*
X139096228Y-106535163D01*
X139096228Y-106535163D02*
X139381942Y-106535163D01*
X139381942Y-106535163D02*
X139477180Y-106582782D01*
X139477180Y-106582782D02*
X139524800Y-106630401D01*
X139524800Y-106630401D02*
X139572419Y-106725639D01*
X139572419Y-106725639D02*
X139572419Y-106916115D01*
X139572419Y-106916115D02*
X139524800Y-107011353D01*
X139524800Y-105725639D02*
X139572419Y-105820877D01*
X139572419Y-105820877D02*
X139572419Y-106011353D01*
X139572419Y-106011353D02*
X139524800Y-106106591D01*
X139524800Y-106106591D02*
X139429561Y-106154210D01*
X139429561Y-106154210D02*
X139048609Y-106154210D01*
X139048609Y-106154210D02*
X138953371Y-106106591D01*
X138953371Y-106106591D02*
X138905752Y-106011353D01*
X138905752Y-106011353D02*
X138905752Y-105820877D01*
X138905752Y-105820877D02*
X138953371Y-105725639D01*
X138953371Y-105725639D02*
X139048609Y-105678020D01*
X139048609Y-105678020D02*
X139143847Y-105678020D01*
X139143847Y-105678020D02*
X139239085Y-106154210D01*
X139524800Y-105297067D02*
X139572419Y-105201829D01*
X139572419Y-105201829D02*
X139572419Y-105011353D01*
X139572419Y-105011353D02*
X139524800Y-104916115D01*
X139524800Y-104916115D02*
X139429561Y-104868496D01*
X139429561Y-104868496D02*
X139381942Y-104868496D01*
X139381942Y-104868496D02*
X139286704Y-104916115D01*
X139286704Y-104916115D02*
X139239085Y-105011353D01*
X139239085Y-105011353D02*
X139239085Y-105154210D01*
X139239085Y-105154210D02*
X139191466Y-105249448D01*
X139191466Y-105249448D02*
X139096228Y-105297067D01*
X139096228Y-105297067D02*
X139048609Y-105297067D01*
X139048609Y-105297067D02*
X138953371Y-105249448D01*
X138953371Y-105249448D02*
X138905752Y-105154210D01*
X138905752Y-105154210D02*
X138905752Y-105011353D01*
X138905752Y-105011353D02*
X138953371Y-104916115D01*
X139572419Y-104011353D02*
X139048609Y-104011353D01*
X139048609Y-104011353D02*
X138953371Y-104058972D01*
X138953371Y-104058972D02*
X138905752Y-104154210D01*
X138905752Y-104154210D02*
X138905752Y-104344686D01*
X138905752Y-104344686D02*
X138953371Y-104439924D01*
X139524800Y-104011353D02*
X139572419Y-104106591D01*
X139572419Y-104106591D02*
X139572419Y-104344686D01*
X139572419Y-104344686D02*
X139524800Y-104439924D01*
X139524800Y-104439924D02*
X139429561Y-104487543D01*
X139429561Y-104487543D02*
X139334323Y-104487543D01*
X139334323Y-104487543D02*
X139239085Y-104439924D01*
X139239085Y-104439924D02*
X139191466Y-104344686D01*
X139191466Y-104344686D02*
X139191466Y-104106591D01*
X139191466Y-104106591D02*
X139143847Y-104011353D01*
X138905752Y-103678019D02*
X138905752Y-103297067D01*
X138572419Y-103535162D02*
X139429561Y-103535162D01*
X139429561Y-103535162D02*
X139524800Y-103487543D01*
X139524800Y-103487543D02*
X139572419Y-103392305D01*
X139572419Y-103392305D02*
X139572419Y-103297067D01*
X139096228Y-102344686D02*
X139048609Y-102392305D01*
X139048609Y-102392305D02*
X139000990Y-102487543D01*
X139000990Y-102487543D02*
X139000990Y-102582781D01*
X139000990Y-102582781D02*
X139048609Y-102678019D01*
X139048609Y-102678019D02*
X139096228Y-102725638D01*
X139096228Y-102725638D02*
X139191466Y-102773257D01*
X139191466Y-102773257D02*
X139286704Y-102773257D01*
X139286704Y-102773257D02*
X139381942Y-102725638D01*
X139381942Y-102725638D02*
X139429561Y-102678019D01*
X139429561Y-102678019D02*
X139477180Y-102582781D01*
X139477180Y-102582781D02*
X139477180Y-102487543D01*
X139477180Y-102487543D02*
X139429561Y-102392305D01*
X139429561Y-102392305D02*
X139381942Y-102344686D01*
X139000990Y-102344686D02*
X139381942Y-102344686D01*
X139381942Y-102344686D02*
X139429561Y-102297067D01*
X139429561Y-102297067D02*
X139429561Y-102249448D01*
X139429561Y-102249448D02*
X139381942Y-102154209D01*
X139381942Y-102154209D02*
X139286704Y-102106590D01*
X139286704Y-102106590D02*
X139048609Y-102106590D01*
X139048609Y-102106590D02*
X138905752Y-102201829D01*
X138905752Y-102201829D02*
X138810514Y-102344686D01*
X138810514Y-102344686D02*
X138762895Y-102535162D01*
X138762895Y-102535162D02*
X138810514Y-102725638D01*
X138810514Y-102725638D02*
X138905752Y-102868495D01*
X138905752Y-102868495D02*
X139048609Y-102963733D01*
X139048609Y-102963733D02*
X139239085Y-103011352D01*
X139239085Y-103011352D02*
X139429561Y-102963733D01*
X139429561Y-102963733D02*
X139572419Y-102868495D01*
X139572419Y-102868495D02*
X139667657Y-102725638D01*
X139667657Y-102725638D02*
X139715276Y-102535162D01*
X139715276Y-102535162D02*
X139667657Y-102344686D01*
X139667657Y-102344686D02*
X139572419Y-102201829D01*
X139572419Y-101678019D02*
X138572419Y-101678019D01*
X138572419Y-101678019D02*
X139286704Y-101344686D01*
X139286704Y-101344686D02*
X138572419Y-101011353D01*
X138572419Y-101011353D02*
X139572419Y-101011353D01*
X139524800Y-100582781D02*
X139572419Y-100439924D01*
X139572419Y-100439924D02*
X139572419Y-100201829D01*
X139572419Y-100201829D02*
X139524800Y-100106591D01*
X139524800Y-100106591D02*
X139477180Y-100058972D01*
X139477180Y-100058972D02*
X139381942Y-100011353D01*
X139381942Y-100011353D02*
X139286704Y-100011353D01*
X139286704Y-100011353D02*
X139191466Y-100058972D01*
X139191466Y-100058972D02*
X139143847Y-100106591D01*
X139143847Y-100106591D02*
X139096228Y-100201829D01*
X139096228Y-100201829D02*
X139048609Y-100392305D01*
X139048609Y-100392305D02*
X139000990Y-100487543D01*
X139000990Y-100487543D02*
X138953371Y-100535162D01*
X138953371Y-100535162D02*
X138858133Y-100582781D01*
X138858133Y-100582781D02*
X138762895Y-100582781D01*
X138762895Y-100582781D02*
X138667657Y-100535162D01*
X138667657Y-100535162D02*
X138620038Y-100487543D01*
X138620038Y-100487543D02*
X138572419Y-100392305D01*
X138572419Y-100392305D02*
X138572419Y-100154210D01*
X138572419Y-100154210D02*
X138620038Y-100011353D01*
X138572419Y-99582781D02*
X139381942Y-99582781D01*
X139381942Y-99582781D02*
X139477180Y-99535162D01*
X139477180Y-99535162D02*
X139524800Y-99487543D01*
X139524800Y-99487543D02*
X139572419Y-99392305D01*
X139572419Y-99392305D02*
X139572419Y-99201829D01*
X139572419Y-99201829D02*
X139524800Y-99106591D01*
X139524800Y-99106591D02*
X139477180Y-99058972D01*
X139477180Y-99058972D02*
X139381942Y-99011353D01*
X139381942Y-99011353D02*
X138572419Y-99011353D01*
X139572419Y-97773257D02*
X138572419Y-97773257D01*
X138572419Y-97773257D02*
X138572419Y-97392305D01*
X138572419Y-97392305D02*
X138620038Y-97297067D01*
X138620038Y-97297067D02*
X138667657Y-97249448D01*
X138667657Y-97249448D02*
X138762895Y-97201829D01*
X138762895Y-97201829D02*
X138905752Y-97201829D01*
X138905752Y-97201829D02*
X139000990Y-97249448D01*
X139000990Y-97249448D02*
X139048609Y-97297067D01*
X139048609Y-97297067D02*
X139096228Y-97392305D01*
X139096228Y-97392305D02*
X139096228Y-97773257D01*
X139477180Y-96201829D02*
X139524800Y-96249448D01*
X139524800Y-96249448D02*
X139572419Y-96392305D01*
X139572419Y-96392305D02*
X139572419Y-96487543D01*
X139572419Y-96487543D02*
X139524800Y-96630400D01*
X139524800Y-96630400D02*
X139429561Y-96725638D01*
X139429561Y-96725638D02*
X139334323Y-96773257D01*
X139334323Y-96773257D02*
X139143847Y-96820876D01*
X139143847Y-96820876D02*
X139000990Y-96820876D01*
X139000990Y-96820876D02*
X138810514Y-96773257D01*
X138810514Y-96773257D02*
X138715276Y-96725638D01*
X138715276Y-96725638D02*
X138620038Y-96630400D01*
X138620038Y-96630400D02*
X138572419Y-96487543D01*
X138572419Y-96487543D02*
X138572419Y-96392305D01*
X138572419Y-96392305D02*
X138620038Y-96249448D01*
X138620038Y-96249448D02*
X138667657Y-96201829D01*
X139572419Y-95773257D02*
X138572419Y-95773257D01*
X139191466Y-95297067D02*
X139191466Y-94535163D01*
X139572419Y-93535163D02*
X139572419Y-94106591D01*
X139572419Y-93820877D02*
X138572419Y-93820877D01*
X138572419Y-93820877D02*
X138715276Y-93916115D01*
X138715276Y-93916115D02*
X138810514Y-94011353D01*
X138810514Y-94011353D02*
X138858133Y-94106591D01*
X138572419Y-92916115D02*
X138572419Y-92820877D01*
X138572419Y-92820877D02*
X138620038Y-92725639D01*
X138620038Y-92725639D02*
X138667657Y-92678020D01*
X138667657Y-92678020D02*
X138762895Y-92630401D01*
X138762895Y-92630401D02*
X138953371Y-92582782D01*
X138953371Y-92582782D02*
X139191466Y-92582782D01*
X139191466Y-92582782D02*
X139381942Y-92630401D01*
X139381942Y-92630401D02*
X139477180Y-92678020D01*
X139477180Y-92678020D02*
X139524800Y-92725639D01*
X139524800Y-92725639D02*
X139572419Y-92820877D01*
X139572419Y-92820877D02*
X139572419Y-92916115D01*
X139572419Y-92916115D02*
X139524800Y-93011353D01*
X139524800Y-93011353D02*
X139477180Y-93058972D01*
X139477180Y-93058972D02*
X139381942Y-93106591D01*
X139381942Y-93106591D02*
X139191466Y-93154210D01*
X139191466Y-93154210D02*
X138953371Y-93154210D01*
X138953371Y-93154210D02*
X138762895Y-93106591D01*
X138762895Y-93106591D02*
X138667657Y-93058972D01*
X138667657Y-93058972D02*
X138620038Y-93011353D01*
X138620038Y-93011353D02*
X138572419Y-92916115D01*
X138905752Y-91725639D02*
X139572419Y-91725639D01*
X138524800Y-91963734D02*
X139239085Y-92201829D01*
X139239085Y-92201829D02*
X139239085Y-91582782D01*
X139572419Y-90439924D02*
X138572419Y-90439924D01*
X138572419Y-90439924D02*
X138572419Y-90058972D01*
X138572419Y-90058972D02*
X138620038Y-89963734D01*
X138620038Y-89963734D02*
X138667657Y-89916115D01*
X138667657Y-89916115D02*
X138762895Y-89868496D01*
X138762895Y-89868496D02*
X138905752Y-89868496D01*
X138905752Y-89868496D02*
X139000990Y-89916115D01*
X139000990Y-89916115D02*
X139048609Y-89963734D01*
X139048609Y-89963734D02*
X139096228Y-90058972D01*
X139096228Y-90058972D02*
X139096228Y-90439924D01*
X139572419Y-89439924D02*
X138905752Y-89439924D01*
X139096228Y-89439924D02*
X139000990Y-89392305D01*
X139000990Y-89392305D02*
X138953371Y-89344686D01*
X138953371Y-89344686D02*
X138905752Y-89249448D01*
X138905752Y-89249448D02*
X138905752Y-89154210D01*
X139572419Y-88678019D02*
X139524800Y-88773257D01*
X139524800Y-88773257D02*
X139477180Y-88820876D01*
X139477180Y-88820876D02*
X139381942Y-88868495D01*
X139381942Y-88868495D02*
X139096228Y-88868495D01*
X139096228Y-88868495D02*
X139000990Y-88820876D01*
X139000990Y-88820876D02*
X138953371Y-88773257D01*
X138953371Y-88773257D02*
X138905752Y-88678019D01*
X138905752Y-88678019D02*
X138905752Y-88535162D01*
X138905752Y-88535162D02*
X138953371Y-88439924D01*
X138953371Y-88439924D02*
X139000990Y-88392305D01*
X139000990Y-88392305D02*
X139096228Y-88344686D01*
X139096228Y-88344686D02*
X139381942Y-88344686D01*
X139381942Y-88344686D02*
X139477180Y-88392305D01*
X139477180Y-88392305D02*
X139524800Y-88439924D01*
X139524800Y-88439924D02*
X139572419Y-88535162D01*
X139572419Y-88535162D02*
X139572419Y-88678019D01*
X138905752Y-88058971D02*
X138905752Y-87678019D01*
X138572419Y-87916114D02*
X139429561Y-87916114D01*
X139429561Y-87916114D02*
X139524800Y-87868495D01*
X139524800Y-87868495D02*
X139572419Y-87773257D01*
X139572419Y-87773257D02*
X139572419Y-87678019D01*
X139572419Y-87201828D02*
X139524800Y-87297066D01*
X139524800Y-87297066D02*
X139477180Y-87344685D01*
X139477180Y-87344685D02*
X139381942Y-87392304D01*
X139381942Y-87392304D02*
X139096228Y-87392304D01*
X139096228Y-87392304D02*
X139000990Y-87344685D01*
X139000990Y-87344685D02*
X138953371Y-87297066D01*
X138953371Y-87297066D02*
X138905752Y-87201828D01*
X138905752Y-87201828D02*
X138905752Y-87058971D01*
X138905752Y-87058971D02*
X138953371Y-86963733D01*
X138953371Y-86963733D02*
X139000990Y-86916114D01*
X139000990Y-86916114D02*
X139096228Y-86868495D01*
X139096228Y-86868495D02*
X139381942Y-86868495D01*
X139381942Y-86868495D02*
X139477180Y-86916114D01*
X139477180Y-86916114D02*
X139524800Y-86963733D01*
X139524800Y-86963733D02*
X139572419Y-87058971D01*
X139572419Y-87058971D02*
X139572419Y-87201828D01*
X139048609Y-85344685D02*
X139096228Y-85201828D01*
X139096228Y-85201828D02*
X139143847Y-85154209D01*
X139143847Y-85154209D02*
X139239085Y-85106590D01*
X139239085Y-85106590D02*
X139381942Y-85106590D01*
X139381942Y-85106590D02*
X139477180Y-85154209D01*
X139477180Y-85154209D02*
X139524800Y-85201828D01*
X139524800Y-85201828D02*
X139572419Y-85297066D01*
X139572419Y-85297066D02*
X139572419Y-85678018D01*
X139572419Y-85678018D02*
X138572419Y-85678018D01*
X138572419Y-85678018D02*
X138572419Y-85344685D01*
X138572419Y-85344685D02*
X138620038Y-85249447D01*
X138620038Y-85249447D02*
X138667657Y-85201828D01*
X138667657Y-85201828D02*
X138762895Y-85154209D01*
X138762895Y-85154209D02*
X138858133Y-85154209D01*
X138858133Y-85154209D02*
X138953371Y-85201828D01*
X138953371Y-85201828D02*
X139000990Y-85249447D01*
X139000990Y-85249447D02*
X139048609Y-85344685D01*
X139048609Y-85344685D02*
X139048609Y-85678018D01*
X139572419Y-84535161D02*
X139524800Y-84630399D01*
X139524800Y-84630399D02*
X139477180Y-84678018D01*
X139477180Y-84678018D02*
X139381942Y-84725637D01*
X139381942Y-84725637D02*
X139096228Y-84725637D01*
X139096228Y-84725637D02*
X139000990Y-84678018D01*
X139000990Y-84678018D02*
X138953371Y-84630399D01*
X138953371Y-84630399D02*
X138905752Y-84535161D01*
X138905752Y-84535161D02*
X138905752Y-84392304D01*
X138905752Y-84392304D02*
X138953371Y-84297066D01*
X138953371Y-84297066D02*
X139000990Y-84249447D01*
X139000990Y-84249447D02*
X139096228Y-84201828D01*
X139096228Y-84201828D02*
X139381942Y-84201828D01*
X139381942Y-84201828D02*
X139477180Y-84249447D01*
X139477180Y-84249447D02*
X139524800Y-84297066D01*
X139524800Y-84297066D02*
X139572419Y-84392304D01*
X139572419Y-84392304D02*
X139572419Y-84535161D01*
X139572419Y-83344685D02*
X139048609Y-83344685D01*
X139048609Y-83344685D02*
X138953371Y-83392304D01*
X138953371Y-83392304D02*
X138905752Y-83487542D01*
X138905752Y-83487542D02*
X138905752Y-83678018D01*
X138905752Y-83678018D02*
X138953371Y-83773256D01*
X139524800Y-83344685D02*
X139572419Y-83439923D01*
X139572419Y-83439923D02*
X139572419Y-83678018D01*
X139572419Y-83678018D02*
X139524800Y-83773256D01*
X139524800Y-83773256D02*
X139429561Y-83820875D01*
X139429561Y-83820875D02*
X139334323Y-83820875D01*
X139334323Y-83820875D02*
X139239085Y-83773256D01*
X139239085Y-83773256D02*
X139191466Y-83678018D01*
X139191466Y-83678018D02*
X139191466Y-83439923D01*
X139191466Y-83439923D02*
X139143847Y-83344685D01*
X139572419Y-82868494D02*
X138905752Y-82868494D01*
X139096228Y-82868494D02*
X139000990Y-82820875D01*
X139000990Y-82820875D02*
X138953371Y-82773256D01*
X138953371Y-82773256D02*
X138905752Y-82678018D01*
X138905752Y-82678018D02*
X138905752Y-82582780D01*
X139572419Y-81820875D02*
X138572419Y-81820875D01*
X139524800Y-81820875D02*
X139572419Y-81916113D01*
X139572419Y-81916113D02*
X139572419Y-82106589D01*
X139572419Y-82106589D02*
X139524800Y-82201827D01*
X139524800Y-82201827D02*
X139477180Y-82249446D01*
X139477180Y-82249446D02*
X139381942Y-82297065D01*
X139381942Y-82297065D02*
X139096228Y-82297065D01*
X139096228Y-82297065D02*
X139000990Y-82249446D01*
X139000990Y-82249446D02*
X138953371Y-82201827D01*
X138953371Y-82201827D02*
X138905752Y-82106589D01*
X138905752Y-82106589D02*
X138905752Y-81916113D01*
X138905752Y-81916113D02*
X138953371Y-81820875D01*
X138905752Y-80678017D02*
X139572419Y-80439922D01*
X139572419Y-80439922D02*
X138905752Y-80201827D01*
X138572419Y-79630398D02*
X138572419Y-79535160D01*
X138572419Y-79535160D02*
X138620038Y-79439922D01*
X138620038Y-79439922D02*
X138667657Y-79392303D01*
X138667657Y-79392303D02*
X138762895Y-79344684D01*
X138762895Y-79344684D02*
X138953371Y-79297065D01*
X138953371Y-79297065D02*
X139191466Y-79297065D01*
X139191466Y-79297065D02*
X139381942Y-79344684D01*
X139381942Y-79344684D02*
X139477180Y-79392303D01*
X139477180Y-79392303D02*
X139524800Y-79439922D01*
X139524800Y-79439922D02*
X139572419Y-79535160D01*
X139572419Y-79535160D02*
X139572419Y-79630398D01*
X139572419Y-79630398D02*
X139524800Y-79725636D01*
X139524800Y-79725636D02*
X139477180Y-79773255D01*
X139477180Y-79773255D02*
X139381942Y-79820874D01*
X139381942Y-79820874D02*
X139191466Y-79868493D01*
X139191466Y-79868493D02*
X138953371Y-79868493D01*
X138953371Y-79868493D02*
X138762895Y-79820874D01*
X138762895Y-79820874D02*
X138667657Y-79773255D01*
X138667657Y-79773255D02*
X138620038Y-79725636D01*
X138620038Y-79725636D02*
X138572419Y-79630398D01*
X139477180Y-78868493D02*
X139524800Y-78820874D01*
X139524800Y-78820874D02*
X139572419Y-78868493D01*
X139572419Y-78868493D02*
X139524800Y-78916112D01*
X139524800Y-78916112D02*
X139477180Y-78868493D01*
X139477180Y-78868493D02*
X139572419Y-78868493D01*
X139572419Y-77868494D02*
X139572419Y-78439922D01*
X139572419Y-78154208D02*
X138572419Y-78154208D01*
X138572419Y-78154208D02*
X138715276Y-78249446D01*
X138715276Y-78249446D02*
X138810514Y-78344684D01*
X138810514Y-78344684D02*
X138858133Y-78439922D01*
D10*
X58928571Y-62986590D02*
X58785714Y-62938971D01*
X58785714Y-62938971D02*
X58738095Y-62891352D01*
X58738095Y-62891352D02*
X58690476Y-62796114D01*
X58690476Y-62796114D02*
X58690476Y-62653257D01*
X58690476Y-62653257D02*
X58738095Y-62558019D01*
X58738095Y-62558019D02*
X58785714Y-62510400D01*
X58785714Y-62510400D02*
X58880952Y-62462780D01*
X58880952Y-62462780D02*
X59261904Y-62462780D01*
X59261904Y-62462780D02*
X59261904Y-63462780D01*
X59261904Y-63462780D02*
X58928571Y-63462780D01*
X58928571Y-63462780D02*
X58833333Y-63415161D01*
X58833333Y-63415161D02*
X58785714Y-63367542D01*
X58785714Y-63367542D02*
X58738095Y-63272304D01*
X58738095Y-63272304D02*
X58738095Y-63177066D01*
X58738095Y-63177066D02*
X58785714Y-63081828D01*
X58785714Y-63081828D02*
X58833333Y-63034209D01*
X58833333Y-63034209D02*
X58928571Y-62986590D01*
X58928571Y-62986590D02*
X59261904Y-62986590D01*
X65203006Y-64833495D02*
X64726816Y-64833495D01*
X65298244Y-64547780D02*
X64964911Y-65547780D01*
X64964911Y-65547780D02*
X64631578Y-64547780D01*
X64393482Y-65547780D02*
X63774435Y-65547780D01*
X63774435Y-65547780D02*
X64107768Y-65166828D01*
X64107768Y-65166828D02*
X63964911Y-65166828D01*
X63964911Y-65166828D02*
X63869673Y-65119209D01*
X63869673Y-65119209D02*
X63822054Y-65071590D01*
X63822054Y-65071590D02*
X63774435Y-64976352D01*
X63774435Y-64976352D02*
X63774435Y-64738257D01*
X63774435Y-64738257D02*
X63822054Y-64643019D01*
X63822054Y-64643019D02*
X63869673Y-64595400D01*
X63869673Y-64595400D02*
X63964911Y-64547780D01*
X63964911Y-64547780D02*
X64250625Y-64547780D01*
X64250625Y-64547780D02*
X64345863Y-64595400D01*
X64345863Y-64595400D02*
X64393482Y-64643019D01*
X63155387Y-65547780D02*
X63060149Y-65547780D01*
X63060149Y-65547780D02*
X62964911Y-65500161D01*
X62964911Y-65500161D02*
X62917292Y-65452542D01*
X62917292Y-65452542D02*
X62869673Y-65357304D01*
X62869673Y-65357304D02*
X62822054Y-65166828D01*
X62822054Y-65166828D02*
X62822054Y-64928733D01*
X62822054Y-64928733D02*
X62869673Y-64738257D01*
X62869673Y-64738257D02*
X62917292Y-64643019D01*
X62917292Y-64643019D02*
X62964911Y-64595400D01*
X62964911Y-64595400D02*
X63060149Y-64547780D01*
X63060149Y-64547780D02*
X63155387Y-64547780D01*
X63155387Y-64547780D02*
X63250625Y-64595400D01*
X63250625Y-64595400D02*
X63298244Y-64643019D01*
X63298244Y-64643019D02*
X63345863Y-64738257D01*
X63345863Y-64738257D02*
X63393482Y-64928733D01*
X63393482Y-64928733D02*
X63393482Y-65166828D01*
X63393482Y-65166828D02*
X63345863Y-65357304D01*
X63345863Y-65357304D02*
X63298244Y-65452542D01*
X63298244Y-65452542D02*
X63250625Y-65500161D01*
X63250625Y-65500161D02*
X63155387Y-65547780D01*
X51654136Y-123452219D02*
X51654136Y-122452219D01*
X51654136Y-122452219D02*
X51892231Y-122452219D01*
X51892231Y-122452219D02*
X52035088Y-122499838D01*
X52035088Y-122499838D02*
X52130326Y-122595076D01*
X52130326Y-122595076D02*
X52177945Y-122690314D01*
X52177945Y-122690314D02*
X52225564Y-122880790D01*
X52225564Y-122880790D02*
X52225564Y-123023647D01*
X52225564Y-123023647D02*
X52177945Y-123214123D01*
X52177945Y-123214123D02*
X52130326Y-123309361D01*
X52130326Y-123309361D02*
X52035088Y-123404600D01*
X52035088Y-123404600D02*
X51892231Y-123452219D01*
X51892231Y-123452219D02*
X51654136Y-123452219D01*
X53177945Y-123452219D02*
X52606517Y-123452219D01*
X52892231Y-123452219D02*
X52892231Y-122452219D01*
X52892231Y-122452219D02*
X52796993Y-122595076D01*
X52796993Y-122595076D02*
X52701755Y-122690314D01*
X52701755Y-122690314D02*
X52606517Y-122737933D01*
D12*
%TO.C,G\u002A\u002A\u002A*%
G36*
X145031125Y-113808872D02*
G01*
X145037331Y-113833051D01*
X145040135Y-113878828D01*
X145040508Y-113916003D01*
X145040508Y-114030198D01*
X144943644Y-114058939D01*
X144876107Y-114078053D01*
X144799368Y-114098422D01*
X144742740Y-114112547D01*
X144692795Y-114125474D01*
X144655970Y-114136891D01*
X144639142Y-114144624D01*
X144638764Y-114145402D01*
X144650846Y-114154495D01*
X144683840Y-114173667D01*
X144732938Y-114200254D01*
X144793337Y-114231592D01*
X144804002Y-114237007D01*
X144891423Y-114282166D01*
X144956049Y-114318441D01*
X145001221Y-114348806D01*
X145030281Y-114376231D01*
X145046573Y-114403686D01*
X145053439Y-114434144D01*
X145054422Y-114459610D01*
X145051074Y-114505688D01*
X145043163Y-114542697D01*
X145039220Y-114551860D01*
X145019851Y-114570061D01*
X144981853Y-114595406D01*
X144932671Y-114623037D01*
X144921266Y-114628852D01*
X144855269Y-114662597D01*
X144783783Y-114700253D01*
X144725902Y-114731682D01*
X144688660Y-114752307D01*
X144664207Y-114767848D01*
X144654815Y-114780248D01*
X144662754Y-114791455D01*
X144690294Y-114803414D01*
X144739707Y-114818072D01*
X144813263Y-114837373D01*
X144864717Y-114850644D01*
X145040508Y-114896114D01*
X145040508Y-115014950D01*
X145040508Y-115133787D01*
X144972345Y-115115287D01*
X144931938Y-115103943D01*
X144872070Y-115086666D01*
X144800760Y-115065790D01*
X144726031Y-115043648D01*
X144724802Y-115043281D01*
X144646782Y-115020139D01*
X144568844Y-114997244D01*
X144500282Y-114977315D01*
X144452365Y-114963621D01*
X144395411Y-114943773D01*
X144351762Y-114921190D01*
X144333976Y-114906183D01*
X144315560Y-114865348D01*
X144309090Y-114811785D01*
X144314959Y-114759039D01*
X144328753Y-114726604D01*
X144347765Y-114710240D01*
X144387414Y-114683432D01*
X144442962Y-114649141D01*
X144509666Y-114610330D01*
X144557830Y-114583496D01*
X144627292Y-114545063D01*
X144686999Y-114511255D01*
X144732792Y-114484488D01*
X144760509Y-114467182D01*
X144766940Y-114461921D01*
X144755092Y-114452949D01*
X144722141Y-114432510D01*
X144672118Y-114402991D01*
X144609056Y-114366777D01*
X144548626Y-114332744D01*
X144468515Y-114287584D01*
X144409981Y-114253201D01*
X144369282Y-114226857D01*
X144342677Y-114205812D01*
X144326423Y-114187327D01*
X144316780Y-114168664D01*
X144314109Y-114161075D01*
X144306325Y-114101823D01*
X144318026Y-114044722D01*
X144342981Y-114005277D01*
X144360990Y-113996693D01*
X144401891Y-113981850D01*
X144460922Y-113962177D01*
X144533324Y-113939103D01*
X144614335Y-113914056D01*
X144699196Y-113888466D01*
X144783145Y-113863762D01*
X144861424Y-113841374D01*
X144929270Y-113822730D01*
X144981923Y-113809259D01*
X145014624Y-113802390D01*
X145020742Y-113801808D01*
X145031125Y-113808872D01*
G37*
G36*
X144577712Y-111737561D02*
G01*
X144670033Y-111739597D01*
X144738501Y-111741967D01*
X144787964Y-111745277D01*
X144823267Y-111750134D01*
X144849258Y-111757145D01*
X144870784Y-111766914D01*
X144886550Y-111776191D01*
X144959887Y-111838292D01*
X145013675Y-111919778D01*
X145034543Y-111973781D01*
X145044156Y-112024100D01*
X145050462Y-112094704D01*
X145053455Y-112177371D01*
X145053133Y-112263877D01*
X145049491Y-112345999D01*
X145042525Y-112415512D01*
X145034777Y-112455706D01*
X144998737Y-112547272D01*
X144946243Y-112619036D01*
X144879608Y-112667946D01*
X144870850Y-112672099D01*
X144842289Y-112683554D01*
X144812103Y-112691757D01*
X144774876Y-112697263D01*
X144725191Y-112700623D01*
X144657632Y-112702391D01*
X144566949Y-112703119D01*
X144330169Y-112704012D01*
X144326017Y-112586595D01*
X144321865Y-112469178D01*
X144558735Y-112464618D01*
X144656068Y-112462703D01*
X144728504Y-112459395D01*
X144779815Y-112451938D01*
X144813772Y-112437574D01*
X144834148Y-112413545D01*
X144844713Y-112377096D01*
X144849240Y-112325468D01*
X144851499Y-112255904D01*
X144851664Y-112250471D01*
X144852899Y-112182416D01*
X144852426Y-112122058D01*
X144850393Y-112076976D01*
X144847869Y-112057480D01*
X144836252Y-112030086D01*
X144814645Y-112009661D01*
X144779432Y-111995290D01*
X144726997Y-111986057D01*
X144653725Y-111981048D01*
X144556001Y-111979349D01*
X144538961Y-111979323D01*
X144322994Y-111979323D01*
X144322994Y-111855951D01*
X144322994Y-111732580D01*
X144577712Y-111737561D01*
G37*
G36*
X144887918Y-112789534D02*
G01*
X144952309Y-112826018D01*
X145001909Y-112887082D01*
X145007162Y-112896596D01*
X145016973Y-112916020D01*
X145024643Y-112935237D01*
X145030436Y-112957903D01*
X145034614Y-112987669D01*
X145037442Y-113028191D01*
X145039181Y-113083120D01*
X145040097Y-113156112D01*
X145040451Y-113250818D01*
X145040508Y-113359207D01*
X145040183Y-113462941D01*
X145039264Y-113556657D01*
X145037839Y-113636713D01*
X145035992Y-113699468D01*
X145033811Y-113741282D01*
X145031382Y-113758513D01*
X145031050Y-113758758D01*
X145016872Y-113750976D01*
X144986782Y-113730955D01*
X144947821Y-113703684D01*
X144907032Y-113674151D01*
X144871457Y-113647345D01*
X144853955Y-113633317D01*
X144851503Y-113617818D01*
X144848720Y-113577910D01*
X144845805Y-113517881D01*
X144842956Y-113442017D01*
X144840372Y-113354606D01*
X144839604Y-113323677D01*
X144837064Y-113222707D01*
X144834595Y-113146796D01*
X144831797Y-113092308D01*
X144828267Y-113055605D01*
X144823602Y-113033050D01*
X144817400Y-113021006D01*
X144809258Y-113015836D01*
X144805448Y-113014894D01*
X144777134Y-113019441D01*
X144766205Y-113029069D01*
X144762274Y-113049074D01*
X144758841Y-113092833D01*
X144756125Y-113155400D01*
X144754346Y-113231830D01*
X144753722Y-113310772D01*
X144752988Y-113417004D01*
X144750404Y-113498936D01*
X144745103Y-113560954D01*
X144736215Y-113607440D01*
X144722871Y-113642781D01*
X144704202Y-113671360D01*
X144679339Y-113697562D01*
X144676536Y-113700167D01*
X144635803Y-113726084D01*
X144579521Y-113739455D01*
X144562232Y-113741212D01*
X144485233Y-113738456D01*
X144424854Y-113714294D01*
X144376364Y-113666500D01*
X144363843Y-113647891D01*
X144353941Y-113631115D01*
X144346152Y-113613978D01*
X144340176Y-113592907D01*
X144335714Y-113564326D01*
X144332466Y-113524663D01*
X144330133Y-113470344D01*
X144328416Y-113397795D01*
X144327015Y-113303443D01*
X144325734Y-113193049D01*
X144324613Y-113073052D01*
X144324279Y-112979077D01*
X144324832Y-112908453D01*
X144326370Y-112858507D01*
X144328995Y-112826570D01*
X144332804Y-112809970D01*
X144337897Y-112806037D01*
X144340085Y-112807224D01*
X144361153Y-112823449D01*
X144396698Y-112850428D01*
X144430621Y-112875999D01*
X144470148Y-112906961D01*
X144500320Y-112932905D01*
X144512916Y-112946118D01*
X144516249Y-112965012D01*
X144519173Y-113007811D01*
X144521506Y-113069720D01*
X144523068Y-113145942D01*
X144523678Y-113231684D01*
X144523678Y-113231835D01*
X144524013Y-113327182D01*
X144525060Y-113397673D01*
X144527146Y-113447154D01*
X144530600Y-113479467D01*
X144535752Y-113498456D01*
X144542929Y-113507964D01*
X144547499Y-113510410D01*
X144567622Y-113514169D01*
X144583055Y-113506151D01*
X144594374Y-113483501D01*
X144602155Y-113443360D01*
X144606973Y-113382873D01*
X144609402Y-113299183D01*
X144610022Y-113199941D01*
X144610405Y-113102317D01*
X144611777Y-113028853D01*
X144614498Y-112975016D01*
X144618928Y-112936275D01*
X144625430Y-112908095D01*
X144634362Y-112885945D01*
X144635135Y-112884410D01*
X144678397Y-112824184D01*
X144735056Y-112789001D01*
X144807441Y-112777421D01*
X144808384Y-112777419D01*
X144887918Y-112789534D01*
G37*
G36*
X144839604Y-110981978D02*
G01*
X144839604Y-111620566D01*
X144681751Y-111620566D01*
X144523898Y-111620566D01*
X144523898Y-110981978D01*
X144523898Y-110343390D01*
X144681751Y-110343390D01*
X144839604Y-110343390D01*
X144839604Y-110981978D01*
G37*
G36*
X144810904Y-115940001D02*
G01*
X144810904Y-116643164D01*
X144653051Y-116643164D01*
X144495198Y-116643164D01*
X144495198Y-115940001D01*
X144495198Y-115236837D01*
X144653051Y-115236837D01*
X144810904Y-115236837D01*
X144810904Y-115940001D01*
G37*
G36*
X143743493Y-114878913D02*
G01*
X143821007Y-114881214D01*
X143885868Y-114884690D01*
X143932015Y-114889044D01*
X143949051Y-114892190D01*
X144006828Y-114921245D01*
X144062875Y-114971467D01*
X144110032Y-115035841D01*
X144125104Y-115064633D01*
X144138388Y-115098403D01*
X144147675Y-115136878D01*
X144153857Y-115186526D01*
X144157828Y-115253814D01*
X144159793Y-115315763D01*
X144161015Y-115387576D01*
X144160969Y-115450070D01*
X144159739Y-115497071D01*
X144157407Y-115522406D01*
X144157008Y-115523842D01*
X144148753Y-115548938D01*
X144135454Y-115590728D01*
X144125034Y-115623990D01*
X144085810Y-115709309D01*
X144028564Y-115773310D01*
X143954769Y-115814556D01*
X143918925Y-115824808D01*
X143871184Y-115831314D01*
X143801700Y-115835658D01*
X143717368Y-115837545D01*
X143634181Y-115836896D01*
X143426102Y-115832373D01*
X143426102Y-115717571D01*
X143426102Y-115602769D01*
X143641356Y-115599291D01*
X143719530Y-115597575D01*
X143789532Y-115595198D01*
X143845368Y-115592427D01*
X143881045Y-115589527D01*
X143888637Y-115588320D01*
X143919717Y-115572435D01*
X143941836Y-115539534D01*
X143955944Y-115486571D01*
X143962992Y-115410499D01*
X143964237Y-115345977D01*
X143963712Y-115277345D01*
X143961332Y-115230756D01*
X143955891Y-115199560D01*
X143946182Y-115177107D01*
X143930999Y-115156747D01*
X143929609Y-115155123D01*
X143894981Y-115114859D01*
X143656954Y-115109797D01*
X143418926Y-115104735D01*
X143418926Y-114991407D01*
X143418926Y-114878080D01*
X143659388Y-114878080D01*
X143743493Y-114878913D01*
G37*
G36*
X143978963Y-115905298D02*
G01*
X144010302Y-115926677D01*
X144049202Y-115955585D01*
X144088484Y-115986522D01*
X144120970Y-116013988D01*
X144139483Y-116032482D01*
X144139808Y-116032925D01*
X144143390Y-116051730D01*
X144146330Y-116093913D01*
X144148411Y-116154158D01*
X144149418Y-116227144D01*
X144149438Y-116270057D01*
X144148401Y-116362585D01*
X144145774Y-116432476D01*
X144140978Y-116485774D01*
X144133432Y-116528524D01*
X144122559Y-116566771D01*
X144120409Y-116573058D01*
X144076170Y-116663541D01*
X144013910Y-116739513D01*
X143938279Y-116797310D01*
X143853923Y-116833265D01*
X143776914Y-116843928D01*
X143703004Y-116832314D01*
X143626410Y-116800762D01*
X143557968Y-116754653D01*
X143520849Y-116716772D01*
X143488991Y-116671992D01*
X143464293Y-116624961D01*
X143445918Y-116571361D01*
X143433030Y-116506873D01*
X143424795Y-116427179D01*
X143420376Y-116327959D01*
X143418939Y-116204897D01*
X143418926Y-116190048D01*
X143418790Y-116086681D01*
X143419318Y-116009456D01*
X143421916Y-115955823D01*
X143427990Y-115923233D01*
X143438944Y-115909136D01*
X143456184Y-115910982D01*
X143481116Y-115926222D01*
X143515144Y-115952306D01*
X143539502Y-115971321D01*
X143619721Y-116033277D01*
X143619776Y-116245657D01*
X143620649Y-116338625D01*
X143623452Y-116407166D01*
X143628539Y-116455511D01*
X143636265Y-116487891D01*
X143641069Y-116499107D01*
X143682634Y-116554999D01*
X143734321Y-116588548D01*
X143790530Y-116599502D01*
X143845659Y-116587611D01*
X143894106Y-116552621D01*
X143922337Y-116511756D01*
X143931994Y-116489989D01*
X143939121Y-116464978D01*
X143944091Y-116432193D01*
X143947277Y-116387109D01*
X143949052Y-116325198D01*
X143949788Y-116241934D01*
X143949887Y-116177352D01*
X143950493Y-116091185D01*
X143952183Y-116015742D01*
X143954763Y-115955369D01*
X143958040Y-115914411D01*
X143961820Y-115897214D01*
X143962363Y-115896950D01*
X143978963Y-115905298D01*
G37*
G36*
X144011623Y-113842421D02*
G01*
X144051541Y-113863192D01*
X144078753Y-113883804D01*
X144100442Y-113907195D01*
X144117232Y-113936716D01*
X144129747Y-113975714D01*
X144138613Y-114027540D01*
X144144454Y-114095543D01*
X144147894Y-114183072D01*
X144149557Y-114293478D01*
X144150010Y-114391366D01*
X144149863Y-114491253D01*
X144149040Y-114581546D01*
X144147636Y-114658315D01*
X144145741Y-114717626D01*
X144143446Y-114755550D01*
X144141224Y-114768061D01*
X144123427Y-114772004D01*
X144083293Y-114774826D01*
X144027162Y-114776556D01*
X143961373Y-114777226D01*
X143896905Y-114776890D01*
X143892268Y-114776866D01*
X143826185Y-114775507D01*
X143769466Y-114773180D01*
X143728450Y-114769916D01*
X143709791Y-114765966D01*
X143703601Y-114753463D01*
X143698613Y-114723101D01*
X143694686Y-114672573D01*
X143691675Y-114599569D01*
X143690168Y-114533673D01*
X143863056Y-114533673D01*
X143896905Y-114533673D01*
X143927351Y-114529856D01*
X143940679Y-114523747D01*
X143943894Y-114506628D01*
X143946144Y-114466076D01*
X143947291Y-114407346D01*
X143947196Y-114335694D01*
X143946658Y-114297730D01*
X143942712Y-114081639D01*
X143906836Y-114081639D01*
X143870960Y-114081639D01*
X143867008Y-114307656D01*
X143863056Y-114533673D01*
X143690168Y-114533673D01*
X143689438Y-114501780D01*
X143688266Y-114418192D01*
X143686952Y-114311538D01*
X143685553Y-114230168D01*
X143683737Y-114170666D01*
X143681175Y-114129618D01*
X143677536Y-114103608D01*
X143672489Y-114089219D01*
X143665705Y-114083037D01*
X143656852Y-114081646D01*
X143655706Y-114081639D01*
X143646649Y-114082693D01*
X143639674Y-114088116D01*
X143634456Y-114101304D01*
X143630672Y-114125650D01*
X143627997Y-114164548D01*
X143626107Y-114221393D01*
X143624677Y-114299579D01*
X143623385Y-114402500D01*
X143623158Y-114422458D01*
X143621732Y-114517925D01*
X143619793Y-114603072D01*
X143617486Y-114673957D01*
X143614954Y-114726638D01*
X143612344Y-114757172D01*
X143610642Y-114763277D01*
X143596238Y-114754838D01*
X143565546Y-114732389D01*
X143524373Y-114700236D01*
X143510450Y-114689020D01*
X143418926Y-114614763D01*
X143419067Y-114326676D01*
X143419283Y-114227960D01*
X143420124Y-114153214D01*
X143422044Y-114097706D01*
X143425497Y-114056704D01*
X143430937Y-114025477D01*
X143438818Y-113999296D01*
X143449595Y-113973427D01*
X143453850Y-113964183D01*
X143493735Y-113900422D01*
X143544190Y-113861863D01*
X143609368Y-113845737D01*
X143632668Y-113844859D01*
X143692728Y-113855770D01*
X143730003Y-113879284D01*
X143770024Y-113913709D01*
X143817404Y-113872109D01*
X143875735Y-113838801D01*
X143943163Y-113828803D01*
X144011623Y-113842421D01*
G37*
G36*
X143977299Y-112891811D02*
G01*
X144009009Y-112914084D01*
X144050180Y-112945731D01*
X144058226Y-112952171D01*
X144143616Y-113020951D01*
X144147459Y-113368681D01*
X144148402Y-113482457D01*
X144148331Y-113570417D01*
X144147126Y-113635428D01*
X144144670Y-113680360D01*
X144140844Y-113708083D01*
X144135530Y-113721466D01*
X144132825Y-113723502D01*
X144113788Y-113725335D01*
X144070262Y-113726672D01*
X144006455Y-113727475D01*
X143926577Y-113727708D01*
X143834835Y-113727332D01*
X143770225Y-113726737D01*
X143426102Y-113722882D01*
X143422286Y-113314844D01*
X143421692Y-113209268D01*
X143421901Y-113113036D01*
X143422847Y-113029885D01*
X143424460Y-112963555D01*
X143426673Y-112917785D01*
X143429416Y-112896313D01*
X143429951Y-112895327D01*
X143445594Y-112898323D01*
X143476984Y-112916455D01*
X143518136Y-112946112D01*
X143530631Y-112956021D01*
X143619830Y-113028196D01*
X143619830Y-113257149D01*
X143619830Y-113486102D01*
X143655706Y-113486102D01*
X143691582Y-113486102D01*
X143691582Y-113206272D01*
X143691984Y-113120197D01*
X143693104Y-113044850D01*
X143694814Y-112984582D01*
X143696986Y-112943744D01*
X143699490Y-112926685D01*
X143699836Y-112926441D01*
X143714456Y-112934637D01*
X143744963Y-112956152D01*
X143784833Y-112986378D01*
X143785938Y-112987241D01*
X143863785Y-113048041D01*
X143863785Y-113267071D01*
X143863785Y-113486102D01*
X143906836Y-113486102D01*
X143949887Y-113486102D01*
X143949887Y-113184746D01*
X143950407Y-113095248D01*
X143951860Y-113016320D01*
X143954086Y-112952154D01*
X143956926Y-112906943D01*
X143960221Y-112884878D01*
X143961361Y-112883390D01*
X143977299Y-112891811D01*
G37*
G36*
X143988388Y-111878156D02*
G01*
X144042728Y-111900409D01*
X144083851Y-111942756D01*
X144118062Y-112009355D01*
X144127746Y-112034411D01*
X144135251Y-112059258D01*
X144140858Y-112087858D01*
X144144849Y-112124171D01*
X144147507Y-112172158D01*
X144149113Y-112235780D01*
X144149950Y-112318999D01*
X144150298Y-112425774D01*
X144150350Y-112462798D01*
X144150071Y-112563710D01*
X144149059Y-112654889D01*
X144147417Y-112732491D01*
X144145251Y-112792673D01*
X144142665Y-112831590D01*
X144139960Y-112845339D01*
X144124447Y-112840212D01*
X144092899Y-112820641D01*
X144051381Y-112790496D01*
X144039508Y-112781252D01*
X143949887Y-112710470D01*
X143949887Y-112418405D01*
X143949565Y-112316636D01*
X143948432Y-112239920D01*
X143946234Y-112184617D01*
X143942719Y-112147084D01*
X143937634Y-112123680D01*
X143930725Y-112110764D01*
X143928362Y-112108475D01*
X143905393Y-112097845D01*
X143885311Y-112108475D01*
X143877397Y-112119762D01*
X143871580Y-112141142D01*
X143867553Y-112176457D01*
X143865012Y-112229552D01*
X143863650Y-112304271D01*
X143863194Y-112386475D01*
X143862725Y-112480492D01*
X143861479Y-112550766D01*
X143858961Y-112602253D01*
X143854678Y-112639910D01*
X143848134Y-112668693D01*
X143838836Y-112693558D01*
X143830906Y-112710321D01*
X143789407Y-112774699D01*
X143739579Y-112813695D01*
X143676870Y-112830375D01*
X143651051Y-112831509D01*
X143574224Y-112821613D01*
X143515210Y-112790383D01*
X143470597Y-112735503D01*
X143451655Y-112696108D01*
X143441700Y-112670072D01*
X143434053Y-112644272D01*
X143428407Y-112614569D01*
X143424452Y-112576825D01*
X143421879Y-112526903D01*
X143420380Y-112460664D01*
X143419645Y-112373971D01*
X143419367Y-112263588D01*
X143419675Y-112165696D01*
X143420773Y-112077619D01*
X143422545Y-112003325D01*
X143424874Y-111946779D01*
X143427644Y-111911947D01*
X143429976Y-111902436D01*
X143445942Y-111907116D01*
X143478004Y-111925742D01*
X143519713Y-111954498D01*
X143526840Y-111959777D01*
X143612655Y-112023946D01*
X143619830Y-112306578D01*
X143627006Y-112589210D01*
X143662881Y-112589210D01*
X143698757Y-112589210D01*
X143705932Y-112309379D01*
X143709452Y-112198581D01*
X143714205Y-112112343D01*
X143721059Y-112046527D01*
X143730881Y-111996993D01*
X143744535Y-111959604D01*
X143762890Y-111930221D01*
X143786811Y-111904706D01*
X143791560Y-111900396D01*
X143818754Y-111883105D01*
X143856480Y-111874229D01*
X143913611Y-111871696D01*
X143914466Y-111871695D01*
X143988388Y-111878156D01*
G37*
G36*
X144138498Y-110696244D02*
G01*
X144142549Y-110712404D01*
X144145807Y-110752465D01*
X144148292Y-110812054D01*
X144150022Y-110886799D01*
X144151019Y-110972327D01*
X144151301Y-111064267D01*
X144150889Y-111158247D01*
X144149801Y-111249893D01*
X144148058Y-111334834D01*
X144145679Y-111408697D01*
X144142684Y-111467111D01*
X144139093Y-111505703D01*
X144134925Y-111520101D01*
X144134794Y-111520114D01*
X144115988Y-111512175D01*
X144081483Y-111491277D01*
X144038453Y-111461794D01*
X144034760Y-111459125D01*
X143950724Y-111398136D01*
X143950305Y-111250676D01*
X143949887Y-111103215D01*
X143820734Y-111190057D01*
X143768356Y-111226206D01*
X143726284Y-111257013D01*
X143699395Y-111278792D01*
X143692094Y-111287292D01*
X143703408Y-111299337D01*
X143733427Y-111323293D01*
X143776971Y-111355158D01*
X143807729Y-111376611D01*
X143876032Y-111423948D01*
X143952949Y-111478030D01*
X144023951Y-111528628D01*
X144036821Y-111537904D01*
X144150791Y-111620271D01*
X144150791Y-111747179D01*
X144149846Y-111804860D01*
X144147319Y-111851031D01*
X144143675Y-111878614D01*
X144141887Y-111882991D01*
X144126495Y-111880158D01*
X144096368Y-111863398D01*
X144071139Y-111845920D01*
X144041491Y-111824354D01*
X143992640Y-111789367D01*
X143928882Y-111744012D01*
X143854516Y-111691344D01*
X143773840Y-111634416D01*
X143733966Y-111606355D01*
X143654210Y-111549635D01*
X143581166Y-111496477D01*
X143518551Y-111449681D01*
X143470080Y-111412051D01*
X143439471Y-111386388D01*
X143431606Y-111378403D01*
X143409791Y-111330389D01*
X143404951Y-111271844D01*
X143416965Y-111215293D01*
X143433447Y-111185925D01*
X143456330Y-111163515D01*
X143497230Y-111129707D01*
X143550335Y-111089102D01*
X143609238Y-111046717D01*
X143738094Y-110956984D01*
X143845332Y-110882713D01*
X143932721Y-110822733D01*
X144002031Y-110775871D01*
X144055032Y-110740956D01*
X144093493Y-110716816D01*
X144119185Y-110702278D01*
X144133876Y-110696171D01*
X144138498Y-110696244D01*
G37*
G36*
X143445282Y-109956050D02*
G01*
X143476816Y-109975604D01*
X143518270Y-110005714D01*
X143529649Y-110014579D01*
X143618711Y-110084918D01*
X143622858Y-110210567D01*
X143627006Y-110336215D01*
X143888898Y-110340127D01*
X144150791Y-110344038D01*
X144150791Y-110458193D01*
X144150791Y-110572347D01*
X143888898Y-110576259D01*
X143627006Y-110580170D01*
X143622935Y-110742961D01*
X143620854Y-110817822D01*
X143616814Y-110866280D01*
X143607458Y-110890598D01*
X143589433Y-110893038D01*
X143559380Y-110875863D01*
X143513945Y-110841336D01*
X143496865Y-110827973D01*
X143418926Y-110767102D01*
X143418926Y-110362364D01*
X143419296Y-110257518D01*
X143420338Y-110162294D01*
X143421957Y-110080391D01*
X143424055Y-110015506D01*
X143426534Y-109971336D01*
X143429297Y-109951580D01*
X143429757Y-109950933D01*
X143445282Y-109956050D01*
G37*
G36*
X138945424Y-110234134D02*
G01*
X139205078Y-110235703D01*
X139437788Y-110237144D01*
X139645312Y-110238530D01*
X139829406Y-110239928D01*
X139991826Y-110241408D01*
X140134329Y-110243041D01*
X140258671Y-110244897D01*
X140366609Y-110247043D01*
X140459899Y-110249551D01*
X140540299Y-110252490D01*
X140609564Y-110255930D01*
X140669451Y-110259939D01*
X140721717Y-110264589D01*
X140768118Y-110269948D01*
X140810410Y-110276087D01*
X140850351Y-110283075D01*
X140889697Y-110290981D01*
X140930204Y-110299875D01*
X140973629Y-110309827D01*
X140998421Y-110315554D01*
X141070183Y-110333961D01*
X141154751Y-110358439D01*
X141238110Y-110384845D01*
X141271077Y-110396108D01*
X141543012Y-110506520D01*
X141799353Y-110640297D01*
X142039032Y-110796051D01*
X142260987Y-110972398D01*
X142464150Y-111167950D01*
X142647458Y-111381323D01*
X142809846Y-111611129D01*
X142950248Y-111855982D01*
X143067599Y-112114496D01*
X143160835Y-112385285D01*
X143228890Y-112666964D01*
X143270699Y-112958145D01*
X143274754Y-113003950D01*
X143281504Y-113092005D01*
X143285606Y-113163372D01*
X143287030Y-113226714D01*
X143285744Y-113290693D01*
X143281714Y-113363974D01*
X143274911Y-113455219D01*
X143273009Y-113478927D01*
X143238251Y-113742441D01*
X143177384Y-114007708D01*
X143092251Y-114269961D01*
X142984696Y-114524436D01*
X142856561Y-114766367D01*
X142709688Y-114990991D01*
X142665343Y-115050283D01*
X142501508Y-115243998D01*
X142317117Y-115428344D01*
X142120276Y-115595355D01*
X142077494Y-115627944D01*
X142024125Y-115667084D01*
X141986794Y-115691501D01*
X141958885Y-115704096D01*
X141933783Y-115707770D01*
X141904873Y-115705426D01*
X141901791Y-115705010D01*
X141853789Y-115693484D01*
X141799596Y-115672987D01*
X141745884Y-115647093D01*
X141699322Y-115619373D01*
X141666583Y-115593402D01*
X141654336Y-115572751D01*
X141654343Y-115572486D01*
X141665877Y-115559732D01*
X141696504Y-115535773D01*
X141740952Y-115504570D01*
X141772733Y-115483583D01*
X141830138Y-115445482D01*
X141883957Y-115407977D01*
X141925723Y-115377035D01*
X141938337Y-115366837D01*
X141986052Y-115326225D01*
X141862354Y-115178295D01*
X141653896Y-114911046D01*
X141473626Y-114641706D01*
X141321591Y-114370498D01*
X141197840Y-114097646D01*
X141102424Y-113823373D01*
X141035390Y-113547904D01*
X140996788Y-113271462D01*
X140986666Y-112994271D01*
X141005074Y-112716555D01*
X141052060Y-112438538D01*
X141127673Y-112160443D01*
X141173635Y-112028378D01*
X141248792Y-111845977D01*
X141341289Y-111653204D01*
X141446671Y-111458358D01*
X141560480Y-111269738D01*
X141663392Y-111116440D01*
X141700140Y-111064385D01*
X141731049Y-111020185D01*
X141752067Y-110989661D01*
X141758584Y-110979780D01*
X141751462Y-110964686D01*
X141720117Y-110938626D01*
X141666260Y-110902927D01*
X141635892Y-110884520D01*
X141460939Y-110786999D01*
X141292068Y-110706736D01*
X141120313Y-110640200D01*
X140936703Y-110583861D01*
X140764124Y-110541240D01*
X140716869Y-110531456D01*
X140669235Y-110523752D01*
X140616596Y-110517801D01*
X140554324Y-110513275D01*
X140477790Y-110509848D01*
X140382367Y-110507193D01*
X140263427Y-110504982D01*
X140247353Y-110504731D01*
X140120271Y-110503105D01*
X140016595Y-110503016D01*
X139931042Y-110505163D01*
X139858329Y-110510247D01*
X139793175Y-110518969D01*
X139730296Y-110532030D01*
X139664409Y-110550129D01*
X139590233Y-110573968D01*
X139505891Y-110603053D01*
X139334563Y-110670808D01*
X139182121Y-110748921D01*
X139040619Y-110842305D01*
X138902116Y-110955868D01*
X138836619Y-111016819D01*
X138674248Y-111192926D01*
X138533846Y-111387333D01*
X138415714Y-111599521D01*
X138320155Y-111828968D01*
X138266415Y-112001187D01*
X138246927Y-112068681D01*
X138230267Y-112112667D01*
X138213190Y-112137689D01*
X138192453Y-112148289D01*
X138164810Y-112149011D01*
X138161097Y-112148671D01*
X138121455Y-112137504D01*
X138099289Y-112111604D01*
X138093766Y-112068023D01*
X138104052Y-112003812D01*
X138111709Y-111974188D01*
X138177118Y-111771250D01*
X138258859Y-111572100D01*
X138353318Y-111384569D01*
X138456881Y-111216488D01*
X138470212Y-111197341D01*
X138596282Y-111039105D01*
X138745348Y-110886783D01*
X138911719Y-110745361D01*
X139089706Y-110619829D01*
X139210853Y-110548063D01*
X139321921Y-110487255D01*
X138371679Y-110487074D01*
X137421438Y-110486893D01*
X137364713Y-110562232D01*
X137246956Y-110733764D01*
X137133815Y-110927709D01*
X137028032Y-111137841D01*
X136932351Y-111357932D01*
X136849514Y-111581757D01*
X136782264Y-111803089D01*
X136740476Y-111979323D01*
X136718952Y-112087351D01*
X136701240Y-112183114D01*
X136686987Y-112271093D01*
X136675839Y-112355768D01*
X136667444Y-112441620D01*
X136661447Y-112533131D01*
X136657496Y-112634780D01*
X136655236Y-112751050D01*
X136654315Y-112886421D01*
X136654378Y-113045373D01*
X136654446Y-113069944D01*
X136656002Y-113290799D01*
X136659497Y-113487243D01*
X136665260Y-113663522D01*
X136673620Y-113823882D01*
X136684904Y-113972566D01*
X136699442Y-114113821D01*
X136717563Y-114251892D01*
X136739594Y-114391023D01*
X136765865Y-114535460D01*
X136769258Y-114553042D01*
X136819806Y-114776805D01*
X136882831Y-114994407D01*
X136956775Y-115202321D01*
X137040079Y-115397018D01*
X137131183Y-115574969D01*
X137228531Y-115732646D01*
X137330562Y-115866520D01*
X137367670Y-115907712D01*
X137411788Y-115954351D01*
X138983917Y-115954331D01*
X139236241Y-115954319D01*
X139461627Y-115954250D01*
X139661835Y-115954065D01*
X139838628Y-115953704D01*
X139993766Y-115953107D01*
X140129011Y-115952216D01*
X140246125Y-115950972D01*
X140346869Y-115949313D01*
X140433006Y-115947182D01*
X140506295Y-115944519D01*
X140568500Y-115941263D01*
X140621381Y-115937357D01*
X140666700Y-115932741D01*
X140706219Y-115927354D01*
X140741699Y-115921139D01*
X140774902Y-115914034D01*
X140807589Y-115905982D01*
X140841522Y-115896922D01*
X140863314Y-115890950D01*
X140940979Y-115869620D01*
X141020557Y-115942350D01*
X141064144Y-115980209D01*
X141103927Y-116011366D01*
X141131743Y-116029456D01*
X141133034Y-116030070D01*
X141153716Y-116047664D01*
X141165696Y-116071733D01*
X141165598Y-116091884D01*
X141155169Y-116098191D01*
X141137039Y-116101824D01*
X141098781Y-116111135D01*
X141047959Y-116124270D01*
X141036780Y-116127239D01*
X140975356Y-116142234D01*
X140897605Y-116159237D01*
X140815535Y-116175690D01*
X140768831Y-116184302D01*
X140743514Y-116188617D01*
X140717945Y-116192472D01*
X140690438Y-116195891D01*
X140659310Y-116198902D01*
X140622878Y-116201530D01*
X140579456Y-116203801D01*
X140527361Y-116205741D01*
X140464909Y-116207376D01*
X140390417Y-116208731D01*
X140302199Y-116209834D01*
X140198573Y-116210709D01*
X140077853Y-116211383D01*
X139938357Y-116211882D01*
X139778400Y-116212232D01*
X139596297Y-116212458D01*
X139390366Y-116212587D01*
X139158922Y-116212644D01*
X138929329Y-116212656D01*
X137250149Y-116212656D01*
X137165139Y-116108616D01*
X137014187Y-115902334D01*
X136880111Y-115673565D01*
X136762856Y-115422154D01*
X136662364Y-115147942D01*
X136578581Y-114850773D01*
X136511450Y-114530488D01*
X136460914Y-114186931D01*
X136452132Y-114109277D01*
X136438417Y-113960540D01*
X136427046Y-113794608D01*
X136418058Y-113616052D01*
X136411492Y-113429444D01*
X136407386Y-113239357D01*
X136405779Y-113050360D01*
X136406709Y-112867027D01*
X136410216Y-112693929D01*
X136416337Y-112535638D01*
X136425110Y-112396724D01*
X136436576Y-112281761D01*
X136436713Y-112280679D01*
X136493465Y-111934377D01*
X136573875Y-111600964D01*
X136677473Y-111281659D01*
X136803790Y-110977684D01*
X136952360Y-110690258D01*
X137122712Y-110420604D01*
X137182392Y-110337398D01*
X137266265Y-110223984D01*
X138945424Y-110234134D01*
G37*
G36*
X140773087Y-115162913D02*
G01*
X140827928Y-115209384D01*
X140868101Y-115276598D01*
X140882607Y-115322328D01*
X140891789Y-115357557D01*
X140903227Y-115383881D01*
X140921938Y-115406972D01*
X140952939Y-115432499D01*
X141001248Y-115466136D01*
X141022429Y-115480375D01*
X141337171Y-115675180D01*
X141659161Y-115842315D01*
X141989019Y-115982036D01*
X142327363Y-116094597D01*
X142674813Y-116180254D01*
X142765155Y-116197861D01*
X142849572Y-116216619D01*
X142906800Y-116237475D01*
X142938346Y-116261863D01*
X142945713Y-116291218D01*
X142930406Y-116326974D01*
X142918087Y-116343617D01*
X142890808Y-116377306D01*
X142740826Y-116351931D01*
X142430178Y-116286106D01*
X142116535Y-116193812D01*
X141803489Y-116076514D01*
X141494634Y-115935676D01*
X141193563Y-115772764D01*
X140955190Y-115623850D01*
X140893240Y-115582988D01*
X140850075Y-115556131D01*
X140820700Y-115541209D01*
X140800125Y-115536150D01*
X140783357Y-115538884D01*
X140767770Y-115546100D01*
X140709069Y-115563563D01*
X140640827Y-115564802D01*
X140576845Y-115550293D01*
X140553036Y-115538702D01*
X140510735Y-115500448D01*
X140474968Y-115446410D01*
X140452581Y-115388495D01*
X140448418Y-115356741D01*
X140460669Y-115294753D01*
X140493029Y-115233241D01*
X140538906Y-115183214D01*
X140561588Y-115167727D01*
X140635815Y-115140109D01*
X140707682Y-115139163D01*
X140773087Y-115162913D01*
G37*
G36*
X140530941Y-110842515D02*
G01*
X140555674Y-110871575D01*
X140577458Y-110902876D01*
X140647514Y-110991822D01*
X140737882Y-111076270D01*
X140840241Y-111149716D01*
X140946271Y-111205651D01*
X140982966Y-111219979D01*
X141022836Y-111239189D01*
X141034111Y-111258117D01*
X141016890Y-111275806D01*
X140975791Y-111290200D01*
X140851025Y-111335640D01*
X140738502Y-111405685D01*
X140642110Y-111497480D01*
X140582983Y-111578490D01*
X140554711Y-111620799D01*
X140530316Y-111651136D01*
X140514909Y-111663178D01*
X140514542Y-111663190D01*
X140499993Y-111651379D01*
X140476842Y-111620748D01*
X140449983Y-111577808D01*
X140448781Y-111575717D01*
X140374910Y-111472210D01*
X140280018Y-111378451D01*
X140171279Y-111300274D01*
X140055865Y-111243514D01*
X140028672Y-111233954D01*
X139994486Y-111218956D01*
X139975953Y-111203176D01*
X139974859Y-111199382D01*
X139987664Y-111187251D01*
X140020869Y-111173309D01*
X140057248Y-111163078D01*
X140155832Y-111131040D01*
X140252670Y-111083125D01*
X140341189Y-111023794D01*
X140414813Y-110957509D01*
X140466969Y-110888729D01*
X140470214Y-110882887D01*
X140491436Y-110850450D01*
X140510448Y-110832537D01*
X140514762Y-110831300D01*
X140530941Y-110842515D01*
G37*
G36*
X139078895Y-111996211D02*
G01*
X139099008Y-112004177D01*
X139130716Y-112018384D01*
X139175538Y-112039586D01*
X139234989Y-112068533D01*
X139310586Y-112105979D01*
X139403847Y-112152674D01*
X139516287Y-112209373D01*
X139649424Y-112276825D01*
X139804776Y-112355785D01*
X139983857Y-112447004D01*
X140017910Y-112464366D01*
X140140566Y-112527079D01*
X140239849Y-112578311D01*
X140318073Y-112619381D01*
X140377551Y-112651613D01*
X140420596Y-112676328D01*
X140449522Y-112694849D01*
X140466642Y-112708496D01*
X140474270Y-112718592D01*
X140474980Y-112725537D01*
X140474085Y-112740827D01*
X140472137Y-112782137D01*
X140469250Y-112846812D01*
X140465539Y-112932195D01*
X140461116Y-113035630D01*
X140456096Y-113154461D01*
X140450593Y-113286032D01*
X140444721Y-113427687D01*
X140441724Y-113500453D01*
X140435821Y-113646653D01*
X140430460Y-113784529D01*
X140425732Y-113911357D01*
X140421730Y-114024417D01*
X140418544Y-114120986D01*
X140416267Y-114198341D01*
X140414991Y-114253762D01*
X140414806Y-114284526D01*
X140415129Y-114289718D01*
X140413113Y-114319233D01*
X140409141Y-114327616D01*
X140393095Y-114336136D01*
X140353284Y-114351987D01*
X140293318Y-114373889D01*
X140216811Y-114400559D01*
X140127374Y-114430714D01*
X140028617Y-114463072D01*
X140017910Y-114466528D01*
X139891827Y-114507150D01*
X139750315Y-114552734D01*
X139602984Y-114600185D01*
X139459442Y-114646408D01*
X139329299Y-114688308D01*
X139277842Y-114704872D01*
X139180346Y-114735957D01*
X139090972Y-114763889D01*
X139013613Y-114787496D01*
X138999039Y-114791791D01*
X138952162Y-114805606D01*
X138910512Y-114817048D01*
X138893022Y-114820679D01*
X138876319Y-114814222D01*
X138837114Y-114795847D01*
X138795664Y-114775551D01*
X138778281Y-114767040D01*
X138702694Y-114729290D01*
X138613227Y-114684087D01*
X138512754Y-114632919D01*
X138404148Y-114577274D01*
X138290283Y-114518641D01*
X138174035Y-114458509D01*
X138058275Y-114398366D01*
X137945879Y-114339700D01*
X137839721Y-114284002D01*
X137742673Y-114232759D01*
X137657611Y-114187459D01*
X137587408Y-114149592D01*
X137534938Y-114120646D01*
X137503075Y-114102110D01*
X137494935Y-114096503D01*
X137490902Y-114088374D01*
X137487836Y-114071073D01*
X137485756Y-114042513D01*
X137484683Y-114000608D01*
X137484662Y-113974253D01*
X137586798Y-113974253D01*
X137587108Y-114015954D01*
X137588348Y-114032486D01*
X137588415Y-114032572D01*
X137605514Y-114043610D01*
X137644530Y-114065678D01*
X137702426Y-114097208D01*
X137776162Y-114136630D01*
X137862701Y-114182378D01*
X137959005Y-114232882D01*
X138062036Y-114286574D01*
X138168756Y-114341886D01*
X138276126Y-114397250D01*
X138381109Y-114451098D01*
X138480667Y-114501861D01*
X138571761Y-114547971D01*
X138651354Y-114587859D01*
X138716407Y-114619959D01*
X138763883Y-114642700D01*
X138790742Y-114654516D01*
X138795664Y-114655760D01*
X138798012Y-114639954D01*
X138800771Y-114600544D01*
X138999039Y-114600544D01*
X138999039Y-114687628D01*
X139648390Y-114480063D01*
X139778979Y-114438241D01*
X139901044Y-114398996D01*
X140011895Y-114363204D01*
X140108842Y-114331739D01*
X140189196Y-114305479D01*
X140250266Y-114285299D01*
X140289363Y-114272074D01*
X140303796Y-114266682D01*
X140305528Y-114251764D01*
X140308213Y-114211638D01*
X140311700Y-114149775D01*
X140315835Y-114069646D01*
X140320466Y-113974723D01*
X140325440Y-113868476D01*
X140330604Y-113754377D01*
X140335806Y-113635896D01*
X140340893Y-113516505D01*
X140345713Y-113399676D01*
X140350112Y-113288878D01*
X140353939Y-113187584D01*
X140357039Y-113099264D01*
X140359262Y-113027390D01*
X140360374Y-112980255D01*
X140360012Y-112927885D01*
X140357311Y-112888786D01*
X140352816Y-112869849D01*
X140351554Y-112869070D01*
X140336180Y-112873452D01*
X140296932Y-112885868D01*
X140237053Y-112905238D01*
X140159788Y-112930483D01*
X140068382Y-112960524D01*
X139966077Y-112994282D01*
X139856120Y-113030678D01*
X139741754Y-113068633D01*
X139626224Y-113107068D01*
X139512773Y-113144903D01*
X139404648Y-113181060D01*
X139305091Y-113214461D01*
X139217348Y-113244024D01*
X139144662Y-113268673D01*
X139090278Y-113287327D01*
X139057441Y-113298908D01*
X139048889Y-113302316D01*
X139047404Y-113317097D01*
X139045077Y-113357075D01*
X139042043Y-113418761D01*
X139038436Y-113498670D01*
X139034388Y-113593313D01*
X139030036Y-113699203D01*
X139025511Y-113812853D01*
X139020949Y-113930775D01*
X139016482Y-114049482D01*
X139012246Y-114165486D01*
X139008373Y-114275300D01*
X139004999Y-114375438D01*
X139002256Y-114462410D01*
X139001758Y-114480115D01*
X139000278Y-114532731D01*
X138999200Y-114582912D01*
X138999039Y-114600544D01*
X138800771Y-114600544D01*
X138800881Y-114598972D01*
X138804158Y-114536331D01*
X138807735Y-114455549D01*
X138811498Y-114360142D01*
X138815339Y-114253629D01*
X138819146Y-114139526D01*
X138822809Y-114021350D01*
X138826216Y-113902621D01*
X138829257Y-113786853D01*
X138831821Y-113677566D01*
X138833797Y-113578275D01*
X138835075Y-113492500D01*
X138835543Y-113423756D01*
X138835408Y-113393760D01*
X138834011Y-113265541D01*
X138231299Y-112947903D01*
X137628588Y-112630265D01*
X137625336Y-112681489D01*
X137621969Y-112742439D01*
X137618331Y-112822213D01*
X137614513Y-112917427D01*
X137610607Y-113024697D01*
X137606707Y-113140638D01*
X137602905Y-113261867D01*
X137599293Y-113384999D01*
X137595964Y-113506650D01*
X137593011Y-113623437D01*
X137590525Y-113731975D01*
X137588599Y-113828879D01*
X137587326Y-113910767D01*
X137586798Y-113974253D01*
X137484662Y-113974253D01*
X137484637Y-113943273D01*
X137485638Y-113868422D01*
X137487705Y-113773968D01*
X137490858Y-113657826D01*
X137495118Y-113517910D01*
X137500505Y-113352133D01*
X137502663Y-113287527D01*
X137508489Y-113121429D01*
X137514290Y-112970180D01*
X137519967Y-112835715D01*
X137525422Y-112719965D01*
X137530558Y-112624866D01*
X137535274Y-112552349D01*
X137538869Y-112511274D01*
X137751381Y-112511274D01*
X138368288Y-112819310D01*
X138492025Y-112880927D01*
X138608158Y-112938435D01*
X138714121Y-112990586D01*
X138807349Y-113036133D01*
X138885278Y-113073828D01*
X138945343Y-113102426D01*
X138984980Y-113120678D01*
X139001624Y-113127337D01*
X139001758Y-113127345D01*
X139018411Y-113123044D01*
X139059567Y-113110728D01*
X139122443Y-113091274D01*
X139204255Y-113065563D01*
X139302220Y-113034473D01*
X139413555Y-112998883D01*
X139535474Y-112959672D01*
X139648093Y-112923264D01*
X139796621Y-112875018D01*
X139919918Y-112834657D01*
X140020111Y-112801393D01*
X140099328Y-112774441D01*
X140159695Y-112753014D01*
X140203342Y-112736326D01*
X140232396Y-112723591D01*
X140248985Y-112714023D01*
X140255235Y-112706835D01*
X140253276Y-112701240D01*
X140251926Y-112700124D01*
X140232656Y-112688863D01*
X140191280Y-112666638D01*
X140131370Y-112635302D01*
X140056498Y-112596707D01*
X139970239Y-112552706D01*
X139876164Y-112505152D01*
X139867232Y-112500659D01*
X139758955Y-112446047D01*
X139645715Y-112388643D01*
X139534012Y-112331764D01*
X139430347Y-112278724D01*
X139341222Y-112232841D01*
X139290189Y-112206349D01*
X139071903Y-112092447D01*
X138529624Y-112264614D01*
X138404958Y-112304188D01*
X138284241Y-112342499D01*
X138171285Y-112378337D01*
X138069904Y-112410493D01*
X137983914Y-112437756D01*
X137917126Y-112458917D01*
X137873357Y-112472766D01*
X137869363Y-112474027D01*
X137751381Y-112511274D01*
X137538869Y-112511274D01*
X137539475Y-112504348D01*
X137543060Y-112482798D01*
X137543569Y-112481935D01*
X137559328Y-112475240D01*
X137599435Y-112460948D01*
X137660846Y-112440033D01*
X137740519Y-112413467D01*
X137835410Y-112382227D01*
X137942477Y-112347284D01*
X138058677Y-112309614D01*
X138180965Y-112270190D01*
X138306300Y-112229987D01*
X138431638Y-112189978D01*
X138553936Y-112151137D01*
X138670152Y-112114439D01*
X138777241Y-112080857D01*
X138872162Y-112051365D01*
X138951870Y-112026938D01*
X139013324Y-112008549D01*
X139053479Y-111997172D01*
X139068861Y-111993734D01*
X139078895Y-111996211D01*
G37*
G36*
X139769387Y-114620363D02*
G01*
X139819004Y-114650567D01*
X139836789Y-114662825D01*
X139879126Y-114691430D01*
X139912426Y-114711995D01*
X139929705Y-114720215D01*
X139929944Y-114720227D01*
X139946332Y-114710696D01*
X139971855Y-114687325D01*
X139975945Y-114683033D01*
X140018000Y-114643724D01*
X140051643Y-114627356D01*
X140082526Y-114631849D01*
X140095467Y-114639084D01*
X140111927Y-114657355D01*
X140138665Y-114695174D01*
X140172515Y-114747222D01*
X140210312Y-114808183D01*
X140248888Y-114872739D01*
X140285077Y-114935573D01*
X140315714Y-114991368D01*
X140337632Y-115034807D01*
X140347664Y-115060573D01*
X140347966Y-115063111D01*
X140338648Y-115083990D01*
X140318531Y-115108418D01*
X140288896Y-115127806D01*
X140264718Y-115130390D01*
X140242717Y-115125654D01*
X140197786Y-115117420D01*
X140135348Y-115106633D01*
X140060829Y-115094238D01*
X140011845Y-115086307D01*
X139933186Y-115072975D01*
X139863907Y-115059871D01*
X139809259Y-115048093D01*
X139774494Y-115038741D01*
X139765225Y-115034643D01*
X139749259Y-115010471D01*
X139737536Y-114976058D01*
X139734820Y-114946388D01*
X139744788Y-114920240D01*
X139771746Y-114887799D01*
X139780013Y-114879224D01*
X139832053Y-114825929D01*
X139753306Y-114771694D01*
X139698794Y-114729411D01*
X139669795Y-114693989D01*
X139664823Y-114662556D01*
X139681609Y-114633096D01*
X139706328Y-114612708D01*
X139733708Y-114608104D01*
X139769387Y-114620363D01*
G37*
G36*
X137761387Y-115147853D02*
G01*
X137782891Y-115176231D01*
X137800791Y-115202437D01*
X137845781Y-115256709D01*
X137906453Y-115311418D01*
X137973003Y-115358864D01*
X138035631Y-115391350D01*
X138046196Y-115395169D01*
X138083321Y-115411383D01*
X138091892Y-115426489D01*
X138071855Y-115441052D01*
X138040937Y-115451184D01*
X137956635Y-115486432D01*
X137877343Y-115542211D01*
X137813541Y-115610875D01*
X137804929Y-115623371D01*
X137778639Y-115661658D01*
X137758214Y-115687922D01*
X137749394Y-115695788D01*
X137737778Y-115684871D01*
X137716173Y-115656295D01*
X137694904Y-115624834D01*
X137623188Y-115535650D01*
X137538012Y-115465996D01*
X137457470Y-115425060D01*
X137417126Y-115408194D01*
X137390676Y-115393654D01*
X137384633Y-115387115D01*
X137397209Y-115377596D01*
X137429149Y-115365611D01*
X137450223Y-115359686D01*
X137540553Y-115325988D01*
X137622403Y-115275289D01*
X137686752Y-115213436D01*
X137697157Y-115199635D01*
X137723277Y-115164556D01*
X137742955Y-115141727D01*
X137749740Y-115136700D01*
X137761387Y-115147853D01*
G37*
G36*
X137485926Y-114344322D02*
G01*
X137506989Y-114373239D01*
X137514110Y-114385685D01*
X137565243Y-114459522D01*
X137638033Y-114534816D01*
X137726269Y-114606145D01*
X137823742Y-114668089D01*
X137858535Y-114686372D01*
X137914358Y-114715113D01*
X137959076Y-114740094D01*
X137987338Y-114758203D01*
X137994520Y-114765480D01*
X137982228Y-114776528D01*
X137955056Y-114785603D01*
X137823895Y-114826860D01*
X137710147Y-114890637D01*
X137612577Y-114977828D01*
X137529952Y-115089325D01*
X137525544Y-115096637D01*
X137500741Y-115134194D01*
X137479751Y-115158968D01*
X137470499Y-115164801D01*
X137455999Y-115153553D01*
X137432990Y-115124023D01*
X137410771Y-115089611D01*
X137322749Y-114967078D01*
X137218835Y-114865799D01*
X137101631Y-114787969D01*
X137002084Y-114744756D01*
X136958847Y-114727642D01*
X136930048Y-114711677D01*
X136922151Y-114701343D01*
X136937444Y-114690633D01*
X136973086Y-114676165D01*
X137021539Y-114660972D01*
X137024370Y-114660191D01*
X137158371Y-114611615D01*
X137270740Y-114544895D01*
X137362751Y-114459181D01*
X137401965Y-114408292D01*
X137431224Y-114369167D01*
X137456051Y-114341874D01*
X137469856Y-114332769D01*
X137485926Y-114344322D01*
G37*
G36*
X137461213Y-111483483D02*
G01*
X137498806Y-111530185D01*
X137554061Y-111578496D01*
X137617452Y-111620828D01*
X137660876Y-111642549D01*
X137691731Y-111656661D01*
X137707122Y-111665938D01*
X137707514Y-111666691D01*
X137695263Y-111673594D01*
X137663838Y-111686402D01*
X137637192Y-111696206D01*
X137563596Y-111732665D01*
X137497106Y-111789081D01*
X137451498Y-111842995D01*
X137427841Y-111868141D01*
X137413162Y-111871491D01*
X137411546Y-111869038D01*
X137371516Y-111803178D01*
X137311482Y-111740046D01*
X137239756Y-111687050D01*
X137169378Y-111653193D01*
X137143140Y-111640947D01*
X137145094Y-111632069D01*
X137147853Y-111630993D01*
X137219019Y-111605855D01*
X137269927Y-111584154D01*
X137307976Y-111561655D01*
X137340563Y-111534125D01*
X137368474Y-111504744D01*
X137432041Y-111434041D01*
X137461213Y-111483483D01*
G37*
D13*
%TO.C,J1*%
X57940000Y-122000000D02*
X57940000Y-63940000D01*
X57940000Y-124060000D02*
X57940000Y-123000000D01*
X59000000Y-124060000D02*
X57940000Y-124060000D01*
X60000000Y-122000000D02*
X57940000Y-122000000D01*
X60000000Y-124060000D02*
X60000000Y-122000000D01*
X62060000Y-63940000D02*
X57940000Y-63940000D01*
X62060000Y-124060000D02*
X60000000Y-124060000D01*
X62060000Y-124060000D02*
X62060000Y-63940000D01*
%TO.C,J2*%
X53940000Y-122000000D02*
X53940000Y-63940000D01*
X53940000Y-124060000D02*
X53940000Y-123000000D01*
X55000000Y-124060000D02*
X53940000Y-124060000D01*
X56000000Y-122000000D02*
X53940000Y-122000000D01*
X56000000Y-124060000D02*
X56000000Y-122000000D01*
X58060000Y-63940000D02*
X53940000Y-63940000D01*
X58060000Y-124060000D02*
X56000000Y-124060000D01*
X58060000Y-124060000D02*
X58060000Y-63940000D01*
%TD*%
M02*
