M48
; DRILL file {KiCad 9.0.0-rc3} date 2025-06-15T12:53:15-0500
; FORMAT={-:-/ absolute / metric / decimal}
; #@! TF.CreationDate,2025-06-15T12:53:15-05:00
; #@! TF.GenerationSoftware,Kicad,Pcbnew,9.0.0-rc3
; #@! TF.FileFunction,MixedPlating,1,2
FMAT,2
METRIC
; #@! TA.AperFunction,Plated,PTH,ComponentDrill
T1C0.800
; #@! TA.AperFunction,Plated,PTH,ComponentDrill
T2C0.890
; #@! TA.AperFunction,Plated,PTH,ComponentDrill
T3C3.200
; #@! TA.AperFunction,NonPlated,NPTH,ComponentDrill
T4C2.000
%
G90
G05
T1
X55.0Y-65.0
X55.0Y-67.0
X55.0Y-69.0
X55.0Y-71.0
X55.0Y-73.0
X55.0Y-75.0
X55.0Y-77.0
X55.0Y-79.0
X55.0Y-81.0
X55.0Y-83.0
X55.0Y-85.0
X55.0Y-87.0
X55.0Y-89.0
X55.0Y-91.0
X55.0Y-93.0
X55.0Y-95.0
X55.0Y-97.0
X55.0Y-99.0
X55.0Y-101.0
X55.0Y-103.0
X55.0Y-105.0
X55.0Y-107.0
X55.0Y-109.0
X55.0Y-111.0
X55.0Y-113.0
X55.0Y-115.0
X55.0Y-117.0
X55.0Y-119.0
X55.0Y-121.0
X55.0Y-123.0
X57.0Y-65.0
X57.0Y-67.0
X57.0Y-69.0
X57.0Y-71.0
X57.0Y-73.0
X57.0Y-75.0
X57.0Y-77.0
X57.0Y-79.0
X57.0Y-81.0
X57.0Y-83.0
X57.0Y-85.0
X57.0Y-87.0
X57.0Y-89.0
X57.0Y-91.0
X57.0Y-93.0
X57.0Y-95.0
X57.0Y-97.0
X57.0Y-99.0
X57.0Y-101.0
X57.0Y-103.0
X57.0Y-105.0
X57.0Y-107.0
X57.0Y-109.0
X57.0Y-111.0
X57.0Y-113.0
X57.0Y-115.0
X57.0Y-117.0
X57.0Y-119.0
X57.0Y-121.0
X57.0Y-123.0
X59.0Y-65.0
X59.0Y-67.0
X59.0Y-69.0
X59.0Y-71.0
X59.0Y-73.0
X59.0Y-75.0
X59.0Y-77.0
X59.0Y-79.0
X59.0Y-81.0
X59.0Y-83.0
X59.0Y-85.0
X59.0Y-87.0
X59.0Y-89.0
X59.0Y-91.0
X59.0Y-93.0
X59.0Y-95.0
X59.0Y-97.0
X59.0Y-99.0
X59.0Y-101.0
X59.0Y-103.0
X59.0Y-105.0
X59.0Y-107.0
X59.0Y-109.0
X59.0Y-111.0
X59.0Y-113.0
X59.0Y-115.0
X59.0Y-117.0
X59.0Y-119.0
X59.0Y-121.0
X59.0Y-123.0
X61.0Y-65.0
X61.0Y-67.0
X61.0Y-69.0
X61.0Y-71.0
X61.0Y-73.0
X61.0Y-75.0
X61.0Y-77.0
X61.0Y-79.0
X61.0Y-81.0
X61.0Y-83.0
X61.0Y-85.0
X61.0Y-87.0
X61.0Y-89.0
X61.0Y-91.0
X61.0Y-93.0
X61.0Y-95.0
X61.0Y-97.0
X61.0Y-99.0
X61.0Y-101.0
X61.0Y-103.0
X61.0Y-105.0
X61.0Y-107.0
X61.0Y-109.0
X61.0Y-111.0
X61.0Y-113.0
X61.0Y-115.0
X61.0Y-117.0
X61.0Y-119.0
X61.0Y-121.0
X61.0Y-123.0
T2
X66.03Y-60.91
X66.03Y-76.157
X66.03Y-86.31
X66.03Y-101.557
X66.03Y-111.71
X66.03Y-126.957
X66.04Y-53.34
X66.04Y-55.88
X66.04Y-63.5
X66.04Y-66.04
X66.04Y-68.58
X66.04Y-71.12
X66.04Y-73.66
X66.04Y-78.74
X66.04Y-81.28
X66.04Y-83.82
X66.04Y-88.9
X66.04Y-91.44
X66.04Y-93.98
X66.04Y-96.52
X66.04Y-99.06
X66.04Y-104.14
X66.04Y-106.68
X66.04Y-109.22
X66.04Y-114.3
X66.04Y-116.84
X66.04Y-119.38
X66.04Y-121.92
X66.04Y-124.46
X66.04Y-129.54
X66.04Y-132.08
X66.04Y-134.62
X66.05Y-58.47
X68.57Y-60.91
X68.57Y-76.157
X68.57Y-86.31
X68.57Y-101.557
X68.57Y-111.71
X68.57Y-126.957
X68.58Y-53.34
X68.58Y-55.88
X68.58Y-63.5
X68.58Y-66.04
X68.58Y-68.58
X68.58Y-71.12
X68.58Y-73.66
X68.58Y-78.74
X68.58Y-81.28
X68.58Y-83.82
X68.58Y-88.9
X68.58Y-91.44
X68.58Y-93.98
X68.58Y-96.52
X68.58Y-99.06
X68.58Y-104.14
X68.58Y-106.68
X68.58Y-109.22
X68.58Y-114.3
X68.58Y-116.84
X68.58Y-119.38
X68.58Y-121.92
X68.58Y-124.46
X68.58Y-129.54
X68.58Y-132.08
X68.58Y-134.62
X68.59Y-58.47
X71.11Y-60.91
X71.11Y-76.157
X71.11Y-86.31
X71.11Y-101.557
X71.11Y-111.71
X71.11Y-126.957
X71.12Y-53.34
X71.12Y-55.88
X71.12Y-63.5
X71.12Y-66.04
X71.12Y-68.58
X71.12Y-71.12
X71.12Y-73.66
X71.12Y-78.74
X71.12Y-81.28
X71.12Y-83.82
X71.12Y-88.9
X71.12Y-91.44
X71.12Y-93.98
X71.12Y-96.52
X71.12Y-99.06
X71.12Y-104.14
X71.12Y-106.68
X71.12Y-109.22
X71.12Y-114.3
X71.12Y-116.84
X71.12Y-119.38
X71.12Y-121.92
X71.12Y-124.46
X71.12Y-129.54
X71.12Y-132.08
X71.12Y-134.62
X71.13Y-58.47
X73.65Y-60.91
X73.65Y-76.157
X73.65Y-86.31
X73.65Y-101.557
X73.65Y-111.71
X73.65Y-126.957
X73.66Y-53.34
X73.66Y-55.88
X73.66Y-63.5
X73.66Y-66.04
X73.66Y-68.58
X73.66Y-71.12
X73.66Y-73.66
X73.66Y-78.74
X73.66Y-81.28
X73.66Y-83.82
X73.66Y-88.9
X73.66Y-91.44
X73.66Y-93.98
X73.66Y-96.52
X73.66Y-99.06
X73.66Y-104.14
X73.66Y-106.68
X73.66Y-109.22
X73.66Y-114.3
X73.66Y-116.84
X73.66Y-119.38
X73.66Y-121.92
X73.66Y-124.46
X73.66Y-129.54
X73.66Y-132.08
X73.66Y-134.62
X73.67Y-58.47
X76.19Y-60.91
X76.19Y-76.157
X76.19Y-86.31
X76.19Y-101.557
X76.19Y-111.71
X76.19Y-126.957
X76.2Y-53.34
X76.2Y-55.88
X76.2Y-63.5
X76.2Y-66.04
X76.2Y-68.58
X76.2Y-71.12
X76.2Y-73.66
X76.2Y-78.74
X76.2Y-81.28
X76.2Y-83.82
X76.2Y-88.9
X76.2Y-91.44
X76.2Y-93.98
X76.2Y-96.52
X76.2Y-99.06
X76.2Y-104.14
X76.2Y-106.68
X76.2Y-109.22
X76.2Y-114.3
X76.2Y-116.84
X76.2Y-119.38
X76.2Y-121.92
X76.2Y-124.46
X76.2Y-129.54
X76.2Y-132.08
X76.2Y-134.62
X76.21Y-58.47
X78.73Y-60.91
X78.73Y-76.157
X78.73Y-86.31
X78.73Y-101.557
X78.73Y-111.71
X78.73Y-126.957
X78.74Y-53.34
X78.74Y-55.88
X78.74Y-63.5
X78.74Y-66.04
X78.74Y-68.58
X78.74Y-71.12
X78.74Y-73.66
X78.74Y-78.74
X78.74Y-81.28
X78.74Y-83.82
X78.74Y-88.9
X78.74Y-91.44
X78.74Y-93.98
X78.74Y-96.52
X78.74Y-99.06
X78.74Y-104.14
X78.74Y-106.68
X78.74Y-109.22
X78.74Y-114.3
X78.74Y-116.84
X78.74Y-119.38
X78.74Y-121.92
X78.74Y-124.46
X78.74Y-129.54
X78.74Y-132.08
X78.74Y-134.62
X78.75Y-58.47
X81.27Y-60.91
X81.27Y-76.157
X81.27Y-86.31
X81.27Y-101.557
X81.27Y-111.71
X81.27Y-126.957
X81.28Y-53.34
X81.28Y-55.88
X81.28Y-63.5
X81.28Y-66.04
X81.28Y-68.58
X81.28Y-71.12
X81.28Y-73.66
X81.28Y-78.74
X81.28Y-81.28
X81.28Y-83.82
X81.28Y-88.9
X81.28Y-91.44
X81.28Y-93.98
X81.28Y-96.52
X81.28Y-99.06
X81.28Y-104.14
X81.28Y-106.68
X81.28Y-109.22
X81.28Y-114.3
X81.28Y-116.84
X81.28Y-119.38
X81.28Y-121.92
X81.28Y-124.46
X81.28Y-129.54
X81.28Y-132.08
X81.28Y-134.62
X81.29Y-58.47
X83.81Y-60.91
X83.81Y-76.157
X83.81Y-86.31
X83.81Y-101.557
X83.81Y-111.71
X83.81Y-126.957
X83.82Y-53.34
X83.82Y-55.88
X83.82Y-63.5
X83.82Y-66.04
X83.82Y-68.58
X83.82Y-71.12
X83.82Y-73.66
X83.82Y-78.74
X83.82Y-81.28
X83.82Y-83.82
X83.82Y-88.9
X83.82Y-91.44
X83.82Y-93.98
X83.82Y-96.52
X83.82Y-99.06
X83.82Y-104.14
X83.82Y-106.68
X83.82Y-109.22
X83.82Y-114.3
X83.82Y-116.84
X83.82Y-119.38
X83.82Y-121.92
X83.82Y-124.46
X83.82Y-129.54
X83.82Y-132.08
X83.82Y-134.62
X83.83Y-58.47
X86.35Y-60.91
X86.35Y-76.157
X86.35Y-86.31
X86.35Y-101.557
X86.35Y-111.71
X86.35Y-126.957
X86.36Y-53.34
X86.36Y-55.88
X86.36Y-63.5
X86.36Y-66.04
X86.36Y-68.58
X86.36Y-71.12
X86.36Y-73.66
X86.36Y-78.74
X86.36Y-81.28
X86.36Y-83.82
X86.36Y-88.9
X86.36Y-91.44
X86.36Y-93.98
X86.36Y-96.52
X86.36Y-99.06
X86.36Y-104.14
X86.36Y-106.68
X86.36Y-109.22
X86.36Y-114.3
X86.36Y-116.84
X86.36Y-119.38
X86.36Y-121.92
X86.36Y-124.46
X86.36Y-129.54
X86.36Y-132.08
X86.36Y-134.62
X86.37Y-58.47
X88.89Y-60.91
X88.89Y-76.157
X88.89Y-86.31
X88.89Y-101.557
X88.89Y-111.71
X88.89Y-126.957
X88.9Y-53.34
X88.9Y-55.88
X88.9Y-63.5
X88.9Y-66.04
X88.9Y-68.58
X88.9Y-71.12
X88.9Y-73.66
X88.9Y-78.74
X88.9Y-81.28
X88.9Y-83.82
X88.9Y-88.9
X88.9Y-91.44
X88.9Y-93.98
X88.9Y-96.52
X88.9Y-99.06
X88.9Y-104.14
X88.9Y-106.68
X88.9Y-109.22
X88.9Y-114.3
X88.9Y-116.84
X88.9Y-119.38
X88.9Y-121.92
X88.9Y-124.46
X88.9Y-129.54
X88.9Y-132.08
X88.9Y-134.62
X88.91Y-58.47
X91.43Y-60.91
X91.43Y-76.157
X91.43Y-86.31
X91.43Y-101.557
X91.43Y-111.71
X91.43Y-126.957
X91.44Y-53.34
X91.44Y-55.88
X91.44Y-63.5
X91.44Y-66.04
X91.44Y-68.58
X91.44Y-71.12
X91.44Y-73.66
X91.44Y-78.74
X91.44Y-81.28
X91.44Y-83.82
X91.44Y-88.9
X91.44Y-91.44
X91.44Y-93.98
X91.44Y-96.52
X91.44Y-99.06
X91.44Y-104.14
X91.44Y-106.68
X91.44Y-109.22
X91.44Y-114.3
X91.44Y-116.84
X91.44Y-119.38
X91.44Y-121.92
X91.44Y-124.46
X91.44Y-129.54
X91.44Y-132.08
X91.44Y-134.62
X91.45Y-58.47
X93.97Y-60.91
X93.97Y-76.157
X93.97Y-86.31
X93.97Y-101.557
X93.97Y-111.71
X93.97Y-126.957
X93.98Y-53.34
X93.98Y-55.88
X93.98Y-63.5
X93.98Y-66.04
X93.98Y-68.58
X93.98Y-71.12
X93.98Y-73.66
X93.98Y-78.74
X93.98Y-81.28
X93.98Y-83.82
X93.98Y-88.9
X93.98Y-91.44
X93.98Y-93.98
X93.98Y-96.52
X93.98Y-99.06
X93.98Y-104.14
X93.98Y-106.68
X93.98Y-109.22
X93.98Y-114.3
X93.98Y-116.84
X93.98Y-119.38
X93.98Y-121.92
X93.98Y-124.46
X93.98Y-129.54
X93.98Y-132.08
X93.98Y-134.62
X93.99Y-58.47
X96.51Y-60.91
X96.51Y-76.157
X96.51Y-86.31
X96.51Y-101.557
X96.51Y-111.71
X96.51Y-126.957
X96.52Y-53.34
X96.52Y-55.88
X96.52Y-63.5
X96.52Y-66.04
X96.52Y-68.58
X96.52Y-71.12
X96.52Y-73.66
X96.52Y-78.74
X96.52Y-81.28
X96.52Y-83.82
X96.52Y-88.9
X96.52Y-91.44
X96.52Y-93.98
X96.52Y-96.52
X96.52Y-99.06
X96.52Y-104.14
X96.52Y-106.68
X96.52Y-109.22
X96.52Y-114.3
X96.52Y-116.84
X96.52Y-119.38
X96.52Y-121.92
X96.52Y-124.46
X96.52Y-129.54
X96.52Y-132.08
X96.52Y-134.62
X96.53Y-58.47
X99.05Y-60.91
X99.05Y-76.157
X99.05Y-86.31
X99.05Y-101.557
X99.05Y-111.71
X99.05Y-126.957
X99.06Y-53.34
X99.06Y-55.88
X99.06Y-63.5
X99.06Y-66.04
X99.06Y-68.58
X99.06Y-71.12
X99.06Y-73.66
X99.06Y-78.74
X99.06Y-81.28
X99.06Y-83.82
X99.06Y-88.9
X99.06Y-91.44
X99.06Y-93.98
X99.06Y-96.52
X99.06Y-99.06
X99.06Y-104.14
X99.06Y-106.68
X99.06Y-109.22
X99.06Y-114.3
X99.06Y-116.84
X99.06Y-119.38
X99.06Y-121.92
X99.06Y-124.46
X99.06Y-129.54
X99.06Y-132.08
X99.06Y-134.62
X99.07Y-58.47
X101.59Y-60.91
X101.59Y-76.157
X101.59Y-86.31
X101.59Y-101.557
X101.59Y-111.71
X101.59Y-126.957
X101.6Y-53.34
X101.6Y-55.88
X101.6Y-63.5
X101.6Y-66.04
X101.6Y-68.58
X101.6Y-71.12
X101.6Y-73.66
X101.6Y-78.74
X101.6Y-81.28
X101.6Y-83.82
X101.6Y-88.9
X101.6Y-91.44
X101.6Y-93.98
X101.6Y-96.52
X101.6Y-99.06
X101.6Y-104.14
X101.6Y-106.68
X101.6Y-109.22
X101.6Y-114.3
X101.6Y-116.84
X101.6Y-119.38
X101.6Y-121.92
X101.6Y-124.46
X101.6Y-129.54
X101.6Y-132.08
X101.6Y-134.62
X101.61Y-58.47
X104.13Y-60.91
X104.13Y-76.157
X104.13Y-86.31
X104.13Y-101.557
X104.13Y-111.71
X104.13Y-126.957
X104.14Y-53.34
X104.14Y-55.88
X104.14Y-63.5
X104.14Y-66.04
X104.14Y-68.58
X104.14Y-71.12
X104.14Y-73.66
X104.14Y-78.74
X104.14Y-81.28
X104.14Y-83.82
X104.14Y-88.9
X104.14Y-91.44
X104.14Y-93.98
X104.14Y-96.52
X104.14Y-99.06
X104.14Y-104.14
X104.14Y-106.68
X104.14Y-109.22
X104.14Y-114.3
X104.14Y-116.84
X104.14Y-119.38
X104.14Y-121.92
X104.14Y-124.46
X104.14Y-129.54
X104.14Y-132.08
X104.14Y-134.62
X104.15Y-58.47
X106.67Y-60.91
X106.67Y-76.157
X106.67Y-86.31
X106.67Y-101.557
X106.67Y-111.71
X106.67Y-126.957
X106.68Y-53.34
X106.68Y-55.88
X106.68Y-63.5
X106.68Y-66.04
X106.68Y-68.58
X106.68Y-71.12
X106.68Y-73.66
X106.68Y-78.74
X106.68Y-81.28
X106.68Y-83.82
X106.68Y-88.9
X106.68Y-91.44
X106.68Y-93.98
X106.68Y-96.52
X106.68Y-99.06
X106.68Y-104.14
X106.68Y-106.68
X106.68Y-109.22
X106.68Y-114.3
X106.68Y-116.84
X106.68Y-119.38
X106.68Y-121.92
X106.68Y-124.46
X106.68Y-129.54
X106.68Y-132.08
X106.68Y-134.62
X106.69Y-58.47
X109.21Y-60.91
X109.21Y-76.157
X109.21Y-86.31
X109.21Y-101.557
X109.21Y-111.71
X109.21Y-126.957
X109.22Y-53.34
X109.22Y-55.88
X109.22Y-63.5
X109.22Y-66.04
X109.22Y-68.58
X109.22Y-71.12
X109.22Y-73.66
X109.22Y-78.74
X109.22Y-81.28
X109.22Y-83.82
X109.22Y-88.9
X109.22Y-91.44
X109.22Y-93.98
X109.22Y-96.52
X109.22Y-99.06
X109.22Y-104.14
X109.22Y-106.68
X109.22Y-109.22
X109.22Y-114.3
X109.22Y-116.84
X109.22Y-119.38
X109.22Y-121.92
X109.22Y-124.46
X109.22Y-129.54
X109.22Y-132.08
X109.22Y-134.62
X109.23Y-58.47
X111.75Y-60.91
X111.75Y-76.157
X111.75Y-86.31
X111.75Y-101.557
X111.75Y-111.71
X111.75Y-126.957
X111.76Y-53.34
X111.76Y-55.88
X111.76Y-63.5
X111.76Y-66.04
X111.76Y-68.58
X111.76Y-71.12
X111.76Y-73.66
X111.76Y-78.74
X111.76Y-81.28
X111.76Y-83.82
X111.76Y-88.9
X111.76Y-91.44
X111.76Y-93.98
X111.76Y-96.52
X111.76Y-99.06
X111.76Y-104.14
X111.76Y-106.68
X111.76Y-109.22
X111.76Y-114.3
X111.76Y-116.84
X111.76Y-119.38
X111.76Y-121.92
X111.76Y-124.46
X111.76Y-129.54
X111.76Y-132.08
X111.76Y-134.62
X111.77Y-58.47
X114.29Y-60.91
X114.29Y-76.157
X114.29Y-86.31
X114.29Y-101.557
X114.29Y-111.71
X114.29Y-126.957
X114.3Y-53.34
X114.3Y-55.88
X114.3Y-63.5
X114.3Y-66.04
X114.3Y-68.58
X114.3Y-71.12
X114.3Y-73.66
X114.3Y-78.74
X114.3Y-81.28
X114.3Y-83.82
X114.3Y-88.9
X114.3Y-91.44
X114.3Y-93.98
X114.3Y-96.52
X114.3Y-99.06
X114.3Y-104.14
X114.3Y-106.68
X114.3Y-109.22
X114.3Y-114.3
X114.3Y-116.84
X114.3Y-119.38
X114.3Y-121.92
X114.3Y-124.46
X114.3Y-129.54
X114.3Y-132.08
X114.3Y-134.62
X114.31Y-58.47
X116.83Y-60.91
X116.83Y-76.157
X116.83Y-86.31
X116.83Y-101.557
X116.83Y-111.71
X116.83Y-126.957
X116.84Y-53.34
X116.84Y-55.88
X116.84Y-63.5
X116.84Y-66.04
X116.84Y-68.58
X116.84Y-71.12
X116.84Y-73.66
X116.84Y-78.74
X116.84Y-81.28
X116.84Y-83.82
X116.84Y-88.9
X116.84Y-91.44
X116.84Y-93.98
X116.84Y-96.52
X116.84Y-99.06
X116.84Y-104.14
X116.84Y-106.68
X116.84Y-109.22
X116.84Y-114.3
X116.84Y-116.84
X116.84Y-119.38
X116.84Y-121.92
X116.84Y-124.46
X116.84Y-129.54
X116.84Y-132.08
X116.84Y-134.62
X116.85Y-58.47
X119.37Y-60.91
X119.37Y-76.157
X119.37Y-86.31
X119.37Y-101.557
X119.37Y-111.71
X119.37Y-126.957
X119.38Y-53.34
X119.38Y-55.88
X119.38Y-63.5
X119.38Y-66.04
X119.38Y-68.58
X119.38Y-71.12
X119.38Y-73.66
X119.38Y-78.74
X119.38Y-81.28
X119.38Y-83.82
X119.38Y-88.9
X119.38Y-91.44
X119.38Y-93.98
X119.38Y-96.52
X119.38Y-99.06
X119.38Y-104.14
X119.38Y-106.68
X119.38Y-109.22
X119.38Y-114.3
X119.38Y-116.84
X119.38Y-119.38
X119.38Y-121.92
X119.38Y-124.46
X119.38Y-129.54
X119.38Y-132.08
X119.38Y-134.62
X119.39Y-58.47
X121.91Y-60.91
X121.91Y-76.157
X121.91Y-86.31
X121.91Y-101.557
X121.91Y-111.71
X121.91Y-126.957
X121.92Y-53.34
X121.92Y-55.88
X121.92Y-63.5
X121.92Y-66.04
X121.92Y-68.58
X121.92Y-71.12
X121.92Y-73.66
X121.92Y-78.74
X121.92Y-81.28
X121.92Y-83.82
X121.92Y-88.9
X121.92Y-91.44
X121.92Y-93.98
X121.92Y-96.52
X121.92Y-99.06
X121.92Y-104.14
X121.92Y-106.68
X121.92Y-109.22
X121.92Y-114.3
X121.92Y-116.84
X121.92Y-119.38
X121.92Y-121.92
X121.92Y-124.46
X121.92Y-129.54
X121.92Y-132.08
X121.92Y-134.62
X121.93Y-58.47
X124.45Y-60.91
X124.45Y-76.157
X124.45Y-86.31
X124.45Y-101.557
X124.45Y-111.71
X124.45Y-126.957
X124.46Y-53.34
X124.46Y-55.88
X124.46Y-63.5
X124.46Y-66.04
X124.46Y-68.58
X124.46Y-71.12
X124.46Y-73.66
X124.46Y-78.74
X124.46Y-81.28
X124.46Y-83.82
X124.46Y-88.9
X124.46Y-91.44
X124.46Y-93.98
X124.46Y-96.52
X124.46Y-99.06
X124.46Y-104.14
X124.46Y-106.68
X124.46Y-109.22
X124.46Y-114.3
X124.46Y-116.84
X124.46Y-119.38
X124.46Y-121.92
X124.46Y-124.46
X124.46Y-129.54
X124.46Y-132.08
X124.46Y-134.62
X124.47Y-58.47
X126.99Y-60.91
X126.99Y-76.157
X126.99Y-86.31
X126.99Y-101.557
X126.99Y-111.71
X126.99Y-126.957
X127.0Y-53.34
X127.0Y-55.88
X127.0Y-63.5
X127.0Y-66.04
X127.0Y-68.58
X127.0Y-71.12
X127.0Y-73.66
X127.0Y-78.74
X127.0Y-81.28
X127.0Y-83.82
X127.0Y-88.9
X127.0Y-91.44
X127.0Y-93.98
X127.0Y-96.52
X127.0Y-99.06
X127.0Y-104.14
X127.0Y-106.68
X127.0Y-109.22
X127.0Y-114.3
X127.0Y-116.84
X127.0Y-119.38
X127.0Y-121.92
X127.0Y-124.46
X127.0Y-129.54
X127.0Y-132.08
X127.0Y-134.62
X127.01Y-58.47
X129.53Y-60.91
X129.53Y-76.157
X129.53Y-86.31
X129.53Y-101.557
X129.53Y-111.71
X129.53Y-126.957
X129.54Y-53.34
X129.54Y-55.88
X129.54Y-63.5
X129.54Y-66.04
X129.54Y-68.58
X129.54Y-71.12
X129.54Y-73.66
X129.54Y-78.74
X129.54Y-81.28
X129.54Y-83.82
X129.54Y-88.9
X129.54Y-91.44
X129.54Y-93.98
X129.54Y-96.52
X129.54Y-99.06
X129.54Y-104.14
X129.54Y-106.68
X129.54Y-109.22
X129.54Y-114.3
X129.54Y-116.84
X129.54Y-119.38
X129.54Y-121.92
X129.54Y-124.46
X129.54Y-129.54
X129.54Y-132.08
X129.54Y-134.62
X129.55Y-58.47
X132.07Y-60.91
X132.07Y-76.157
X132.07Y-86.31
X132.07Y-101.557
X132.07Y-111.71
X132.07Y-126.957
X132.08Y-53.34
X132.08Y-55.88
X132.08Y-63.5
X132.08Y-66.04
X132.08Y-68.58
X132.08Y-71.12
X132.08Y-73.66
X132.08Y-78.74
X132.08Y-81.28
X132.08Y-83.82
X132.08Y-88.9
X132.08Y-91.44
X132.08Y-93.98
X132.08Y-96.52
X132.08Y-99.06
X132.08Y-104.14
X132.08Y-106.68
X132.08Y-109.22
X132.08Y-114.3
X132.08Y-116.84
X132.08Y-119.38
X132.08Y-121.92
X132.08Y-124.46
X132.08Y-129.54
X132.08Y-132.08
X132.08Y-134.62
X132.09Y-58.47
X134.61Y-60.91
X134.61Y-76.157
X134.61Y-86.31
X134.61Y-101.557
X134.61Y-111.71
X134.61Y-126.957
X134.62Y-53.34
X134.62Y-55.88
X134.62Y-63.5
X134.62Y-66.04
X134.62Y-68.58
X134.62Y-71.12
X134.62Y-73.66
X134.62Y-78.74
X134.62Y-81.28
X134.62Y-83.82
X134.62Y-88.9
X134.62Y-91.44
X134.62Y-93.98
X134.62Y-96.52
X134.62Y-99.06
X134.62Y-104.14
X134.62Y-106.68
X134.62Y-109.22
X134.62Y-114.3
X134.62Y-116.84
X134.62Y-119.38
X134.62Y-121.92
X134.62Y-124.46
X134.62Y-129.54
X134.62Y-132.08
X134.62Y-134.62
X134.63Y-58.47
T3
X55.0Y-56.96
X55.0Y-130.62
X140.725Y-54.42
X140.725Y-134.43
T4
X54.065Y-62.325
X54.065Y-125.675
X61.935Y-62.325
X61.935Y-125.675
M30
