%TF.GenerationSoftware,KiCad,Pcbnew,9.0.0-rc3*%
%TF.CreationDate,2025-06-15T12:53:26-05:00*%
%TF.ProjectId,PCI-104-Template,5043492d-3130-4342-9d54-656d706c6174,A*%
%TF.SameCoordinates,Original*%
%TF.FileFunction,Legend,Bot*%
%TF.FilePolarity,Positive*%
%FSLAX46Y46*%
G04 Gerber Fmt 4.6, Leading zero omitted, Abs format (unit mm)*
G04 Created by KiCad (PCBNEW 9.0.0-rc3) date 2025-06-15 12:53:26*
%MOMM*%
%LPD*%
G01*
G04 APERTURE LIST*
%ADD10C,0.100000*%
G04 APERTURE END LIST*
D10*
X138947348Y-69455312D02*
X138994968Y-69407693D01*
X138994968Y-69407693D02*
X139042587Y-69264836D01*
X139042587Y-69264836D02*
X139042587Y-69169598D01*
X139042587Y-69169598D02*
X138994968Y-69026741D01*
X138994968Y-69026741D02*
X138899729Y-68931503D01*
X138899729Y-68931503D02*
X138804491Y-68883884D01*
X138804491Y-68883884D02*
X138614015Y-68836265D01*
X138614015Y-68836265D02*
X138471158Y-68836265D01*
X138471158Y-68836265D02*
X138280682Y-68883884D01*
X138280682Y-68883884D02*
X138185444Y-68931503D01*
X138185444Y-68931503D02*
X138090206Y-69026741D01*
X138090206Y-69026741D02*
X138042587Y-69169598D01*
X138042587Y-69169598D02*
X138042587Y-69264836D01*
X138042587Y-69264836D02*
X138090206Y-69407693D01*
X138090206Y-69407693D02*
X138137825Y-69455312D01*
X138375920Y-70312455D02*
X139042587Y-70312455D01*
X138375920Y-69883884D02*
X138899729Y-69883884D01*
X138899729Y-69883884D02*
X138994968Y-69931503D01*
X138994968Y-69931503D02*
X139042587Y-70026741D01*
X139042587Y-70026741D02*
X139042587Y-70169598D01*
X139042587Y-70169598D02*
X138994968Y-70264836D01*
X138994968Y-70264836D02*
X138947348Y-70312455D01*
X139042587Y-70788646D02*
X138042587Y-70788646D01*
X138423539Y-70788646D02*
X138375920Y-70883884D01*
X138375920Y-70883884D02*
X138375920Y-71074360D01*
X138375920Y-71074360D02*
X138423539Y-71169598D01*
X138423539Y-71169598D02*
X138471158Y-71217217D01*
X138471158Y-71217217D02*
X138566396Y-71264836D01*
X138566396Y-71264836D02*
X138852110Y-71264836D01*
X138852110Y-71264836D02*
X138947348Y-71217217D01*
X138947348Y-71217217D02*
X138994968Y-71169598D01*
X138994968Y-71169598D02*
X139042587Y-71074360D01*
X139042587Y-71074360D02*
X139042587Y-70883884D01*
X139042587Y-70883884D02*
X138994968Y-70788646D01*
X138994968Y-72074360D02*
X139042587Y-71979122D01*
X139042587Y-71979122D02*
X139042587Y-71788646D01*
X139042587Y-71788646D02*
X138994968Y-71693408D01*
X138994968Y-71693408D02*
X138899729Y-71645789D01*
X138899729Y-71645789D02*
X138518777Y-71645789D01*
X138518777Y-71645789D02*
X138423539Y-71693408D01*
X138423539Y-71693408D02*
X138375920Y-71788646D01*
X138375920Y-71788646D02*
X138375920Y-71979122D01*
X138375920Y-71979122D02*
X138423539Y-72074360D01*
X138423539Y-72074360D02*
X138518777Y-72121979D01*
X138518777Y-72121979D02*
X138614015Y-72121979D01*
X138614015Y-72121979D02*
X138709253Y-71645789D01*
X138994968Y-72502932D02*
X139042587Y-72598170D01*
X139042587Y-72598170D02*
X139042587Y-72788646D01*
X139042587Y-72788646D02*
X138994968Y-72883884D01*
X138994968Y-72883884D02*
X138899729Y-72931503D01*
X138899729Y-72931503D02*
X138852110Y-72931503D01*
X138852110Y-72931503D02*
X138756872Y-72883884D01*
X138756872Y-72883884D02*
X138709253Y-72788646D01*
X138709253Y-72788646D02*
X138709253Y-72645789D01*
X138709253Y-72645789D02*
X138661634Y-72550551D01*
X138661634Y-72550551D02*
X138566396Y-72502932D01*
X138566396Y-72502932D02*
X138518777Y-72502932D01*
X138518777Y-72502932D02*
X138423539Y-72550551D01*
X138423539Y-72550551D02*
X138375920Y-72645789D01*
X138375920Y-72645789D02*
X138375920Y-72788646D01*
X138375920Y-72788646D02*
X138423539Y-72883884D01*
X139042587Y-73788646D02*
X138518777Y-73788646D01*
X138518777Y-73788646D02*
X138423539Y-73741027D01*
X138423539Y-73741027D02*
X138375920Y-73645789D01*
X138375920Y-73645789D02*
X138375920Y-73455313D01*
X138375920Y-73455313D02*
X138423539Y-73360075D01*
X138994968Y-73788646D02*
X139042587Y-73693408D01*
X139042587Y-73693408D02*
X139042587Y-73455313D01*
X139042587Y-73455313D02*
X138994968Y-73360075D01*
X138994968Y-73360075D02*
X138899729Y-73312456D01*
X138899729Y-73312456D02*
X138804491Y-73312456D01*
X138804491Y-73312456D02*
X138709253Y-73360075D01*
X138709253Y-73360075D02*
X138661634Y-73455313D01*
X138661634Y-73455313D02*
X138661634Y-73693408D01*
X138661634Y-73693408D02*
X138614015Y-73788646D01*
X138375920Y-74121980D02*
X138375920Y-74502932D01*
X138042587Y-74264837D02*
X138899729Y-74264837D01*
X138899729Y-74264837D02*
X138994968Y-74312456D01*
X138994968Y-74312456D02*
X139042587Y-74407694D01*
X139042587Y-74407694D02*
X139042587Y-74502932D01*
X138566396Y-75455313D02*
X138518777Y-75407694D01*
X138518777Y-75407694D02*
X138471158Y-75312456D01*
X138471158Y-75312456D02*
X138471158Y-75217218D01*
X138471158Y-75217218D02*
X138518777Y-75121980D01*
X138518777Y-75121980D02*
X138566396Y-75074361D01*
X138566396Y-75074361D02*
X138661634Y-75026742D01*
X138661634Y-75026742D02*
X138756872Y-75026742D01*
X138756872Y-75026742D02*
X138852110Y-75074361D01*
X138852110Y-75074361D02*
X138899729Y-75121980D01*
X138899729Y-75121980D02*
X138947348Y-75217218D01*
X138947348Y-75217218D02*
X138947348Y-75312456D01*
X138947348Y-75312456D02*
X138899729Y-75407694D01*
X138899729Y-75407694D02*
X138852110Y-75455313D01*
X138471158Y-75455313D02*
X138852110Y-75455313D01*
X138852110Y-75455313D02*
X138899729Y-75502932D01*
X138899729Y-75502932D02*
X138899729Y-75550551D01*
X138899729Y-75550551D02*
X138852110Y-75645790D01*
X138852110Y-75645790D02*
X138756872Y-75693409D01*
X138756872Y-75693409D02*
X138518777Y-75693409D01*
X138518777Y-75693409D02*
X138375920Y-75598171D01*
X138375920Y-75598171D02*
X138280682Y-75455313D01*
X138280682Y-75455313D02*
X138233063Y-75264837D01*
X138233063Y-75264837D02*
X138280682Y-75074361D01*
X138280682Y-75074361D02*
X138375920Y-74931504D01*
X138375920Y-74931504D02*
X138518777Y-74836266D01*
X138518777Y-74836266D02*
X138709253Y-74788647D01*
X138709253Y-74788647D02*
X138899729Y-74836266D01*
X138899729Y-74836266D02*
X139042587Y-74931504D01*
X139042587Y-74931504D02*
X139137825Y-75074361D01*
X139137825Y-75074361D02*
X139185444Y-75264837D01*
X139185444Y-75264837D02*
X139137825Y-75455313D01*
X139137825Y-75455313D02*
X139042587Y-75598171D01*
X139042587Y-76121980D02*
X138042587Y-76121980D01*
X138042587Y-76121980D02*
X138756872Y-76455313D01*
X138756872Y-76455313D02*
X138042587Y-76788646D01*
X138042587Y-76788646D02*
X139042587Y-76788646D01*
X138994968Y-77217218D02*
X139042587Y-77360075D01*
X139042587Y-77360075D02*
X139042587Y-77598170D01*
X139042587Y-77598170D02*
X138994968Y-77693408D01*
X138994968Y-77693408D02*
X138947348Y-77741027D01*
X138947348Y-77741027D02*
X138852110Y-77788646D01*
X138852110Y-77788646D02*
X138756872Y-77788646D01*
X138756872Y-77788646D02*
X138661634Y-77741027D01*
X138661634Y-77741027D02*
X138614015Y-77693408D01*
X138614015Y-77693408D02*
X138566396Y-77598170D01*
X138566396Y-77598170D02*
X138518777Y-77407694D01*
X138518777Y-77407694D02*
X138471158Y-77312456D01*
X138471158Y-77312456D02*
X138423539Y-77264837D01*
X138423539Y-77264837D02*
X138328301Y-77217218D01*
X138328301Y-77217218D02*
X138233063Y-77217218D01*
X138233063Y-77217218D02*
X138137825Y-77264837D01*
X138137825Y-77264837D02*
X138090206Y-77312456D01*
X138090206Y-77312456D02*
X138042587Y-77407694D01*
X138042587Y-77407694D02*
X138042587Y-77645789D01*
X138042587Y-77645789D02*
X138090206Y-77788646D01*
X138042587Y-78217218D02*
X138852110Y-78217218D01*
X138852110Y-78217218D02*
X138947348Y-78264837D01*
X138947348Y-78264837D02*
X138994968Y-78312456D01*
X138994968Y-78312456D02*
X139042587Y-78407694D01*
X139042587Y-78407694D02*
X139042587Y-78598170D01*
X139042587Y-78598170D02*
X138994968Y-78693408D01*
X138994968Y-78693408D02*
X138947348Y-78741027D01*
X138947348Y-78741027D02*
X138852110Y-78788646D01*
X138852110Y-78788646D02*
X138042587Y-78788646D01*
X139042587Y-80026742D02*
X138042587Y-80026742D01*
X138042587Y-80026742D02*
X138042587Y-80407694D01*
X138042587Y-80407694D02*
X138090206Y-80502932D01*
X138090206Y-80502932D02*
X138137825Y-80550551D01*
X138137825Y-80550551D02*
X138233063Y-80598170D01*
X138233063Y-80598170D02*
X138375920Y-80598170D01*
X138375920Y-80598170D02*
X138471158Y-80550551D01*
X138471158Y-80550551D02*
X138518777Y-80502932D01*
X138518777Y-80502932D02*
X138566396Y-80407694D01*
X138566396Y-80407694D02*
X138566396Y-80026742D01*
X138947348Y-81598170D02*
X138994968Y-81550551D01*
X138994968Y-81550551D02*
X139042587Y-81407694D01*
X139042587Y-81407694D02*
X139042587Y-81312456D01*
X139042587Y-81312456D02*
X138994968Y-81169599D01*
X138994968Y-81169599D02*
X138899729Y-81074361D01*
X138899729Y-81074361D02*
X138804491Y-81026742D01*
X138804491Y-81026742D02*
X138614015Y-80979123D01*
X138614015Y-80979123D02*
X138471158Y-80979123D01*
X138471158Y-80979123D02*
X138280682Y-81026742D01*
X138280682Y-81026742D02*
X138185444Y-81074361D01*
X138185444Y-81074361D02*
X138090206Y-81169599D01*
X138090206Y-81169599D02*
X138042587Y-81312456D01*
X138042587Y-81312456D02*
X138042587Y-81407694D01*
X138042587Y-81407694D02*
X138090206Y-81550551D01*
X138090206Y-81550551D02*
X138137825Y-81598170D01*
X139042587Y-82026742D02*
X138042587Y-82026742D01*
X138661634Y-82502932D02*
X138661634Y-83264837D01*
X139042587Y-84264836D02*
X139042587Y-83693408D01*
X139042587Y-83979122D02*
X138042587Y-83979122D01*
X138042587Y-83979122D02*
X138185444Y-83883884D01*
X138185444Y-83883884D02*
X138280682Y-83788646D01*
X138280682Y-83788646D02*
X138328301Y-83693408D01*
X138042587Y-84883884D02*
X138042587Y-84979122D01*
X138042587Y-84979122D02*
X138090206Y-85074360D01*
X138090206Y-85074360D02*
X138137825Y-85121979D01*
X138137825Y-85121979D02*
X138233063Y-85169598D01*
X138233063Y-85169598D02*
X138423539Y-85217217D01*
X138423539Y-85217217D02*
X138661634Y-85217217D01*
X138661634Y-85217217D02*
X138852110Y-85169598D01*
X138852110Y-85169598D02*
X138947348Y-85121979D01*
X138947348Y-85121979D02*
X138994968Y-85074360D01*
X138994968Y-85074360D02*
X139042587Y-84979122D01*
X139042587Y-84979122D02*
X139042587Y-84883884D01*
X139042587Y-84883884D02*
X138994968Y-84788646D01*
X138994968Y-84788646D02*
X138947348Y-84741027D01*
X138947348Y-84741027D02*
X138852110Y-84693408D01*
X138852110Y-84693408D02*
X138661634Y-84645789D01*
X138661634Y-84645789D02*
X138423539Y-84645789D01*
X138423539Y-84645789D02*
X138233063Y-84693408D01*
X138233063Y-84693408D02*
X138137825Y-84741027D01*
X138137825Y-84741027D02*
X138090206Y-84788646D01*
X138090206Y-84788646D02*
X138042587Y-84883884D01*
X138375920Y-86074360D02*
X139042587Y-86074360D01*
X137994968Y-85836265D02*
X138709253Y-85598170D01*
X138709253Y-85598170D02*
X138709253Y-86217217D01*
X139042587Y-87360075D02*
X138042587Y-87360075D01*
X138042587Y-87360075D02*
X138042587Y-87741027D01*
X138042587Y-87741027D02*
X138090206Y-87836265D01*
X138090206Y-87836265D02*
X138137825Y-87883884D01*
X138137825Y-87883884D02*
X138233063Y-87931503D01*
X138233063Y-87931503D02*
X138375920Y-87931503D01*
X138375920Y-87931503D02*
X138471158Y-87883884D01*
X138471158Y-87883884D02*
X138518777Y-87836265D01*
X138518777Y-87836265D02*
X138566396Y-87741027D01*
X138566396Y-87741027D02*
X138566396Y-87360075D01*
X139042587Y-88360075D02*
X138375920Y-88360075D01*
X138566396Y-88360075D02*
X138471158Y-88407694D01*
X138471158Y-88407694D02*
X138423539Y-88455313D01*
X138423539Y-88455313D02*
X138375920Y-88550551D01*
X138375920Y-88550551D02*
X138375920Y-88645789D01*
X139042587Y-89121980D02*
X138994968Y-89026742D01*
X138994968Y-89026742D02*
X138947348Y-88979123D01*
X138947348Y-88979123D02*
X138852110Y-88931504D01*
X138852110Y-88931504D02*
X138566396Y-88931504D01*
X138566396Y-88931504D02*
X138471158Y-88979123D01*
X138471158Y-88979123D02*
X138423539Y-89026742D01*
X138423539Y-89026742D02*
X138375920Y-89121980D01*
X138375920Y-89121980D02*
X138375920Y-89264837D01*
X138375920Y-89264837D02*
X138423539Y-89360075D01*
X138423539Y-89360075D02*
X138471158Y-89407694D01*
X138471158Y-89407694D02*
X138566396Y-89455313D01*
X138566396Y-89455313D02*
X138852110Y-89455313D01*
X138852110Y-89455313D02*
X138947348Y-89407694D01*
X138947348Y-89407694D02*
X138994968Y-89360075D01*
X138994968Y-89360075D02*
X139042587Y-89264837D01*
X139042587Y-89264837D02*
X139042587Y-89121980D01*
X138375920Y-89741028D02*
X138375920Y-90121980D01*
X138042587Y-89883885D02*
X138899729Y-89883885D01*
X138899729Y-89883885D02*
X138994968Y-89931504D01*
X138994968Y-89931504D02*
X139042587Y-90026742D01*
X139042587Y-90026742D02*
X139042587Y-90121980D01*
X139042587Y-90598171D02*
X138994968Y-90502933D01*
X138994968Y-90502933D02*
X138947348Y-90455314D01*
X138947348Y-90455314D02*
X138852110Y-90407695D01*
X138852110Y-90407695D02*
X138566396Y-90407695D01*
X138566396Y-90407695D02*
X138471158Y-90455314D01*
X138471158Y-90455314D02*
X138423539Y-90502933D01*
X138423539Y-90502933D02*
X138375920Y-90598171D01*
X138375920Y-90598171D02*
X138375920Y-90741028D01*
X138375920Y-90741028D02*
X138423539Y-90836266D01*
X138423539Y-90836266D02*
X138471158Y-90883885D01*
X138471158Y-90883885D02*
X138566396Y-90931504D01*
X138566396Y-90931504D02*
X138852110Y-90931504D01*
X138852110Y-90931504D02*
X138947348Y-90883885D01*
X138947348Y-90883885D02*
X138994968Y-90836266D01*
X138994968Y-90836266D02*
X139042587Y-90741028D01*
X139042587Y-90741028D02*
X139042587Y-90598171D01*
X138518777Y-92455314D02*
X138566396Y-92598171D01*
X138566396Y-92598171D02*
X138614015Y-92645790D01*
X138614015Y-92645790D02*
X138709253Y-92693409D01*
X138709253Y-92693409D02*
X138852110Y-92693409D01*
X138852110Y-92693409D02*
X138947348Y-92645790D01*
X138947348Y-92645790D02*
X138994968Y-92598171D01*
X138994968Y-92598171D02*
X139042587Y-92502933D01*
X139042587Y-92502933D02*
X139042587Y-92121981D01*
X139042587Y-92121981D02*
X138042587Y-92121981D01*
X138042587Y-92121981D02*
X138042587Y-92455314D01*
X138042587Y-92455314D02*
X138090206Y-92550552D01*
X138090206Y-92550552D02*
X138137825Y-92598171D01*
X138137825Y-92598171D02*
X138233063Y-92645790D01*
X138233063Y-92645790D02*
X138328301Y-92645790D01*
X138328301Y-92645790D02*
X138423539Y-92598171D01*
X138423539Y-92598171D02*
X138471158Y-92550552D01*
X138471158Y-92550552D02*
X138518777Y-92455314D01*
X138518777Y-92455314D02*
X138518777Y-92121981D01*
X139042587Y-93264838D02*
X138994968Y-93169600D01*
X138994968Y-93169600D02*
X138947348Y-93121981D01*
X138947348Y-93121981D02*
X138852110Y-93074362D01*
X138852110Y-93074362D02*
X138566396Y-93074362D01*
X138566396Y-93074362D02*
X138471158Y-93121981D01*
X138471158Y-93121981D02*
X138423539Y-93169600D01*
X138423539Y-93169600D02*
X138375920Y-93264838D01*
X138375920Y-93264838D02*
X138375920Y-93407695D01*
X138375920Y-93407695D02*
X138423539Y-93502933D01*
X138423539Y-93502933D02*
X138471158Y-93550552D01*
X138471158Y-93550552D02*
X138566396Y-93598171D01*
X138566396Y-93598171D02*
X138852110Y-93598171D01*
X138852110Y-93598171D02*
X138947348Y-93550552D01*
X138947348Y-93550552D02*
X138994968Y-93502933D01*
X138994968Y-93502933D02*
X139042587Y-93407695D01*
X139042587Y-93407695D02*
X139042587Y-93264838D01*
X139042587Y-94455314D02*
X138518777Y-94455314D01*
X138518777Y-94455314D02*
X138423539Y-94407695D01*
X138423539Y-94407695D02*
X138375920Y-94312457D01*
X138375920Y-94312457D02*
X138375920Y-94121981D01*
X138375920Y-94121981D02*
X138423539Y-94026743D01*
X138994968Y-94455314D02*
X139042587Y-94360076D01*
X139042587Y-94360076D02*
X139042587Y-94121981D01*
X139042587Y-94121981D02*
X138994968Y-94026743D01*
X138994968Y-94026743D02*
X138899729Y-93979124D01*
X138899729Y-93979124D02*
X138804491Y-93979124D01*
X138804491Y-93979124D02*
X138709253Y-94026743D01*
X138709253Y-94026743D02*
X138661634Y-94121981D01*
X138661634Y-94121981D02*
X138661634Y-94360076D01*
X138661634Y-94360076D02*
X138614015Y-94455314D01*
X139042587Y-94931505D02*
X138375920Y-94931505D01*
X138566396Y-94931505D02*
X138471158Y-94979124D01*
X138471158Y-94979124D02*
X138423539Y-95026743D01*
X138423539Y-95026743D02*
X138375920Y-95121981D01*
X138375920Y-95121981D02*
X138375920Y-95217219D01*
X139042587Y-95979124D02*
X138042587Y-95979124D01*
X138994968Y-95979124D02*
X139042587Y-95883886D01*
X139042587Y-95883886D02*
X139042587Y-95693410D01*
X139042587Y-95693410D02*
X138994968Y-95598172D01*
X138994968Y-95598172D02*
X138947348Y-95550553D01*
X138947348Y-95550553D02*
X138852110Y-95502934D01*
X138852110Y-95502934D02*
X138566396Y-95502934D01*
X138566396Y-95502934D02*
X138471158Y-95550553D01*
X138471158Y-95550553D02*
X138423539Y-95598172D01*
X138423539Y-95598172D02*
X138375920Y-95693410D01*
X138375920Y-95693410D02*
X138375920Y-95883886D01*
X138375920Y-95883886D02*
X138423539Y-95979124D01*
X138375920Y-97121982D02*
X139042587Y-97360077D01*
X139042587Y-97360077D02*
X138375920Y-97598172D01*
X138042587Y-98169601D02*
X138042587Y-98264839D01*
X138042587Y-98264839D02*
X138090206Y-98360077D01*
X138090206Y-98360077D02*
X138137825Y-98407696D01*
X138137825Y-98407696D02*
X138233063Y-98455315D01*
X138233063Y-98455315D02*
X138423539Y-98502934D01*
X138423539Y-98502934D02*
X138661634Y-98502934D01*
X138661634Y-98502934D02*
X138852110Y-98455315D01*
X138852110Y-98455315D02*
X138947348Y-98407696D01*
X138947348Y-98407696D02*
X138994968Y-98360077D01*
X138994968Y-98360077D02*
X139042587Y-98264839D01*
X139042587Y-98264839D02*
X139042587Y-98169601D01*
X139042587Y-98169601D02*
X138994968Y-98074363D01*
X138994968Y-98074363D02*
X138947348Y-98026744D01*
X138947348Y-98026744D02*
X138852110Y-97979125D01*
X138852110Y-97979125D02*
X138661634Y-97931506D01*
X138661634Y-97931506D02*
X138423539Y-97931506D01*
X138423539Y-97931506D02*
X138233063Y-97979125D01*
X138233063Y-97979125D02*
X138137825Y-98026744D01*
X138137825Y-98026744D02*
X138090206Y-98074363D01*
X138090206Y-98074363D02*
X138042587Y-98169601D01*
X138947348Y-98931506D02*
X138994968Y-98979125D01*
X138994968Y-98979125D02*
X139042587Y-98931506D01*
X139042587Y-98931506D02*
X138994968Y-98883887D01*
X138994968Y-98883887D02*
X138947348Y-98931506D01*
X138947348Y-98931506D02*
X139042587Y-98931506D01*
X139042587Y-99931505D02*
X139042587Y-99360077D01*
X139042587Y-99645791D02*
X138042587Y-99645791D01*
X138042587Y-99645791D02*
X138185444Y-99550553D01*
X138185444Y-99550553D02*
X138280682Y-99455315D01*
X138280682Y-99455315D02*
X138328301Y-99360077D01*
X140652531Y-68883884D02*
X139652531Y-68883884D01*
X139652531Y-68883884D02*
X140366816Y-69217217D01*
X140366816Y-69217217D02*
X139652531Y-69550550D01*
X139652531Y-69550550D02*
X140652531Y-69550550D01*
X140652531Y-70169598D02*
X140604912Y-70074360D01*
X140604912Y-70074360D02*
X140557292Y-70026741D01*
X140557292Y-70026741D02*
X140462054Y-69979122D01*
X140462054Y-69979122D02*
X140176340Y-69979122D01*
X140176340Y-69979122D02*
X140081102Y-70026741D01*
X140081102Y-70026741D02*
X140033483Y-70074360D01*
X140033483Y-70074360D02*
X139985864Y-70169598D01*
X139985864Y-70169598D02*
X139985864Y-70312455D01*
X139985864Y-70312455D02*
X140033483Y-70407693D01*
X140033483Y-70407693D02*
X140081102Y-70455312D01*
X140081102Y-70455312D02*
X140176340Y-70502931D01*
X140176340Y-70502931D02*
X140462054Y-70502931D01*
X140462054Y-70502931D02*
X140557292Y-70455312D01*
X140557292Y-70455312D02*
X140604912Y-70407693D01*
X140604912Y-70407693D02*
X140652531Y-70312455D01*
X140652531Y-70312455D02*
X140652531Y-70169598D01*
X140652531Y-71360074D02*
X139652531Y-71360074D01*
X140604912Y-71360074D02*
X140652531Y-71264836D01*
X140652531Y-71264836D02*
X140652531Y-71074360D01*
X140652531Y-71074360D02*
X140604912Y-70979122D01*
X140604912Y-70979122D02*
X140557292Y-70931503D01*
X140557292Y-70931503D02*
X140462054Y-70883884D01*
X140462054Y-70883884D02*
X140176340Y-70883884D01*
X140176340Y-70883884D02*
X140081102Y-70931503D01*
X140081102Y-70931503D02*
X140033483Y-70979122D01*
X140033483Y-70979122D02*
X139985864Y-71074360D01*
X139985864Y-71074360D02*
X139985864Y-71264836D01*
X139985864Y-71264836D02*
X140033483Y-71360074D01*
X140652531Y-71836265D02*
X139985864Y-71836265D01*
X139652531Y-71836265D02*
X139700150Y-71788646D01*
X139700150Y-71788646D02*
X139747769Y-71836265D01*
X139747769Y-71836265D02*
X139700150Y-71883884D01*
X139700150Y-71883884D02*
X139652531Y-71836265D01*
X139652531Y-71836265D02*
X139747769Y-71836265D01*
X139985864Y-72169598D02*
X139985864Y-72550550D01*
X140652531Y-72312455D02*
X139795388Y-72312455D01*
X139795388Y-72312455D02*
X139700150Y-72360074D01*
X139700150Y-72360074D02*
X139652531Y-72455312D01*
X139652531Y-72455312D02*
X139652531Y-72550550D01*
X140652531Y-72883884D02*
X139985864Y-72883884D01*
X139652531Y-72883884D02*
X139700150Y-72836265D01*
X139700150Y-72836265D02*
X139747769Y-72883884D01*
X139747769Y-72883884D02*
X139700150Y-72931503D01*
X139700150Y-72931503D02*
X139652531Y-72883884D01*
X139652531Y-72883884D02*
X139747769Y-72883884D01*
X140604912Y-73741026D02*
X140652531Y-73645788D01*
X140652531Y-73645788D02*
X140652531Y-73455312D01*
X140652531Y-73455312D02*
X140604912Y-73360074D01*
X140604912Y-73360074D02*
X140509673Y-73312455D01*
X140509673Y-73312455D02*
X140128721Y-73312455D01*
X140128721Y-73312455D02*
X140033483Y-73360074D01*
X140033483Y-73360074D02*
X139985864Y-73455312D01*
X139985864Y-73455312D02*
X139985864Y-73645788D01*
X139985864Y-73645788D02*
X140033483Y-73741026D01*
X140033483Y-73741026D02*
X140128721Y-73788645D01*
X140128721Y-73788645D02*
X140223959Y-73788645D01*
X140223959Y-73788645D02*
X140319197Y-73312455D01*
X140652531Y-74645788D02*
X139652531Y-74645788D01*
X140604912Y-74645788D02*
X140652531Y-74550550D01*
X140652531Y-74550550D02*
X140652531Y-74360074D01*
X140652531Y-74360074D02*
X140604912Y-74264836D01*
X140604912Y-74264836D02*
X140557292Y-74217217D01*
X140557292Y-74217217D02*
X140462054Y-74169598D01*
X140462054Y-74169598D02*
X140176340Y-74169598D01*
X140176340Y-74169598D02*
X140081102Y-74217217D01*
X140081102Y-74217217D02*
X140033483Y-74264836D01*
X140033483Y-74264836D02*
X139985864Y-74360074D01*
X139985864Y-74360074D02*
X139985864Y-74550550D01*
X139985864Y-74550550D02*
X140033483Y-74645788D01*
X140128721Y-76217217D02*
X140176340Y-76360074D01*
X140176340Y-76360074D02*
X140223959Y-76407693D01*
X140223959Y-76407693D02*
X140319197Y-76455312D01*
X140319197Y-76455312D02*
X140462054Y-76455312D01*
X140462054Y-76455312D02*
X140557292Y-76407693D01*
X140557292Y-76407693D02*
X140604912Y-76360074D01*
X140604912Y-76360074D02*
X140652531Y-76264836D01*
X140652531Y-76264836D02*
X140652531Y-75883884D01*
X140652531Y-75883884D02*
X139652531Y-75883884D01*
X139652531Y-75883884D02*
X139652531Y-76217217D01*
X139652531Y-76217217D02*
X139700150Y-76312455D01*
X139700150Y-76312455D02*
X139747769Y-76360074D01*
X139747769Y-76360074D02*
X139843007Y-76407693D01*
X139843007Y-76407693D02*
X139938245Y-76407693D01*
X139938245Y-76407693D02*
X140033483Y-76360074D01*
X140033483Y-76360074D02*
X140081102Y-76312455D01*
X140081102Y-76312455D02*
X140128721Y-76217217D01*
X140128721Y-76217217D02*
X140128721Y-75883884D01*
X139985864Y-76788646D02*
X140652531Y-77026741D01*
X139985864Y-77264836D02*
X140652531Y-77026741D01*
X140652531Y-77026741D02*
X140890626Y-76931503D01*
X140890626Y-76931503D02*
X140938245Y-76883884D01*
X140938245Y-76883884D02*
X140985864Y-76788646D01*
X140652531Y-78407694D02*
X139652531Y-78407694D01*
X139652531Y-78407694D02*
X140652531Y-78979122D01*
X140652531Y-78979122D02*
X139652531Y-78979122D01*
X140652531Y-79455313D02*
X139985864Y-79455313D01*
X139652531Y-79455313D02*
X139700150Y-79407694D01*
X139700150Y-79407694D02*
X139747769Y-79455313D01*
X139747769Y-79455313D02*
X139700150Y-79502932D01*
X139700150Y-79502932D02*
X139652531Y-79455313D01*
X139652531Y-79455313D02*
X139747769Y-79455313D01*
X140604912Y-80360074D02*
X140652531Y-80264836D01*
X140652531Y-80264836D02*
X140652531Y-80074360D01*
X140652531Y-80074360D02*
X140604912Y-79979122D01*
X140604912Y-79979122D02*
X140557292Y-79931503D01*
X140557292Y-79931503D02*
X140462054Y-79883884D01*
X140462054Y-79883884D02*
X140176340Y-79883884D01*
X140176340Y-79883884D02*
X140081102Y-79931503D01*
X140081102Y-79931503D02*
X140033483Y-79979122D01*
X140033483Y-79979122D02*
X139985864Y-80074360D01*
X139985864Y-80074360D02*
X139985864Y-80264836D01*
X139985864Y-80264836D02*
X140033483Y-80360074D01*
X140652531Y-80788646D02*
X139652531Y-80788646D01*
X140271578Y-80883884D02*
X140652531Y-81169598D01*
X139985864Y-81169598D02*
X140366816Y-80788646D01*
X139700150Y-82883884D02*
X139652531Y-82788646D01*
X139652531Y-82788646D02*
X139652531Y-82645789D01*
X139652531Y-82645789D02*
X139700150Y-82502932D01*
X139700150Y-82502932D02*
X139795388Y-82407694D01*
X139795388Y-82407694D02*
X139890626Y-82360075D01*
X139890626Y-82360075D02*
X140081102Y-82312456D01*
X140081102Y-82312456D02*
X140223959Y-82312456D01*
X140223959Y-82312456D02*
X140414435Y-82360075D01*
X140414435Y-82360075D02*
X140509673Y-82407694D01*
X140509673Y-82407694D02*
X140604912Y-82502932D01*
X140604912Y-82502932D02*
X140652531Y-82645789D01*
X140652531Y-82645789D02*
X140652531Y-82741027D01*
X140652531Y-82741027D02*
X140604912Y-82883884D01*
X140604912Y-82883884D02*
X140557292Y-82931503D01*
X140557292Y-82931503D02*
X140223959Y-82931503D01*
X140223959Y-82931503D02*
X140223959Y-82741027D01*
X140652531Y-83360075D02*
X139985864Y-83360075D01*
X140176340Y-83360075D02*
X140081102Y-83407694D01*
X140081102Y-83407694D02*
X140033483Y-83455313D01*
X140033483Y-83455313D02*
X139985864Y-83550551D01*
X139985864Y-83550551D02*
X139985864Y-83645789D01*
X140652531Y-84407694D02*
X140128721Y-84407694D01*
X140128721Y-84407694D02*
X140033483Y-84360075D01*
X140033483Y-84360075D02*
X139985864Y-84264837D01*
X139985864Y-84264837D02*
X139985864Y-84074361D01*
X139985864Y-84074361D02*
X140033483Y-83979123D01*
X140604912Y-84407694D02*
X140652531Y-84312456D01*
X140652531Y-84312456D02*
X140652531Y-84074361D01*
X140652531Y-84074361D02*
X140604912Y-83979123D01*
X140604912Y-83979123D02*
X140509673Y-83931504D01*
X140509673Y-83931504D02*
X140414435Y-83931504D01*
X140414435Y-83931504D02*
X140319197Y-83979123D01*
X140319197Y-83979123D02*
X140271578Y-84074361D01*
X140271578Y-84074361D02*
X140271578Y-84312456D01*
X140271578Y-84312456D02*
X140223959Y-84407694D01*
X140652531Y-84883885D02*
X139652531Y-84883885D01*
X140033483Y-84883885D02*
X139985864Y-84979123D01*
X139985864Y-84979123D02*
X139985864Y-85169599D01*
X139985864Y-85169599D02*
X140033483Y-85264837D01*
X140033483Y-85264837D02*
X140081102Y-85312456D01*
X140081102Y-85312456D02*
X140176340Y-85360075D01*
X140176340Y-85360075D02*
X140462054Y-85360075D01*
X140462054Y-85360075D02*
X140557292Y-85312456D01*
X140557292Y-85312456D02*
X140604912Y-85264837D01*
X140604912Y-85264837D02*
X140652531Y-85169599D01*
X140652531Y-85169599D02*
X140652531Y-84979123D01*
X140652531Y-84979123D02*
X140604912Y-84883885D01*
X140652531Y-85788647D02*
X139652531Y-85788647D01*
X140033483Y-85788647D02*
X139985864Y-85883885D01*
X139985864Y-85883885D02*
X139985864Y-86074361D01*
X139985864Y-86074361D02*
X140033483Y-86169599D01*
X140033483Y-86169599D02*
X140081102Y-86217218D01*
X140081102Y-86217218D02*
X140176340Y-86264837D01*
X140176340Y-86264837D02*
X140462054Y-86264837D01*
X140462054Y-86264837D02*
X140557292Y-86217218D01*
X140557292Y-86217218D02*
X140604912Y-86169599D01*
X140604912Y-86169599D02*
X140652531Y-86074361D01*
X140652531Y-86074361D02*
X140652531Y-85883885D01*
X140652531Y-85883885D02*
X140604912Y-85788647D01*
X140604912Y-86645790D02*
X140652531Y-86741028D01*
X140652531Y-86741028D02*
X140652531Y-86931504D01*
X140652531Y-86931504D02*
X140604912Y-87026742D01*
X140604912Y-87026742D02*
X140509673Y-87074361D01*
X140509673Y-87074361D02*
X140462054Y-87074361D01*
X140462054Y-87074361D02*
X140366816Y-87026742D01*
X140366816Y-87026742D02*
X140319197Y-86931504D01*
X140319197Y-86931504D02*
X140319197Y-86788647D01*
X140319197Y-86788647D02*
X140271578Y-86693409D01*
X140271578Y-86693409D02*
X140176340Y-86645790D01*
X140176340Y-86645790D02*
X140128721Y-86645790D01*
X140128721Y-86645790D02*
X140033483Y-86693409D01*
X140033483Y-86693409D02*
X139985864Y-86788647D01*
X139985864Y-86788647D02*
X139985864Y-86931504D01*
X139985864Y-86931504D02*
X140033483Y-87026742D01*
X139652531Y-88455314D02*
X139652531Y-88550552D01*
X139652531Y-88550552D02*
X139700150Y-88645790D01*
X139700150Y-88645790D02*
X139747769Y-88693409D01*
X139747769Y-88693409D02*
X139843007Y-88741028D01*
X139843007Y-88741028D02*
X140033483Y-88788647D01*
X140033483Y-88788647D02*
X140271578Y-88788647D01*
X140271578Y-88788647D02*
X140462054Y-88741028D01*
X140462054Y-88741028D02*
X140557292Y-88693409D01*
X140557292Y-88693409D02*
X140604912Y-88645790D01*
X140604912Y-88645790D02*
X140652531Y-88550552D01*
X140652531Y-88550552D02*
X140652531Y-88455314D01*
X140652531Y-88455314D02*
X140604912Y-88360076D01*
X140604912Y-88360076D02*
X140557292Y-88312457D01*
X140557292Y-88312457D02*
X140462054Y-88264838D01*
X140462054Y-88264838D02*
X140271578Y-88217219D01*
X140271578Y-88217219D02*
X140033483Y-88217219D01*
X140033483Y-88217219D02*
X139843007Y-88264838D01*
X139843007Y-88264838D02*
X139747769Y-88312457D01*
X139747769Y-88312457D02*
X139700150Y-88360076D01*
X139700150Y-88360076D02*
X139652531Y-88455314D01*
X139652531Y-89645790D02*
X139652531Y-89455314D01*
X139652531Y-89455314D02*
X139700150Y-89360076D01*
X139700150Y-89360076D02*
X139747769Y-89312457D01*
X139747769Y-89312457D02*
X139890626Y-89217219D01*
X139890626Y-89217219D02*
X140081102Y-89169600D01*
X140081102Y-89169600D02*
X140462054Y-89169600D01*
X140462054Y-89169600D02*
X140557292Y-89217219D01*
X140557292Y-89217219D02*
X140604912Y-89264838D01*
X140604912Y-89264838D02*
X140652531Y-89360076D01*
X140652531Y-89360076D02*
X140652531Y-89550552D01*
X140652531Y-89550552D02*
X140604912Y-89645790D01*
X140604912Y-89645790D02*
X140557292Y-89693409D01*
X140557292Y-89693409D02*
X140462054Y-89741028D01*
X140462054Y-89741028D02*
X140223959Y-89741028D01*
X140223959Y-89741028D02*
X140128721Y-89693409D01*
X140128721Y-89693409D02*
X140081102Y-89645790D01*
X140081102Y-89645790D02*
X140033483Y-89550552D01*
X140033483Y-89550552D02*
X140033483Y-89360076D01*
X140033483Y-89360076D02*
X140081102Y-89264838D01*
X140081102Y-89264838D02*
X140128721Y-89217219D01*
X140128721Y-89217219D02*
X140223959Y-89169600D01*
X139604912Y-90883885D02*
X140890626Y-90026743D01*
X140652531Y-91741028D02*
X140652531Y-91169600D01*
X140652531Y-91455314D02*
X139652531Y-91455314D01*
X139652531Y-91455314D02*
X139795388Y-91360076D01*
X139795388Y-91360076D02*
X139890626Y-91264838D01*
X139890626Y-91264838D02*
X139938245Y-91169600D01*
X139652531Y-92598171D02*
X139652531Y-92407695D01*
X139652531Y-92407695D02*
X139700150Y-92312457D01*
X139700150Y-92312457D02*
X139747769Y-92264838D01*
X139747769Y-92264838D02*
X139890626Y-92169600D01*
X139890626Y-92169600D02*
X140081102Y-92121981D01*
X140081102Y-92121981D02*
X140462054Y-92121981D01*
X140462054Y-92121981D02*
X140557292Y-92169600D01*
X140557292Y-92169600D02*
X140604912Y-92217219D01*
X140604912Y-92217219D02*
X140652531Y-92312457D01*
X140652531Y-92312457D02*
X140652531Y-92502933D01*
X140652531Y-92502933D02*
X140604912Y-92598171D01*
X140604912Y-92598171D02*
X140557292Y-92645790D01*
X140557292Y-92645790D02*
X140462054Y-92693409D01*
X140462054Y-92693409D02*
X140223959Y-92693409D01*
X140223959Y-92693409D02*
X140128721Y-92645790D01*
X140128721Y-92645790D02*
X140081102Y-92598171D01*
X140081102Y-92598171D02*
X140033483Y-92502933D01*
X140033483Y-92502933D02*
X140033483Y-92312457D01*
X140033483Y-92312457D02*
X140081102Y-92217219D01*
X140081102Y-92217219D02*
X140128721Y-92169600D01*
X140128721Y-92169600D02*
X140223959Y-92121981D01*
X139604912Y-93836266D02*
X140890626Y-92979124D01*
X139747769Y-94121981D02*
X139700150Y-94169600D01*
X139700150Y-94169600D02*
X139652531Y-94264838D01*
X139652531Y-94264838D02*
X139652531Y-94502933D01*
X139652531Y-94502933D02*
X139700150Y-94598171D01*
X139700150Y-94598171D02*
X139747769Y-94645790D01*
X139747769Y-94645790D02*
X139843007Y-94693409D01*
X139843007Y-94693409D02*
X139938245Y-94693409D01*
X139938245Y-94693409D02*
X140081102Y-94645790D01*
X140081102Y-94645790D02*
X140652531Y-94074362D01*
X140652531Y-94074362D02*
X140652531Y-94693409D01*
X139652531Y-95312457D02*
X139652531Y-95407695D01*
X139652531Y-95407695D02*
X139700150Y-95502933D01*
X139700150Y-95502933D02*
X139747769Y-95550552D01*
X139747769Y-95550552D02*
X139843007Y-95598171D01*
X139843007Y-95598171D02*
X140033483Y-95645790D01*
X140033483Y-95645790D02*
X140271578Y-95645790D01*
X140271578Y-95645790D02*
X140462054Y-95598171D01*
X140462054Y-95598171D02*
X140557292Y-95550552D01*
X140557292Y-95550552D02*
X140604912Y-95502933D01*
X140604912Y-95502933D02*
X140652531Y-95407695D01*
X140652531Y-95407695D02*
X140652531Y-95312457D01*
X140652531Y-95312457D02*
X140604912Y-95217219D01*
X140604912Y-95217219D02*
X140557292Y-95169600D01*
X140557292Y-95169600D02*
X140462054Y-95121981D01*
X140462054Y-95121981D02*
X140271578Y-95074362D01*
X140271578Y-95074362D02*
X140033483Y-95074362D01*
X140033483Y-95074362D02*
X139843007Y-95121981D01*
X139843007Y-95121981D02*
X139747769Y-95169600D01*
X139747769Y-95169600D02*
X139700150Y-95217219D01*
X139700150Y-95217219D02*
X139652531Y-95312457D01*
X139747769Y-96026743D02*
X139700150Y-96074362D01*
X139700150Y-96074362D02*
X139652531Y-96169600D01*
X139652531Y-96169600D02*
X139652531Y-96407695D01*
X139652531Y-96407695D02*
X139700150Y-96502933D01*
X139700150Y-96502933D02*
X139747769Y-96550552D01*
X139747769Y-96550552D02*
X139843007Y-96598171D01*
X139843007Y-96598171D02*
X139938245Y-96598171D01*
X139938245Y-96598171D02*
X140081102Y-96550552D01*
X140081102Y-96550552D02*
X140652531Y-95979124D01*
X140652531Y-95979124D02*
X140652531Y-96598171D01*
X139652531Y-97502933D02*
X139652531Y-97026743D01*
X139652531Y-97026743D02*
X140128721Y-96979124D01*
X140128721Y-96979124D02*
X140081102Y-97026743D01*
X140081102Y-97026743D02*
X140033483Y-97121981D01*
X140033483Y-97121981D02*
X140033483Y-97360076D01*
X140033483Y-97360076D02*
X140081102Y-97455314D01*
X140081102Y-97455314D02*
X140128721Y-97502933D01*
X140128721Y-97502933D02*
X140223959Y-97550552D01*
X140223959Y-97550552D02*
X140462054Y-97550552D01*
X140462054Y-97550552D02*
X140557292Y-97502933D01*
X140557292Y-97502933D02*
X140604912Y-97455314D01*
X140604912Y-97455314D02*
X140652531Y-97360076D01*
X140652531Y-97360076D02*
X140652531Y-97121981D01*
X140652531Y-97121981D02*
X140604912Y-97026743D01*
X140604912Y-97026743D02*
X140557292Y-96979124D01*
X141262475Y-69074360D02*
X141262475Y-69264836D01*
X141262475Y-69264836D02*
X141310094Y-69360074D01*
X141310094Y-69360074D02*
X141405332Y-69455312D01*
X141405332Y-69455312D02*
X141595808Y-69502931D01*
X141595808Y-69502931D02*
X141929141Y-69502931D01*
X141929141Y-69502931D02*
X142119617Y-69455312D01*
X142119617Y-69455312D02*
X142214856Y-69360074D01*
X142214856Y-69360074D02*
X142262475Y-69264836D01*
X142262475Y-69264836D02*
X142262475Y-69074360D01*
X142262475Y-69074360D02*
X142214856Y-68979122D01*
X142214856Y-68979122D02*
X142119617Y-68883884D01*
X142119617Y-68883884D02*
X141929141Y-68836265D01*
X141929141Y-68836265D02*
X141595808Y-68836265D01*
X141595808Y-68836265D02*
X141405332Y-68883884D01*
X141405332Y-68883884D02*
X141310094Y-68979122D01*
X141310094Y-68979122D02*
X141262475Y-69074360D01*
X142262475Y-69931503D02*
X141595808Y-69931503D01*
X141786284Y-69931503D02*
X141691046Y-69979122D01*
X141691046Y-69979122D02*
X141643427Y-70026741D01*
X141643427Y-70026741D02*
X141595808Y-70121979D01*
X141595808Y-70121979D02*
X141595808Y-70217217D01*
X142262475Y-70550551D02*
X141595808Y-70550551D01*
X141262475Y-70550551D02*
X141310094Y-70502932D01*
X141310094Y-70502932D02*
X141357713Y-70550551D01*
X141357713Y-70550551D02*
X141310094Y-70598170D01*
X141310094Y-70598170D02*
X141262475Y-70550551D01*
X141262475Y-70550551D02*
X141357713Y-70550551D01*
X141595808Y-71455312D02*
X142405332Y-71455312D01*
X142405332Y-71455312D02*
X142500570Y-71407693D01*
X142500570Y-71407693D02*
X142548189Y-71360074D01*
X142548189Y-71360074D02*
X142595808Y-71264836D01*
X142595808Y-71264836D02*
X142595808Y-71121979D01*
X142595808Y-71121979D02*
X142548189Y-71026741D01*
X142214856Y-71455312D02*
X142262475Y-71360074D01*
X142262475Y-71360074D02*
X142262475Y-71169598D01*
X142262475Y-71169598D02*
X142214856Y-71074360D01*
X142214856Y-71074360D02*
X142167236Y-71026741D01*
X142167236Y-71026741D02*
X142071998Y-70979122D01*
X142071998Y-70979122D02*
X141786284Y-70979122D01*
X141786284Y-70979122D02*
X141691046Y-71026741D01*
X141691046Y-71026741D02*
X141643427Y-71074360D01*
X141643427Y-71074360D02*
X141595808Y-71169598D01*
X141595808Y-71169598D02*
X141595808Y-71360074D01*
X141595808Y-71360074D02*
X141643427Y-71455312D01*
X142262475Y-71931503D02*
X141595808Y-71931503D01*
X141262475Y-71931503D02*
X141310094Y-71883884D01*
X141310094Y-71883884D02*
X141357713Y-71931503D01*
X141357713Y-71931503D02*
X141310094Y-71979122D01*
X141310094Y-71979122D02*
X141262475Y-71931503D01*
X141262475Y-71931503D02*
X141357713Y-71931503D01*
X141595808Y-72407693D02*
X142262475Y-72407693D01*
X141691046Y-72407693D02*
X141643427Y-72455312D01*
X141643427Y-72455312D02*
X141595808Y-72550550D01*
X141595808Y-72550550D02*
X141595808Y-72693407D01*
X141595808Y-72693407D02*
X141643427Y-72788645D01*
X141643427Y-72788645D02*
X141738665Y-72836264D01*
X141738665Y-72836264D02*
X142262475Y-72836264D01*
X142262475Y-73741026D02*
X141738665Y-73741026D01*
X141738665Y-73741026D02*
X141643427Y-73693407D01*
X141643427Y-73693407D02*
X141595808Y-73598169D01*
X141595808Y-73598169D02*
X141595808Y-73407693D01*
X141595808Y-73407693D02*
X141643427Y-73312455D01*
X142214856Y-73741026D02*
X142262475Y-73645788D01*
X142262475Y-73645788D02*
X142262475Y-73407693D01*
X142262475Y-73407693D02*
X142214856Y-73312455D01*
X142214856Y-73312455D02*
X142119617Y-73264836D01*
X142119617Y-73264836D02*
X142024379Y-73264836D01*
X142024379Y-73264836D02*
X141929141Y-73312455D01*
X141929141Y-73312455D02*
X141881522Y-73407693D01*
X141881522Y-73407693D02*
X141881522Y-73645788D01*
X141881522Y-73645788D02*
X141833903Y-73741026D01*
X142262475Y-74360074D02*
X142214856Y-74264836D01*
X142214856Y-74264836D02*
X142119617Y-74217217D01*
X142119617Y-74217217D02*
X141262475Y-74217217D01*
X142262475Y-75502932D02*
X141262475Y-75502932D01*
X141262475Y-75502932D02*
X141262475Y-75741027D01*
X141262475Y-75741027D02*
X141310094Y-75883884D01*
X141310094Y-75883884D02*
X141405332Y-75979122D01*
X141405332Y-75979122D02*
X141500570Y-76026741D01*
X141500570Y-76026741D02*
X141691046Y-76074360D01*
X141691046Y-76074360D02*
X141833903Y-76074360D01*
X141833903Y-76074360D02*
X142024379Y-76026741D01*
X142024379Y-76026741D02*
X142119617Y-75979122D01*
X142119617Y-75979122D02*
X142214856Y-75883884D01*
X142214856Y-75883884D02*
X142262475Y-75741027D01*
X142262475Y-75741027D02*
X142262475Y-75502932D01*
X142214856Y-76883884D02*
X142262475Y-76788646D01*
X142262475Y-76788646D02*
X142262475Y-76598170D01*
X142262475Y-76598170D02*
X142214856Y-76502932D01*
X142214856Y-76502932D02*
X142119617Y-76455313D01*
X142119617Y-76455313D02*
X141738665Y-76455313D01*
X141738665Y-76455313D02*
X141643427Y-76502932D01*
X141643427Y-76502932D02*
X141595808Y-76598170D01*
X141595808Y-76598170D02*
X141595808Y-76788646D01*
X141595808Y-76788646D02*
X141643427Y-76883884D01*
X141643427Y-76883884D02*
X141738665Y-76931503D01*
X141738665Y-76931503D02*
X141833903Y-76931503D01*
X141833903Y-76931503D02*
X141929141Y-76455313D01*
X142214856Y-77312456D02*
X142262475Y-77407694D01*
X142262475Y-77407694D02*
X142262475Y-77598170D01*
X142262475Y-77598170D02*
X142214856Y-77693408D01*
X142214856Y-77693408D02*
X142119617Y-77741027D01*
X142119617Y-77741027D02*
X142071998Y-77741027D01*
X142071998Y-77741027D02*
X141976760Y-77693408D01*
X141976760Y-77693408D02*
X141929141Y-77598170D01*
X141929141Y-77598170D02*
X141929141Y-77455313D01*
X141929141Y-77455313D02*
X141881522Y-77360075D01*
X141881522Y-77360075D02*
X141786284Y-77312456D01*
X141786284Y-77312456D02*
X141738665Y-77312456D01*
X141738665Y-77312456D02*
X141643427Y-77360075D01*
X141643427Y-77360075D02*
X141595808Y-77455313D01*
X141595808Y-77455313D02*
X141595808Y-77598170D01*
X141595808Y-77598170D02*
X141643427Y-77693408D01*
X142262475Y-78169599D02*
X141595808Y-78169599D01*
X141262475Y-78169599D02*
X141310094Y-78121980D01*
X141310094Y-78121980D02*
X141357713Y-78169599D01*
X141357713Y-78169599D02*
X141310094Y-78217218D01*
X141310094Y-78217218D02*
X141262475Y-78169599D01*
X141262475Y-78169599D02*
X141357713Y-78169599D01*
X141595808Y-79074360D02*
X142405332Y-79074360D01*
X142405332Y-79074360D02*
X142500570Y-79026741D01*
X142500570Y-79026741D02*
X142548189Y-78979122D01*
X142548189Y-78979122D02*
X142595808Y-78883884D01*
X142595808Y-78883884D02*
X142595808Y-78741027D01*
X142595808Y-78741027D02*
X142548189Y-78645789D01*
X142214856Y-79074360D02*
X142262475Y-78979122D01*
X142262475Y-78979122D02*
X142262475Y-78788646D01*
X142262475Y-78788646D02*
X142214856Y-78693408D01*
X142214856Y-78693408D02*
X142167236Y-78645789D01*
X142167236Y-78645789D02*
X142071998Y-78598170D01*
X142071998Y-78598170D02*
X141786284Y-78598170D01*
X141786284Y-78598170D02*
X141691046Y-78645789D01*
X141691046Y-78645789D02*
X141643427Y-78693408D01*
X141643427Y-78693408D02*
X141595808Y-78788646D01*
X141595808Y-78788646D02*
X141595808Y-78979122D01*
X141595808Y-78979122D02*
X141643427Y-79074360D01*
X141595808Y-79550551D02*
X142262475Y-79550551D01*
X141691046Y-79550551D02*
X141643427Y-79598170D01*
X141643427Y-79598170D02*
X141595808Y-79693408D01*
X141595808Y-79693408D02*
X141595808Y-79836265D01*
X141595808Y-79836265D02*
X141643427Y-79931503D01*
X141643427Y-79931503D02*
X141738665Y-79979122D01*
X141738665Y-79979122D02*
X142262475Y-79979122D01*
X142262475Y-81217218D02*
X141262475Y-81217218D01*
X141643427Y-81217218D02*
X141595808Y-81312456D01*
X141595808Y-81312456D02*
X141595808Y-81502932D01*
X141595808Y-81502932D02*
X141643427Y-81598170D01*
X141643427Y-81598170D02*
X141691046Y-81645789D01*
X141691046Y-81645789D02*
X141786284Y-81693408D01*
X141786284Y-81693408D02*
X142071998Y-81693408D01*
X142071998Y-81693408D02*
X142167236Y-81645789D01*
X142167236Y-81645789D02*
X142214856Y-81598170D01*
X142214856Y-81598170D02*
X142262475Y-81502932D01*
X142262475Y-81502932D02*
X142262475Y-81312456D01*
X142262475Y-81312456D02*
X142214856Y-81217218D01*
X141595808Y-82026742D02*
X142262475Y-82264837D01*
X141595808Y-82502932D02*
X142262475Y-82264837D01*
X142262475Y-82264837D02*
X142500570Y-82169599D01*
X142500570Y-82169599D02*
X142548189Y-82121980D01*
X142548189Y-82121980D02*
X142595808Y-82026742D01*
X142167236Y-82883885D02*
X142214856Y-82931504D01*
X142214856Y-82931504D02*
X142262475Y-82883885D01*
X142262475Y-82883885D02*
X142214856Y-82836266D01*
X142214856Y-82836266D02*
X142167236Y-82883885D01*
X142167236Y-82883885D02*
X142262475Y-82883885D01*
X141643427Y-82883885D02*
X141691046Y-82931504D01*
X141691046Y-82931504D02*
X141738665Y-82883885D01*
X141738665Y-82883885D02*
X141691046Y-82836266D01*
X141691046Y-82836266D02*
X141643427Y-82883885D01*
X141643427Y-82883885D02*
X141738665Y-82883885D01*
X143205752Y-69312455D02*
X144015276Y-69312455D01*
X144015276Y-69312455D02*
X144110514Y-69264836D01*
X144110514Y-69264836D02*
X144158133Y-69217217D01*
X144158133Y-69217217D02*
X144205752Y-69121979D01*
X144205752Y-69121979D02*
X144205752Y-68979122D01*
X144205752Y-68979122D02*
X144158133Y-68883884D01*
X143824800Y-69312455D02*
X143872419Y-69217217D01*
X143872419Y-69217217D02*
X143872419Y-69026741D01*
X143872419Y-69026741D02*
X143824800Y-68931503D01*
X143824800Y-68931503D02*
X143777180Y-68883884D01*
X143777180Y-68883884D02*
X143681942Y-68836265D01*
X143681942Y-68836265D02*
X143396228Y-68836265D01*
X143396228Y-68836265D02*
X143300990Y-68883884D01*
X143300990Y-68883884D02*
X143253371Y-68931503D01*
X143253371Y-68931503D02*
X143205752Y-69026741D01*
X143205752Y-69026741D02*
X143205752Y-69217217D01*
X143205752Y-69217217D02*
X143253371Y-69312455D01*
X143205752Y-70217217D02*
X143872419Y-70217217D01*
X143205752Y-69788646D02*
X143729561Y-69788646D01*
X143729561Y-69788646D02*
X143824800Y-69836265D01*
X143824800Y-69836265D02*
X143872419Y-69931503D01*
X143872419Y-69931503D02*
X143872419Y-70074360D01*
X143872419Y-70074360D02*
X143824800Y-70169598D01*
X143824800Y-70169598D02*
X143777180Y-70217217D01*
X143872419Y-70836265D02*
X143824800Y-70741027D01*
X143824800Y-70741027D02*
X143777180Y-70693408D01*
X143777180Y-70693408D02*
X143681942Y-70645789D01*
X143681942Y-70645789D02*
X143396228Y-70645789D01*
X143396228Y-70645789D02*
X143300990Y-70693408D01*
X143300990Y-70693408D02*
X143253371Y-70741027D01*
X143253371Y-70741027D02*
X143205752Y-70836265D01*
X143205752Y-70836265D02*
X143205752Y-70979122D01*
X143205752Y-70979122D02*
X143253371Y-71074360D01*
X143253371Y-71074360D02*
X143300990Y-71121979D01*
X143300990Y-71121979D02*
X143396228Y-71169598D01*
X143396228Y-71169598D02*
X143681942Y-71169598D01*
X143681942Y-71169598D02*
X143777180Y-71121979D01*
X143777180Y-71121979D02*
X143824800Y-71074360D01*
X143824800Y-71074360D02*
X143872419Y-70979122D01*
X143872419Y-70979122D02*
X143872419Y-70836265D01*
X143872419Y-71598170D02*
X143205752Y-71598170D01*
X143396228Y-71598170D02*
X143300990Y-71645789D01*
X143300990Y-71645789D02*
X143253371Y-71693408D01*
X143253371Y-71693408D02*
X143205752Y-71788646D01*
X143205752Y-71788646D02*
X143205752Y-71883884D01*
X143872419Y-72217218D02*
X142872419Y-72217218D01*
X143253371Y-72217218D02*
X143205752Y-72312456D01*
X143205752Y-72312456D02*
X143205752Y-72502932D01*
X143205752Y-72502932D02*
X143253371Y-72598170D01*
X143253371Y-72598170D02*
X143300990Y-72645789D01*
X143300990Y-72645789D02*
X143396228Y-72693408D01*
X143396228Y-72693408D02*
X143681942Y-72693408D01*
X143681942Y-72693408D02*
X143777180Y-72645789D01*
X143777180Y-72645789D02*
X143824800Y-72598170D01*
X143824800Y-72598170D02*
X143872419Y-72502932D01*
X143872419Y-72502932D02*
X143872419Y-72312456D01*
X143872419Y-72312456D02*
X143824800Y-72217218D01*
X143872419Y-73121980D02*
X143205752Y-73121980D01*
X142872419Y-73121980D02*
X142920038Y-73074361D01*
X142920038Y-73074361D02*
X142967657Y-73121980D01*
X142967657Y-73121980D02*
X142920038Y-73169599D01*
X142920038Y-73169599D02*
X142872419Y-73121980D01*
X142872419Y-73121980D02*
X142967657Y-73121980D01*
X143205752Y-73455313D02*
X143205752Y-73836265D01*
X142872419Y-73598170D02*
X143729561Y-73598170D01*
X143729561Y-73598170D02*
X143824800Y-73645789D01*
X143824800Y-73645789D02*
X143872419Y-73741027D01*
X143872419Y-73741027D02*
X143872419Y-73836265D01*
X143872419Y-74931504D02*
X142872419Y-74931504D01*
X143872419Y-75360075D02*
X143348609Y-75360075D01*
X143348609Y-75360075D02*
X143253371Y-75312456D01*
X143253371Y-75312456D02*
X143205752Y-75217218D01*
X143205752Y-75217218D02*
X143205752Y-75074361D01*
X143205752Y-75074361D02*
X143253371Y-74979123D01*
X143253371Y-74979123D02*
X143300990Y-74931504D01*
X143205752Y-75693409D02*
X143205752Y-76074361D01*
X142872419Y-75836266D02*
X143729561Y-75836266D01*
X143729561Y-75836266D02*
X143824800Y-75883885D01*
X143824800Y-75883885D02*
X143872419Y-75979123D01*
X143872419Y-75979123D02*
X143872419Y-76074361D01*
X143205752Y-76264838D02*
X143205752Y-76645790D01*
X142872419Y-76407695D02*
X143729561Y-76407695D01*
X143729561Y-76407695D02*
X143824800Y-76455314D01*
X143824800Y-76455314D02*
X143872419Y-76550552D01*
X143872419Y-76550552D02*
X143872419Y-76645790D01*
X143205752Y-76979124D02*
X144205752Y-76979124D01*
X143253371Y-76979124D02*
X143205752Y-77074362D01*
X143205752Y-77074362D02*
X143205752Y-77264838D01*
X143205752Y-77264838D02*
X143253371Y-77360076D01*
X143253371Y-77360076D02*
X143300990Y-77407695D01*
X143300990Y-77407695D02*
X143396228Y-77455314D01*
X143396228Y-77455314D02*
X143681942Y-77455314D01*
X143681942Y-77455314D02*
X143777180Y-77407695D01*
X143777180Y-77407695D02*
X143824800Y-77360076D01*
X143824800Y-77360076D02*
X143872419Y-77264838D01*
X143872419Y-77264838D02*
X143872419Y-77074362D01*
X143872419Y-77074362D02*
X143824800Y-76979124D01*
X143824800Y-77836267D02*
X143872419Y-77931505D01*
X143872419Y-77931505D02*
X143872419Y-78121981D01*
X143872419Y-78121981D02*
X143824800Y-78217219D01*
X143824800Y-78217219D02*
X143729561Y-78264838D01*
X143729561Y-78264838D02*
X143681942Y-78264838D01*
X143681942Y-78264838D02*
X143586704Y-78217219D01*
X143586704Y-78217219D02*
X143539085Y-78121981D01*
X143539085Y-78121981D02*
X143539085Y-77979124D01*
X143539085Y-77979124D02*
X143491466Y-77883886D01*
X143491466Y-77883886D02*
X143396228Y-77836267D01*
X143396228Y-77836267D02*
X143348609Y-77836267D01*
X143348609Y-77836267D02*
X143253371Y-77883886D01*
X143253371Y-77883886D02*
X143205752Y-77979124D01*
X143205752Y-77979124D02*
X143205752Y-78121981D01*
X143205752Y-78121981D02*
X143253371Y-78217219D01*
X143777180Y-78693410D02*
X143824800Y-78741029D01*
X143824800Y-78741029D02*
X143872419Y-78693410D01*
X143872419Y-78693410D02*
X143824800Y-78645791D01*
X143824800Y-78645791D02*
X143777180Y-78693410D01*
X143777180Y-78693410D02*
X143872419Y-78693410D01*
X143253371Y-78693410D02*
X143300990Y-78741029D01*
X143300990Y-78741029D02*
X143348609Y-78693410D01*
X143348609Y-78693410D02*
X143300990Y-78645791D01*
X143300990Y-78645791D02*
X143253371Y-78693410D01*
X143253371Y-78693410D02*
X143348609Y-78693410D01*
X142824800Y-79883885D02*
X144110514Y-79026743D01*
X142824800Y-80931504D02*
X144110514Y-80074362D01*
X143205752Y-81693409D02*
X144015276Y-81693409D01*
X144015276Y-81693409D02*
X144110514Y-81645790D01*
X144110514Y-81645790D02*
X144158133Y-81598171D01*
X144158133Y-81598171D02*
X144205752Y-81502933D01*
X144205752Y-81502933D02*
X144205752Y-81360076D01*
X144205752Y-81360076D02*
X144158133Y-81264838D01*
X143824800Y-81693409D02*
X143872419Y-81598171D01*
X143872419Y-81598171D02*
X143872419Y-81407695D01*
X143872419Y-81407695D02*
X143824800Y-81312457D01*
X143824800Y-81312457D02*
X143777180Y-81264838D01*
X143777180Y-81264838D02*
X143681942Y-81217219D01*
X143681942Y-81217219D02*
X143396228Y-81217219D01*
X143396228Y-81217219D02*
X143300990Y-81264838D01*
X143300990Y-81264838D02*
X143253371Y-81312457D01*
X143253371Y-81312457D02*
X143205752Y-81407695D01*
X143205752Y-81407695D02*
X143205752Y-81598171D01*
X143205752Y-81598171D02*
X143253371Y-81693409D01*
X143872419Y-82169600D02*
X143205752Y-82169600D01*
X142872419Y-82169600D02*
X142920038Y-82121981D01*
X142920038Y-82121981D02*
X142967657Y-82169600D01*
X142967657Y-82169600D02*
X142920038Y-82217219D01*
X142920038Y-82217219D02*
X142872419Y-82169600D01*
X142872419Y-82169600D02*
X142967657Y-82169600D01*
X143205752Y-82502933D02*
X143205752Y-82883885D01*
X142872419Y-82645790D02*
X143729561Y-82645790D01*
X143729561Y-82645790D02*
X143824800Y-82693409D01*
X143824800Y-82693409D02*
X143872419Y-82788647D01*
X143872419Y-82788647D02*
X143872419Y-82883885D01*
X143872419Y-83217219D02*
X142872419Y-83217219D01*
X143872419Y-83645790D02*
X143348609Y-83645790D01*
X143348609Y-83645790D02*
X143253371Y-83598171D01*
X143253371Y-83598171D02*
X143205752Y-83502933D01*
X143205752Y-83502933D02*
X143205752Y-83360076D01*
X143205752Y-83360076D02*
X143253371Y-83264838D01*
X143253371Y-83264838D02*
X143300990Y-83217219D01*
X143205752Y-84550552D02*
X143872419Y-84550552D01*
X143205752Y-84121981D02*
X143729561Y-84121981D01*
X143729561Y-84121981D02*
X143824800Y-84169600D01*
X143824800Y-84169600D02*
X143872419Y-84264838D01*
X143872419Y-84264838D02*
X143872419Y-84407695D01*
X143872419Y-84407695D02*
X143824800Y-84502933D01*
X143824800Y-84502933D02*
X143777180Y-84550552D01*
X143872419Y-85026743D02*
X142872419Y-85026743D01*
X143253371Y-85026743D02*
X143205752Y-85121981D01*
X143205752Y-85121981D02*
X143205752Y-85312457D01*
X143205752Y-85312457D02*
X143253371Y-85407695D01*
X143253371Y-85407695D02*
X143300990Y-85455314D01*
X143300990Y-85455314D02*
X143396228Y-85502933D01*
X143396228Y-85502933D02*
X143681942Y-85502933D01*
X143681942Y-85502933D02*
X143777180Y-85455314D01*
X143777180Y-85455314D02*
X143824800Y-85407695D01*
X143824800Y-85407695D02*
X143872419Y-85312457D01*
X143872419Y-85312457D02*
X143872419Y-85121981D01*
X143872419Y-85121981D02*
X143824800Y-85026743D01*
X143777180Y-85931505D02*
X143824800Y-85979124D01*
X143824800Y-85979124D02*
X143872419Y-85931505D01*
X143872419Y-85931505D02*
X143824800Y-85883886D01*
X143824800Y-85883886D02*
X143777180Y-85931505D01*
X143777180Y-85931505D02*
X143872419Y-85931505D01*
X143824800Y-86836266D02*
X143872419Y-86741028D01*
X143872419Y-86741028D02*
X143872419Y-86550552D01*
X143872419Y-86550552D02*
X143824800Y-86455314D01*
X143824800Y-86455314D02*
X143777180Y-86407695D01*
X143777180Y-86407695D02*
X143681942Y-86360076D01*
X143681942Y-86360076D02*
X143396228Y-86360076D01*
X143396228Y-86360076D02*
X143300990Y-86407695D01*
X143300990Y-86407695D02*
X143253371Y-86455314D01*
X143253371Y-86455314D02*
X143205752Y-86550552D01*
X143205752Y-86550552D02*
X143205752Y-86741028D01*
X143205752Y-86741028D02*
X143253371Y-86836266D01*
X143872419Y-87407695D02*
X143824800Y-87312457D01*
X143824800Y-87312457D02*
X143777180Y-87264838D01*
X143777180Y-87264838D02*
X143681942Y-87217219D01*
X143681942Y-87217219D02*
X143396228Y-87217219D01*
X143396228Y-87217219D02*
X143300990Y-87264838D01*
X143300990Y-87264838D02*
X143253371Y-87312457D01*
X143253371Y-87312457D02*
X143205752Y-87407695D01*
X143205752Y-87407695D02*
X143205752Y-87550552D01*
X143205752Y-87550552D02*
X143253371Y-87645790D01*
X143253371Y-87645790D02*
X143300990Y-87693409D01*
X143300990Y-87693409D02*
X143396228Y-87741028D01*
X143396228Y-87741028D02*
X143681942Y-87741028D01*
X143681942Y-87741028D02*
X143777180Y-87693409D01*
X143777180Y-87693409D02*
X143824800Y-87645790D01*
X143824800Y-87645790D02*
X143872419Y-87550552D01*
X143872419Y-87550552D02*
X143872419Y-87407695D01*
X143872419Y-88169600D02*
X143205752Y-88169600D01*
X143300990Y-88169600D02*
X143253371Y-88217219D01*
X143253371Y-88217219D02*
X143205752Y-88312457D01*
X143205752Y-88312457D02*
X143205752Y-88455314D01*
X143205752Y-88455314D02*
X143253371Y-88550552D01*
X143253371Y-88550552D02*
X143348609Y-88598171D01*
X143348609Y-88598171D02*
X143872419Y-88598171D01*
X143348609Y-88598171D02*
X143253371Y-88645790D01*
X143253371Y-88645790D02*
X143205752Y-88741028D01*
X143205752Y-88741028D02*
X143205752Y-88883885D01*
X143205752Y-88883885D02*
X143253371Y-88979124D01*
X143253371Y-88979124D02*
X143348609Y-89026743D01*
X143348609Y-89026743D02*
X143872419Y-89026743D01*
X142824800Y-90217218D02*
X144110514Y-89360076D01*
X143205752Y-90979123D02*
X144015276Y-90979123D01*
X144015276Y-90979123D02*
X144110514Y-90931504D01*
X144110514Y-90931504D02*
X144158133Y-90883885D01*
X144158133Y-90883885D02*
X144205752Y-90788647D01*
X144205752Y-90788647D02*
X144205752Y-90645790D01*
X144205752Y-90645790D02*
X144158133Y-90550552D01*
X143824800Y-90979123D02*
X143872419Y-90883885D01*
X143872419Y-90883885D02*
X143872419Y-90693409D01*
X143872419Y-90693409D02*
X143824800Y-90598171D01*
X143824800Y-90598171D02*
X143777180Y-90550552D01*
X143777180Y-90550552D02*
X143681942Y-90502933D01*
X143681942Y-90502933D02*
X143396228Y-90502933D01*
X143396228Y-90502933D02*
X143300990Y-90550552D01*
X143300990Y-90550552D02*
X143253371Y-90598171D01*
X143253371Y-90598171D02*
X143205752Y-90693409D01*
X143205752Y-90693409D02*
X143205752Y-90883885D01*
X143205752Y-90883885D02*
X143253371Y-90979123D01*
X143205752Y-91883885D02*
X143872419Y-91883885D01*
X143205752Y-91455314D02*
X143729561Y-91455314D01*
X143729561Y-91455314D02*
X143824800Y-91502933D01*
X143824800Y-91502933D02*
X143872419Y-91598171D01*
X143872419Y-91598171D02*
X143872419Y-91741028D01*
X143872419Y-91741028D02*
X143824800Y-91836266D01*
X143824800Y-91836266D02*
X143777180Y-91883885D01*
X143872419Y-92502933D02*
X143824800Y-92407695D01*
X143824800Y-92407695D02*
X143777180Y-92360076D01*
X143777180Y-92360076D02*
X143681942Y-92312457D01*
X143681942Y-92312457D02*
X143396228Y-92312457D01*
X143396228Y-92312457D02*
X143300990Y-92360076D01*
X143300990Y-92360076D02*
X143253371Y-92407695D01*
X143253371Y-92407695D02*
X143205752Y-92502933D01*
X143205752Y-92502933D02*
X143205752Y-92645790D01*
X143205752Y-92645790D02*
X143253371Y-92741028D01*
X143253371Y-92741028D02*
X143300990Y-92788647D01*
X143300990Y-92788647D02*
X143396228Y-92836266D01*
X143396228Y-92836266D02*
X143681942Y-92836266D01*
X143681942Y-92836266D02*
X143777180Y-92788647D01*
X143777180Y-92788647D02*
X143824800Y-92741028D01*
X143824800Y-92741028D02*
X143872419Y-92645790D01*
X143872419Y-92645790D02*
X143872419Y-92502933D01*
X143872419Y-93264838D02*
X143205752Y-93264838D01*
X143396228Y-93264838D02*
X143300990Y-93312457D01*
X143300990Y-93312457D02*
X143253371Y-93360076D01*
X143253371Y-93360076D02*
X143205752Y-93455314D01*
X143205752Y-93455314D02*
X143205752Y-93550552D01*
X143872419Y-93883886D02*
X142872419Y-93883886D01*
X143253371Y-93883886D02*
X143205752Y-93979124D01*
X143205752Y-93979124D02*
X143205752Y-94169600D01*
X143205752Y-94169600D02*
X143253371Y-94264838D01*
X143253371Y-94264838D02*
X143300990Y-94312457D01*
X143300990Y-94312457D02*
X143396228Y-94360076D01*
X143396228Y-94360076D02*
X143681942Y-94360076D01*
X143681942Y-94360076D02*
X143777180Y-94312457D01*
X143777180Y-94312457D02*
X143824800Y-94264838D01*
X143824800Y-94264838D02*
X143872419Y-94169600D01*
X143872419Y-94169600D02*
X143872419Y-93979124D01*
X143872419Y-93979124D02*
X143824800Y-93883886D01*
X143872419Y-94788648D02*
X143205752Y-94788648D01*
X142872419Y-94788648D02*
X142920038Y-94741029D01*
X142920038Y-94741029D02*
X142967657Y-94788648D01*
X142967657Y-94788648D02*
X142920038Y-94836267D01*
X142920038Y-94836267D02*
X142872419Y-94788648D01*
X142872419Y-94788648D02*
X142967657Y-94788648D01*
X143205752Y-95121981D02*
X143205752Y-95502933D01*
X142872419Y-95264838D02*
X143729561Y-95264838D01*
X143729561Y-95264838D02*
X143824800Y-95312457D01*
X143824800Y-95312457D02*
X143872419Y-95407695D01*
X143872419Y-95407695D02*
X143872419Y-95502933D01*
X142824800Y-96550552D02*
X144110514Y-95693410D01*
X143205752Y-96883886D02*
X144205752Y-96883886D01*
X143253371Y-96883886D02*
X143205752Y-96979124D01*
X143205752Y-96979124D02*
X143205752Y-97169600D01*
X143205752Y-97169600D02*
X143253371Y-97264838D01*
X143253371Y-97264838D02*
X143300990Y-97312457D01*
X143300990Y-97312457D02*
X143396228Y-97360076D01*
X143396228Y-97360076D02*
X143681942Y-97360076D01*
X143681942Y-97360076D02*
X143777180Y-97312457D01*
X143777180Y-97312457D02*
X143824800Y-97264838D01*
X143824800Y-97264838D02*
X143872419Y-97169600D01*
X143872419Y-97169600D02*
X143872419Y-96979124D01*
X143872419Y-96979124D02*
X143824800Y-96883886D01*
X143824800Y-98217219D02*
X143872419Y-98121981D01*
X143872419Y-98121981D02*
X143872419Y-97931505D01*
X143872419Y-97931505D02*
X143824800Y-97836267D01*
X143824800Y-97836267D02*
X143777180Y-97788648D01*
X143777180Y-97788648D02*
X143681942Y-97741029D01*
X143681942Y-97741029D02*
X143396228Y-97741029D01*
X143396228Y-97741029D02*
X143300990Y-97788648D01*
X143300990Y-97788648D02*
X143253371Y-97836267D01*
X143253371Y-97836267D02*
X143205752Y-97931505D01*
X143205752Y-97931505D02*
X143205752Y-98121981D01*
X143205752Y-98121981D02*
X143253371Y-98217219D01*
X143872419Y-98645791D02*
X143205752Y-98645791D01*
X142872419Y-98645791D02*
X142920038Y-98598172D01*
X142920038Y-98598172D02*
X142967657Y-98645791D01*
X142967657Y-98645791D02*
X142920038Y-98693410D01*
X142920038Y-98693410D02*
X142872419Y-98645791D01*
X142872419Y-98645791D02*
X142967657Y-98645791D01*
X143872419Y-99645790D02*
X143872419Y-99074362D01*
X143872419Y-99360076D02*
X142872419Y-99360076D01*
X142872419Y-99360076D02*
X143015276Y-99264838D01*
X143015276Y-99264838D02*
X143110514Y-99169600D01*
X143110514Y-99169600D02*
X143158133Y-99074362D01*
X142872419Y-100264838D02*
X142872419Y-100360076D01*
X142872419Y-100360076D02*
X142920038Y-100455314D01*
X142920038Y-100455314D02*
X142967657Y-100502933D01*
X142967657Y-100502933D02*
X143062895Y-100550552D01*
X143062895Y-100550552D02*
X143253371Y-100598171D01*
X143253371Y-100598171D02*
X143491466Y-100598171D01*
X143491466Y-100598171D02*
X143681942Y-100550552D01*
X143681942Y-100550552D02*
X143777180Y-100502933D01*
X143777180Y-100502933D02*
X143824800Y-100455314D01*
X143824800Y-100455314D02*
X143872419Y-100360076D01*
X143872419Y-100360076D02*
X143872419Y-100264838D01*
X143872419Y-100264838D02*
X143824800Y-100169600D01*
X143824800Y-100169600D02*
X143777180Y-100121981D01*
X143777180Y-100121981D02*
X143681942Y-100074362D01*
X143681942Y-100074362D02*
X143491466Y-100026743D01*
X143491466Y-100026743D02*
X143253371Y-100026743D01*
X143253371Y-100026743D02*
X143062895Y-100074362D01*
X143062895Y-100074362D02*
X142967657Y-100121981D01*
X142967657Y-100121981D02*
X142920038Y-100169600D01*
X142920038Y-100169600D02*
X142872419Y-100264838D01*
X143205752Y-101455314D02*
X143872419Y-101455314D01*
X142824800Y-101217219D02*
X143539085Y-100979124D01*
X143539085Y-100979124D02*
X143539085Y-101598171D01*
X143491466Y-101979124D02*
X143491466Y-102741029D01*
X143205752Y-103074362D02*
X143205752Y-103455314D01*
X142872419Y-103217219D02*
X143729561Y-103217219D01*
X143729561Y-103217219D02*
X143824800Y-103264838D01*
X143824800Y-103264838D02*
X143872419Y-103360076D01*
X143872419Y-103360076D02*
X143872419Y-103455314D01*
X143824800Y-104169600D02*
X143872419Y-104074362D01*
X143872419Y-104074362D02*
X143872419Y-103883886D01*
X143872419Y-103883886D02*
X143824800Y-103788648D01*
X143824800Y-103788648D02*
X143729561Y-103741029D01*
X143729561Y-103741029D02*
X143348609Y-103741029D01*
X143348609Y-103741029D02*
X143253371Y-103788648D01*
X143253371Y-103788648D02*
X143205752Y-103883886D01*
X143205752Y-103883886D02*
X143205752Y-104074362D01*
X143205752Y-104074362D02*
X143253371Y-104169600D01*
X143253371Y-104169600D02*
X143348609Y-104217219D01*
X143348609Y-104217219D02*
X143443847Y-104217219D01*
X143443847Y-104217219D02*
X143539085Y-103741029D01*
X143872419Y-104645791D02*
X143205752Y-104645791D01*
X143300990Y-104645791D02*
X143253371Y-104693410D01*
X143253371Y-104693410D02*
X143205752Y-104788648D01*
X143205752Y-104788648D02*
X143205752Y-104931505D01*
X143205752Y-104931505D02*
X143253371Y-105026743D01*
X143253371Y-105026743D02*
X143348609Y-105074362D01*
X143348609Y-105074362D02*
X143872419Y-105074362D01*
X143348609Y-105074362D02*
X143253371Y-105121981D01*
X143253371Y-105121981D02*
X143205752Y-105217219D01*
X143205752Y-105217219D02*
X143205752Y-105360076D01*
X143205752Y-105360076D02*
X143253371Y-105455315D01*
X143253371Y-105455315D02*
X143348609Y-105502934D01*
X143348609Y-105502934D02*
X143872419Y-105502934D01*
X143205752Y-105979124D02*
X144205752Y-105979124D01*
X143253371Y-105979124D02*
X143205752Y-106074362D01*
X143205752Y-106074362D02*
X143205752Y-106264838D01*
X143205752Y-106264838D02*
X143253371Y-106360076D01*
X143253371Y-106360076D02*
X143300990Y-106407695D01*
X143300990Y-106407695D02*
X143396228Y-106455314D01*
X143396228Y-106455314D02*
X143681942Y-106455314D01*
X143681942Y-106455314D02*
X143777180Y-106407695D01*
X143777180Y-106407695D02*
X143824800Y-106360076D01*
X143824800Y-106360076D02*
X143872419Y-106264838D01*
X143872419Y-106264838D02*
X143872419Y-106074362D01*
X143872419Y-106074362D02*
X143824800Y-105979124D01*
X143872419Y-107026743D02*
X143824800Y-106931505D01*
X143824800Y-106931505D02*
X143729561Y-106883886D01*
X143729561Y-106883886D02*
X142872419Y-106883886D01*
X143872419Y-107836267D02*
X143348609Y-107836267D01*
X143348609Y-107836267D02*
X143253371Y-107788648D01*
X143253371Y-107788648D02*
X143205752Y-107693410D01*
X143205752Y-107693410D02*
X143205752Y-107502934D01*
X143205752Y-107502934D02*
X143253371Y-107407696D01*
X143824800Y-107836267D02*
X143872419Y-107741029D01*
X143872419Y-107741029D02*
X143872419Y-107502934D01*
X143872419Y-107502934D02*
X143824800Y-107407696D01*
X143824800Y-107407696D02*
X143729561Y-107360077D01*
X143729561Y-107360077D02*
X143634323Y-107360077D01*
X143634323Y-107360077D02*
X143539085Y-107407696D01*
X143539085Y-107407696D02*
X143491466Y-107502934D01*
X143491466Y-107502934D02*
X143491466Y-107741029D01*
X143491466Y-107741029D02*
X143443847Y-107836267D01*
X143205752Y-108169601D02*
X143205752Y-108550553D01*
X142872419Y-108312458D02*
X143729561Y-108312458D01*
X143729561Y-108312458D02*
X143824800Y-108360077D01*
X143824800Y-108360077D02*
X143872419Y-108455315D01*
X143872419Y-108455315D02*
X143872419Y-108550553D01*
X143824800Y-109264839D02*
X143872419Y-109169601D01*
X143872419Y-109169601D02*
X143872419Y-108979125D01*
X143872419Y-108979125D02*
X143824800Y-108883887D01*
X143824800Y-108883887D02*
X143729561Y-108836268D01*
X143729561Y-108836268D02*
X143348609Y-108836268D01*
X143348609Y-108836268D02*
X143253371Y-108883887D01*
X143253371Y-108883887D02*
X143205752Y-108979125D01*
X143205752Y-108979125D02*
X143205752Y-109169601D01*
X143205752Y-109169601D02*
X143253371Y-109264839D01*
X143253371Y-109264839D02*
X143348609Y-109312458D01*
X143348609Y-109312458D02*
X143443847Y-109312458D01*
X143443847Y-109312458D02*
X143539085Y-108836268D01*
M02*
