%TF.GenerationSoftware,KiCad,Pcbnew,9.0.0-rc3*%
%TF.CreationDate,2025-06-30T09:22:31-05:00*%
%TF.ProjectId,pv_panel,70765f70-616e-4656-9c2e-6b696361645f,rev?*%
%TF.SameCoordinates,Original*%
%TF.FileFunction,Legend,Bot*%
%TF.FilePolarity,Positive*%
%FSLAX46Y46*%
G04 Gerber Fmt 4.6, Leading zero omitted, Abs format (unit mm)*
G04 Created by KiCad (PCBNEW 9.0.0-rc3) date 2025-06-30 09:22:31*
%MOMM*%
%LPD*%
G01*
G04 APERTURE LIST*
%ADD10C,0.150000*%
%ADD11C,0.152400*%
%ADD12C,0.120000*%
G04 APERTURE END LIST*
D10*
X146522566Y-97459580D02*
X146570185Y-97507200D01*
X146570185Y-97507200D02*
X146713042Y-97554819D01*
X146713042Y-97554819D02*
X146808280Y-97554819D01*
X146808280Y-97554819D02*
X146951137Y-97507200D01*
X146951137Y-97507200D02*
X147046375Y-97411961D01*
X147046375Y-97411961D02*
X147093994Y-97316723D01*
X147093994Y-97316723D02*
X147141613Y-97126247D01*
X147141613Y-97126247D02*
X147141613Y-96983390D01*
X147141613Y-96983390D02*
X147093994Y-96792914D01*
X147093994Y-96792914D02*
X147046375Y-96697676D01*
X147046375Y-96697676D02*
X146951137Y-96602438D01*
X146951137Y-96602438D02*
X146808280Y-96554819D01*
X146808280Y-96554819D02*
X146713042Y-96554819D01*
X146713042Y-96554819D02*
X146570185Y-96602438D01*
X146570185Y-96602438D02*
X146522566Y-96650057D01*
X145522566Y-97554819D02*
X145855899Y-97078628D01*
X146093994Y-97554819D02*
X146093994Y-96554819D01*
X146093994Y-96554819D02*
X145713042Y-96554819D01*
X145713042Y-96554819D02*
X145617804Y-96602438D01*
X145617804Y-96602438D02*
X145570185Y-96650057D01*
X145570185Y-96650057D02*
X145522566Y-96745295D01*
X145522566Y-96745295D02*
X145522566Y-96888152D01*
X145522566Y-96888152D02*
X145570185Y-96983390D01*
X145570185Y-96983390D02*
X145617804Y-97031009D01*
X145617804Y-97031009D02*
X145713042Y-97078628D01*
X145713042Y-97078628D02*
X146093994Y-97078628D01*
X145189232Y-96554819D02*
X144570185Y-96554819D01*
X144570185Y-96554819D02*
X144903518Y-96935771D01*
X144903518Y-96935771D02*
X144760661Y-96935771D01*
X144760661Y-96935771D02*
X144665423Y-96983390D01*
X144665423Y-96983390D02*
X144617804Y-97031009D01*
X144617804Y-97031009D02*
X144570185Y-97126247D01*
X144570185Y-97126247D02*
X144570185Y-97364342D01*
X144570185Y-97364342D02*
X144617804Y-97459580D01*
X144617804Y-97459580D02*
X144665423Y-97507200D01*
X144665423Y-97507200D02*
X144760661Y-97554819D01*
X144760661Y-97554819D02*
X145046375Y-97554819D01*
X145046375Y-97554819D02*
X145141613Y-97507200D01*
X145141613Y-97507200D02*
X145189232Y-97459580D01*
X147666666Y-74359580D02*
X147714285Y-74407200D01*
X147714285Y-74407200D02*
X147857142Y-74454819D01*
X147857142Y-74454819D02*
X147952380Y-74454819D01*
X147952380Y-74454819D02*
X148095237Y-74407200D01*
X148095237Y-74407200D02*
X148190475Y-74311961D01*
X148190475Y-74311961D02*
X148238094Y-74216723D01*
X148238094Y-74216723D02*
X148285713Y-74026247D01*
X148285713Y-74026247D02*
X148285713Y-73883390D01*
X148285713Y-73883390D02*
X148238094Y-73692914D01*
X148238094Y-73692914D02*
X148190475Y-73597676D01*
X148190475Y-73597676D02*
X148095237Y-73502438D01*
X148095237Y-73502438D02*
X147952380Y-73454819D01*
X147952380Y-73454819D02*
X147857142Y-73454819D01*
X147857142Y-73454819D02*
X147714285Y-73502438D01*
X147714285Y-73502438D02*
X147666666Y-73550057D01*
X146666666Y-74454819D02*
X146999999Y-73978628D01*
X147238094Y-74454819D02*
X147238094Y-73454819D01*
X147238094Y-73454819D02*
X146857142Y-73454819D01*
X146857142Y-73454819D02*
X146761904Y-73502438D01*
X146761904Y-73502438D02*
X146714285Y-73550057D01*
X146714285Y-73550057D02*
X146666666Y-73645295D01*
X146666666Y-73645295D02*
X146666666Y-73788152D01*
X146666666Y-73788152D02*
X146714285Y-73883390D01*
X146714285Y-73883390D02*
X146761904Y-73931009D01*
X146761904Y-73931009D02*
X146857142Y-73978628D01*
X146857142Y-73978628D02*
X147238094Y-73978628D01*
X146285713Y-73550057D02*
X146238094Y-73502438D01*
X146238094Y-73502438D02*
X146142856Y-73454819D01*
X146142856Y-73454819D02*
X145904761Y-73454819D01*
X145904761Y-73454819D02*
X145809523Y-73502438D01*
X145809523Y-73502438D02*
X145761904Y-73550057D01*
X145761904Y-73550057D02*
X145714285Y-73645295D01*
X145714285Y-73645295D02*
X145714285Y-73740533D01*
X145714285Y-73740533D02*
X145761904Y-73883390D01*
X145761904Y-73883390D02*
X146333332Y-74454819D01*
X146333332Y-74454819D02*
X145714285Y-74454819D01*
X148010766Y-51459580D02*
X148058385Y-51507200D01*
X148058385Y-51507200D02*
X148201242Y-51554819D01*
X148201242Y-51554819D02*
X148296480Y-51554819D01*
X148296480Y-51554819D02*
X148439337Y-51507200D01*
X148439337Y-51507200D02*
X148534575Y-51411961D01*
X148534575Y-51411961D02*
X148582194Y-51316723D01*
X148582194Y-51316723D02*
X148629813Y-51126247D01*
X148629813Y-51126247D02*
X148629813Y-50983390D01*
X148629813Y-50983390D02*
X148582194Y-50792914D01*
X148582194Y-50792914D02*
X148534575Y-50697676D01*
X148534575Y-50697676D02*
X148439337Y-50602438D01*
X148439337Y-50602438D02*
X148296480Y-50554819D01*
X148296480Y-50554819D02*
X148201242Y-50554819D01*
X148201242Y-50554819D02*
X148058385Y-50602438D01*
X148058385Y-50602438D02*
X148010766Y-50650057D01*
X147010766Y-51554819D02*
X147344099Y-51078628D01*
X147582194Y-51554819D02*
X147582194Y-50554819D01*
X147582194Y-50554819D02*
X147201242Y-50554819D01*
X147201242Y-50554819D02*
X147106004Y-50602438D01*
X147106004Y-50602438D02*
X147058385Y-50650057D01*
X147058385Y-50650057D02*
X147010766Y-50745295D01*
X147010766Y-50745295D02*
X147010766Y-50888152D01*
X147010766Y-50888152D02*
X147058385Y-50983390D01*
X147058385Y-50983390D02*
X147106004Y-51031009D01*
X147106004Y-51031009D02*
X147201242Y-51078628D01*
X147201242Y-51078628D02*
X147582194Y-51078628D01*
X146058385Y-51554819D02*
X146629813Y-51554819D01*
X146344099Y-51554819D02*
X146344099Y-50554819D01*
X146344099Y-50554819D02*
X146439337Y-50697676D01*
X146439337Y-50697676D02*
X146534575Y-50792914D01*
X146534575Y-50792914D02*
X146629813Y-50840533D01*
X139666666Y-59559580D02*
X139714285Y-59607200D01*
X139714285Y-59607200D02*
X139857142Y-59654819D01*
X139857142Y-59654819D02*
X139952380Y-59654819D01*
X139952380Y-59654819D02*
X140095237Y-59607200D01*
X140095237Y-59607200D02*
X140190475Y-59511961D01*
X140190475Y-59511961D02*
X140238094Y-59416723D01*
X140238094Y-59416723D02*
X140285713Y-59226247D01*
X140285713Y-59226247D02*
X140285713Y-59083390D01*
X140285713Y-59083390D02*
X140238094Y-58892914D01*
X140238094Y-58892914D02*
X140190475Y-58797676D01*
X140190475Y-58797676D02*
X140095237Y-58702438D01*
X140095237Y-58702438D02*
X139952380Y-58654819D01*
X139952380Y-58654819D02*
X139857142Y-58654819D01*
X139857142Y-58654819D02*
X139714285Y-58702438D01*
X139714285Y-58702438D02*
X139666666Y-58750057D01*
X138666666Y-59654819D02*
X138999999Y-59178628D01*
X139238094Y-59654819D02*
X139238094Y-58654819D01*
X139238094Y-58654819D02*
X138857142Y-58654819D01*
X138857142Y-58654819D02*
X138761904Y-58702438D01*
X138761904Y-58702438D02*
X138714285Y-58750057D01*
X138714285Y-58750057D02*
X138666666Y-58845295D01*
X138666666Y-58845295D02*
X138666666Y-58988152D01*
X138666666Y-58988152D02*
X138714285Y-59083390D01*
X138714285Y-59083390D02*
X138761904Y-59131009D01*
X138761904Y-59131009D02*
X138857142Y-59178628D01*
X138857142Y-59178628D02*
X139238094Y-59178628D01*
X138047618Y-58654819D02*
X137952380Y-58654819D01*
X137952380Y-58654819D02*
X137857142Y-58702438D01*
X137857142Y-58702438D02*
X137809523Y-58750057D01*
X137809523Y-58750057D02*
X137761904Y-58845295D01*
X137761904Y-58845295D02*
X137714285Y-59035771D01*
X137714285Y-59035771D02*
X137714285Y-59273866D01*
X137714285Y-59273866D02*
X137761904Y-59464342D01*
X137761904Y-59464342D02*
X137809523Y-59559580D01*
X137809523Y-59559580D02*
X137857142Y-59607200D01*
X137857142Y-59607200D02*
X137952380Y-59654819D01*
X137952380Y-59654819D02*
X138047618Y-59654819D01*
X138047618Y-59654819D02*
X138142856Y-59607200D01*
X138142856Y-59607200D02*
X138190475Y-59559580D01*
X138190475Y-59559580D02*
X138238094Y-59464342D01*
X138238094Y-59464342D02*
X138285713Y-59273866D01*
X138285713Y-59273866D02*
X138285713Y-59035771D01*
X138285713Y-59035771D02*
X138238094Y-58845295D01*
X138238094Y-58845295D02*
X138190475Y-58750057D01*
X138190475Y-58750057D02*
X138142856Y-58702438D01*
X138142856Y-58702438D02*
X138047618Y-58654819D01*
X146833333Y-56054819D02*
X146833333Y-56769104D01*
X146833333Y-56769104D02*
X146880952Y-56911961D01*
X146880952Y-56911961D02*
X146976190Y-57007200D01*
X146976190Y-57007200D02*
X147119047Y-57054819D01*
X147119047Y-57054819D02*
X147214285Y-57054819D01*
X145833333Y-57054819D02*
X146404761Y-57054819D01*
X146119047Y-57054819D02*
X146119047Y-56054819D01*
X146119047Y-56054819D02*
X146214285Y-56197676D01*
X146214285Y-56197676D02*
X146309523Y-56292914D01*
X146309523Y-56292914D02*
X146404761Y-56340533D01*
X146522566Y-120559580D02*
X146570185Y-120607200D01*
X146570185Y-120607200D02*
X146713042Y-120654819D01*
X146713042Y-120654819D02*
X146808280Y-120654819D01*
X146808280Y-120654819D02*
X146951137Y-120607200D01*
X146951137Y-120607200D02*
X147046375Y-120511961D01*
X147046375Y-120511961D02*
X147093994Y-120416723D01*
X147093994Y-120416723D02*
X147141613Y-120226247D01*
X147141613Y-120226247D02*
X147141613Y-120083390D01*
X147141613Y-120083390D02*
X147093994Y-119892914D01*
X147093994Y-119892914D02*
X147046375Y-119797676D01*
X147046375Y-119797676D02*
X146951137Y-119702438D01*
X146951137Y-119702438D02*
X146808280Y-119654819D01*
X146808280Y-119654819D02*
X146713042Y-119654819D01*
X146713042Y-119654819D02*
X146570185Y-119702438D01*
X146570185Y-119702438D02*
X146522566Y-119750057D01*
X145522566Y-120654819D02*
X145855899Y-120178628D01*
X146093994Y-120654819D02*
X146093994Y-119654819D01*
X146093994Y-119654819D02*
X145713042Y-119654819D01*
X145713042Y-119654819D02*
X145617804Y-119702438D01*
X145617804Y-119702438D02*
X145570185Y-119750057D01*
X145570185Y-119750057D02*
X145522566Y-119845295D01*
X145522566Y-119845295D02*
X145522566Y-119988152D01*
X145522566Y-119988152D02*
X145570185Y-120083390D01*
X145570185Y-120083390D02*
X145617804Y-120131009D01*
X145617804Y-120131009D02*
X145713042Y-120178628D01*
X145713042Y-120178628D02*
X146093994Y-120178628D01*
X144665423Y-119988152D02*
X144665423Y-120654819D01*
X144903518Y-119607200D02*
X145141613Y-120321485D01*
X145141613Y-120321485D02*
X144522566Y-120321485D01*
D11*
%TO.C,CR3*%
X146713853Y-100555700D02*
X147532300Y-100555700D01*
X147532300Y-98244300D02*
X146713853Y-98244300D01*
X147532300Y-98737060D02*
X147532300Y-98244300D01*
X147532300Y-100555700D02*
X147532300Y-100062940D01*
%TO.C,CR2*%
X144923600Y-75244300D02*
X144923600Y-75737060D01*
X144923600Y-77062940D02*
X144923600Y-77555700D01*
X144923600Y-77555700D02*
X145742047Y-77555700D01*
X145742047Y-75244300D02*
X144923600Y-75244300D01*
%TO.C,CR1*%
X148202053Y-54555700D02*
X149020500Y-54555700D01*
X149020500Y-52244300D02*
X148202053Y-52244300D01*
X149020500Y-52737060D02*
X149020500Y-52244300D01*
X149020500Y-54555700D02*
X149020500Y-54062940D01*
%TO.C,CR0*%
X137079500Y-55744300D02*
X137079500Y-56237060D01*
X137079500Y-57562940D02*
X137079500Y-58055700D01*
X137079500Y-58055700D02*
X137897947Y-58055700D01*
X137897947Y-55744300D02*
X137079500Y-55744300D01*
D12*
%TO.C,J1*%
X144265000Y-59290000D02*
X145215000Y-59290000D01*
X144265000Y-59740000D02*
X144265000Y-59290000D01*
X144265000Y-63710000D02*
X144265000Y-63260000D01*
X147785000Y-59290000D02*
X147785000Y-57800000D01*
X148735000Y-59290000D02*
X147785000Y-59290000D01*
X148735000Y-59740000D02*
X148735000Y-59290000D01*
X148735000Y-63260000D02*
X148735000Y-63710000D01*
X148735000Y-63710000D02*
X144265000Y-63710000D01*
D11*
%TO.C,CR4*%
X144179500Y-121244300D02*
X144179500Y-121737060D01*
X144179500Y-123062940D02*
X144179500Y-123555700D01*
X144179500Y-123555700D02*
X144997947Y-123555700D01*
X144997947Y-121244300D02*
X144179500Y-121244300D01*
%TD*%
M02*
