M48
; DRILL file {KiCad 9.0.0-rc3} date 2025-06-15T12:45:09-0500
; FORMAT={-:-/ absolute / metric / decimal}
; #@! TF.CreationDate,2025-06-15T12:45:09-05:00
; #@! TF.GenerationSoftware,Kicad,Pcbnew,9.0.0-rc3
; #@! TF.FileFunction,MixedPlating,1,2
FMAT,2
METRIC
; #@! TA.AperFunction,Plated,PTH,ComponentDrill
T1C0.500
; #@! TA.AperFunction,Plated,PTH,ViaDrill
T2C1.000
; #@! TA.AperFunction,Plated,PTH,ComponentDrill
T3C3.200
%
G90
G05
T1
X106.1Y-42.1
X106.1Y-133.7
X106.803Y-40.403
X106.803Y-43.797
X106.803Y-132.003
X106.803Y-135.397
X108.5Y-39.7
X108.5Y-44.5
X108.5Y-131.3
X108.5Y-136.1
X110.197Y-40.403
X110.197Y-43.797
X110.197Y-132.003
X110.197Y-135.397
X110.9Y-42.1
X110.9Y-133.7
X182.3Y-42.1
X182.3Y-133.7
X183.003Y-40.403
X183.003Y-43.797
X183.003Y-132.003
X183.003Y-135.397
X184.7Y-39.7
X184.7Y-44.5
X184.7Y-131.3
X184.7Y-136.1
X186.397Y-40.403
X186.397Y-43.797
X186.397Y-132.003
X186.397Y-135.397
X187.1Y-42.1
X187.1Y-133.7
T2
X117.2Y-53.4
X117.6Y-122.4
X118.4Y-76.4
X118.8Y-99.4
X132.2Y-79.2
X133.0Y-101.8
X158.6Y-51.0
X173.6Y-119.2
T3
X108.5Y-42.1
X108.5Y-133.7
X184.7Y-42.1
X184.7Y-133.7
M30
