%TF.GenerationSoftware,KiCad,Pcbnew,9.0.0-rc3*%
%TF.CreationDate,2025-06-30T09:22:31-05:00*%
%TF.ProjectId,pv_panel,70765f70-616e-4656-9c2e-6b696361645f,rev?*%
%TF.SameCoordinates,Original*%
%TF.FileFunction,Copper,L1,Top*%
%TF.FilePolarity,Positive*%
%FSLAX46Y46*%
G04 Gerber Fmt 4.6, Leading zero omitted, Abs format (unit mm)*
G04 Created by KiCad (PCBNEW 9.0.0-rc3) date 2025-06-30 09:22:31*
%MOMM*%
%LPD*%
G01*
G04 APERTURE LIST*
%TA.AperFunction,SMDPad,CuDef*%
%ADD10C,3.000000*%
%TD*%
%TA.AperFunction,ComponentPad*%
%ADD11C,0.800000*%
%TD*%
%TA.AperFunction,ComponentPad*%
%ADD12C,6.400000*%
%TD*%
%TA.AperFunction,ViaPad*%
%ADD13C,1.500000*%
%TD*%
%TA.AperFunction,Conductor*%
%ADD14C,1.500000*%
%TD*%
G04 APERTURE END LIST*
D10*
%TO.P,PV1,2,-*%
%TO.N,Net-(PV1--)*%
X178600000Y-53400000D03*
%TO.P,PV1,1,+*%
%TO.N,Net-(PV1-+)*%
X114600000Y-53400000D03*
%TD*%
%TO.P,PV4,2,-*%
%TO.N,GND*%
X178600000Y-122400000D03*
%TO.P,PV4,1,+*%
%TO.N,Net-(PV3--)*%
X114600000Y-122400000D03*
%TD*%
%TO.P,PV3,1,+*%
%TO.N,Net-(PV3-+)*%
X114600000Y-99400000D03*
%TO.P,PV3,2,-*%
%TO.N,Net-(PV3--)*%
X178600000Y-99400000D03*
%TD*%
D11*
%TO.P,H1,1*%
%TO.N,N/C*%
X106100000Y-42100000D03*
X106802944Y-40402944D03*
X106802944Y-43797056D03*
X108500000Y-39700000D03*
D12*
X108500000Y-42100000D03*
D11*
X108500000Y-44500000D03*
X110197056Y-40402944D03*
X110197056Y-43797056D03*
X110900000Y-42100000D03*
%TD*%
D10*
%TO.P,VP2,1,+*%
%TO.N,Net-(PV1--)*%
X178600000Y-76400000D03*
%TO.P,VP2,2,-*%
%TO.N,Net-(PV3-+)*%
X114600000Y-76400000D03*
%TD*%
D11*
%TO.P,H4,1*%
%TO.N,N/C*%
X182300000Y-133700000D03*
X183002944Y-132002944D03*
X183002944Y-135397056D03*
X184700000Y-131300000D03*
D12*
X184700000Y-133700000D03*
D11*
X184700000Y-136100000D03*
X186397056Y-132002944D03*
X186397056Y-135397056D03*
X187100000Y-133700000D03*
%TD*%
%TO.P,H3,1*%
%TO.N,N/C*%
X106100000Y-133700000D03*
X106802944Y-132002944D03*
X106802944Y-135397056D03*
X108500000Y-131300000D03*
D12*
X108500000Y-133700000D03*
D11*
X108500000Y-136100000D03*
X110197056Y-132002944D03*
X110197056Y-135397056D03*
X110900000Y-133700000D03*
%TD*%
%TO.P,H2,1*%
%TO.N,N/C*%
X182300000Y-42100000D03*
X183002944Y-40402944D03*
X183002944Y-43797056D03*
X184700000Y-39700000D03*
D12*
X184700000Y-42100000D03*
D11*
X184700000Y-44500000D03*
X186397056Y-40402944D03*
X186397056Y-43797056D03*
X187100000Y-42100000D03*
%TD*%
D13*
%TO.N,GND*%
X154400000Y-57300000D03*
X122100000Y-122300000D03*
%TO.N,Net-(PV1-+)*%
X114500000Y-58100000D03*
%TO.N,Net-(PV3-+)*%
X121200000Y-99400000D03*
X121600000Y-76300000D03*
%TO.N,Net-(PV3--)*%
X170000000Y-99600000D03*
X169400000Y-122200000D03*
%TO.N,Net-(PV1--)*%
X172000000Y-53700000D03*
X173600000Y-76300000D03*
%TD*%
D14*
%TO.N,Net-(PV3--)*%
X178600000Y-99400000D02*
X178600000Y-122400000D01*
%TO.N,Net-(PV3-+)*%
X114600000Y-76400000D02*
X114600000Y-99400000D01*
%TO.N,Net-(PV1--)*%
X178600000Y-53400000D02*
X178600000Y-76400000D01*
%TO.N,GND*%
X154500000Y-57400000D02*
X154400000Y-57300000D01*
X114600000Y-122400000D02*
X122000000Y-122400000D01*
X122000000Y-122400000D02*
X122100000Y-122300000D01*
X154500000Y-82500000D02*
X154500000Y-57500000D01*
X114600000Y-122400000D02*
X154500000Y-82500000D01*
X154500000Y-57500000D02*
X154500000Y-57400000D01*
%TO.N,Net-(PV1-+)*%
X114600000Y-58000000D02*
X114500000Y-58100000D01*
X114600000Y-53400000D02*
X114600000Y-58000000D01*
%TO.N,Net-(PV3-+)*%
X114600000Y-99400000D02*
X121200000Y-99400000D01*
X121600000Y-76300000D02*
X114700000Y-76300000D01*
X114700000Y-76300000D02*
X114600000Y-76400000D01*
X114700000Y-99300000D02*
X114600000Y-99400000D01*
%TO.N,Net-(PV3--)*%
X178600000Y-99400000D02*
X170200000Y-99400000D01*
X169400000Y-122200000D02*
X178400000Y-122200000D01*
X178700000Y-122300000D02*
X178600000Y-122400000D01*
X170200000Y-99400000D02*
X170000000Y-99600000D01*
X178400000Y-122200000D02*
X178600000Y-122400000D01*
%TO.N,Net-(PV1--)*%
X178600000Y-53400000D02*
X172300000Y-53400000D01*
X178500000Y-76300000D02*
X178600000Y-76400000D01*
X173700000Y-76400000D02*
X173600000Y-76300000D01*
X178600000Y-76400000D02*
X173700000Y-76400000D01*
X172300000Y-53400000D02*
X172000000Y-53700000D01*
%TD*%
%TA.AperFunction,Conductor*%
%TO.N,Net-(PV1--)*%
G36*
X177499913Y-75402925D02*
G01*
X177501092Y-75403862D01*
X177912002Y-75776004D01*
X178591424Y-76391328D01*
X178595256Y-76399421D01*
X178592242Y-76407854D01*
X178591424Y-76408672D01*
X177501096Y-77396134D01*
X177492663Y-77399148D01*
X177491162Y-77398976D01*
X176122453Y-77151737D01*
X176114921Y-77146894D01*
X176112833Y-77140223D01*
X176112833Y-75659776D01*
X176116260Y-75651503D01*
X176122452Y-75648262D01*
X177491163Y-75401023D01*
X177499913Y-75402925D01*
G37*
%TD.AperFunction*%
%TD*%
%TA.AperFunction,Conductor*%
%TO.N,Net-(PV1--)*%
G36*
X179348497Y-73916260D02*
G01*
X179351738Y-73922453D01*
X179598976Y-75291162D01*
X179597074Y-75299913D01*
X179596134Y-75301096D01*
X178608672Y-76391424D01*
X178600579Y-76395256D01*
X178592146Y-76392242D01*
X178591328Y-76391424D01*
X177603865Y-75301096D01*
X177600851Y-75292663D01*
X177601023Y-75291162D01*
X177848262Y-73922453D01*
X177853105Y-73914921D01*
X177859776Y-73912833D01*
X179340224Y-73912833D01*
X179348497Y-73916260D01*
G37*
%TD.AperFunction*%
%TD*%
%TA.AperFunction,Conductor*%
%TO.N,Net-(PV3-+)*%
G36*
X115665411Y-75357330D02*
G01*
X117077038Y-75548627D01*
X117084776Y-75553134D01*
X117087167Y-75560221D01*
X117087167Y-77040663D01*
X117083740Y-77048936D01*
X117078063Y-77052071D01*
X115754195Y-77353323D01*
X115745368Y-77351818D01*
X115744124Y-77350916D01*
X114608955Y-76408267D01*
X114604780Y-76400345D01*
X114607429Y-76391791D01*
X114608225Y-76390925D01*
X115655644Y-75360583D01*
X115663943Y-75357225D01*
X115665411Y-75357330D01*
G37*
%TD.AperFunction*%
%TD*%
%TA.AperFunction,Conductor*%
%TO.N,Net-(PV3-+)*%
G36*
X115708832Y-98401022D02*
G01*
X117077547Y-98648262D01*
X117085079Y-98653105D01*
X117087167Y-98659776D01*
X117087167Y-100140223D01*
X117083740Y-100148496D01*
X117077547Y-100151737D01*
X115708837Y-100398976D01*
X115700086Y-100397074D01*
X115698903Y-100396134D01*
X115425468Y-100148496D01*
X114608574Y-99408671D01*
X114604743Y-99400579D01*
X114607757Y-99392146D01*
X114608575Y-99391328D01*
X115698905Y-98403864D01*
X115707336Y-98400851D01*
X115708832Y-98401022D01*
G37*
%TD.AperFunction*%
%TD*%
%TA.AperFunction,Conductor*%
%TO.N,Net-(PV3-+)*%
G36*
X115348497Y-96916260D02*
G01*
X115351738Y-96922453D01*
X115598976Y-98291162D01*
X115597074Y-98299913D01*
X115596134Y-98301096D01*
X114608672Y-99391424D01*
X114600579Y-99395256D01*
X114592146Y-99392242D01*
X114591328Y-99391424D01*
X113603865Y-98301096D01*
X113600851Y-98292663D01*
X113601023Y-98291162D01*
X113848262Y-96922453D01*
X113853105Y-96914921D01*
X113859776Y-96912833D01*
X115340224Y-96912833D01*
X115348497Y-96916260D01*
G37*
%TD.AperFunction*%
%TD*%
%TA.AperFunction,Conductor*%
%TO.N,Net-(PV3-+)*%
G36*
X114607854Y-76407757D02*
G01*
X114608672Y-76408575D01*
X115596134Y-77498903D01*
X115599148Y-77507336D01*
X115598976Y-77508837D01*
X115351738Y-78877547D01*
X115346895Y-78885079D01*
X115340224Y-78887167D01*
X113859776Y-78887167D01*
X113851503Y-78883740D01*
X113848262Y-78877547D01*
X113601023Y-77508837D01*
X113602925Y-77500086D01*
X113603856Y-77498914D01*
X114591328Y-76408574D01*
X114599421Y-76404743D01*
X114607854Y-76407757D01*
G37*
%TD.AperFunction*%
%TD*%
%TA.AperFunction,Conductor*%
%TO.N,Net-(PV3--)*%
G36*
X177499913Y-98402925D02*
G01*
X177501092Y-98403862D01*
X177912002Y-98776004D01*
X178591424Y-99391328D01*
X178595256Y-99399421D01*
X178592242Y-99407854D01*
X178591424Y-99408672D01*
X177501096Y-100396134D01*
X177492663Y-100399148D01*
X177491162Y-100398976D01*
X176122453Y-100151737D01*
X176114921Y-100146894D01*
X176112833Y-100140223D01*
X176112833Y-98659776D01*
X176116260Y-98651503D01*
X176122452Y-98648262D01*
X177491163Y-98401023D01*
X177499913Y-98402925D01*
G37*
%TD.AperFunction*%
%TD*%
%TA.AperFunction,Conductor*%
%TO.N,Net-(PV3--)*%
G36*
X178607854Y-99407757D02*
G01*
X178608672Y-99408575D01*
X179596134Y-100498903D01*
X179599148Y-100507336D01*
X179598976Y-100508837D01*
X179351738Y-101877547D01*
X179346895Y-101885079D01*
X179340224Y-101887167D01*
X177859776Y-101887167D01*
X177851503Y-101883740D01*
X177848262Y-101877547D01*
X177601023Y-100508837D01*
X177602925Y-100500086D01*
X177603856Y-100498914D01*
X178591328Y-99408574D01*
X178599421Y-99404743D01*
X178607854Y-99407757D01*
G37*
%TD.AperFunction*%
%TD*%
%TA.AperFunction,Conductor*%
%TO.N,GND*%
G36*
X181933878Y-39420185D02*
G01*
X181979633Y-39472989D01*
X181989577Y-39542147D01*
X181960552Y-39605703D01*
X181955512Y-39611115D01*
X181954810Y-39611889D01*
X181724150Y-39892950D01*
X181724140Y-39892964D01*
X181522151Y-40195261D01*
X181522140Y-40195279D01*
X181350756Y-40515916D01*
X181350754Y-40515921D01*
X181211614Y-40851834D01*
X181106067Y-41199776D01*
X181106064Y-41199787D01*
X181035137Y-41556369D01*
X180999500Y-41918209D01*
X180999500Y-42281790D01*
X181035137Y-42643630D01*
X181106064Y-43000212D01*
X181106067Y-43000223D01*
X181211614Y-43348165D01*
X181350754Y-43684078D01*
X181350756Y-43684083D01*
X181522140Y-44004720D01*
X181522151Y-44004738D01*
X181724140Y-44307035D01*
X181724150Y-44307049D01*
X181954807Y-44588106D01*
X182211893Y-44845192D01*
X182211898Y-44845196D01*
X182211899Y-44845197D01*
X182492956Y-45075854D01*
X182795268Y-45277853D01*
X182795277Y-45277858D01*
X182795279Y-45277859D01*
X183115916Y-45449243D01*
X183115918Y-45449243D01*
X183115924Y-45449247D01*
X183451836Y-45588386D01*
X183799767Y-45693930D01*
X183799773Y-45693931D01*
X183799776Y-45693932D01*
X183799787Y-45693935D01*
X184156369Y-45764862D01*
X184518206Y-45800500D01*
X184518209Y-45800500D01*
X184881791Y-45800500D01*
X184881794Y-45800500D01*
X185243631Y-45764862D01*
X185313045Y-45751054D01*
X185600212Y-45693935D01*
X185600223Y-45693932D01*
X185600223Y-45693931D01*
X185600233Y-45693930D01*
X185948164Y-45588386D01*
X186284076Y-45449247D01*
X186604732Y-45277853D01*
X186907044Y-45075854D01*
X187188101Y-44845197D01*
X187188106Y-44845192D01*
X187188110Y-44845189D01*
X187190363Y-44843148D01*
X187190939Y-44843783D01*
X187249110Y-44812001D01*
X187318803Y-44816967D01*
X187374747Y-44858823D01*
X187399182Y-44924281D01*
X187399500Y-44933160D01*
X187399500Y-130866839D01*
X187379815Y-130933878D01*
X187327011Y-130979633D01*
X187257853Y-130989577D01*
X187194297Y-130960552D01*
X187188884Y-130955512D01*
X187188110Y-130954810D01*
X186907049Y-130724150D01*
X186907048Y-130724149D01*
X186907044Y-130724146D01*
X186604732Y-130522147D01*
X186604727Y-130522144D01*
X186604720Y-130522140D01*
X186284083Y-130350756D01*
X186284078Y-130350754D01*
X185948165Y-130211614D01*
X185600223Y-130106067D01*
X185600212Y-130106064D01*
X185243630Y-130035137D01*
X184971111Y-130008296D01*
X184881794Y-129999500D01*
X184518206Y-129999500D01*
X184435679Y-130007628D01*
X184156369Y-130035137D01*
X183799787Y-130106064D01*
X183799776Y-130106067D01*
X183451834Y-130211614D01*
X183115921Y-130350754D01*
X183115916Y-130350756D01*
X182795279Y-130522140D01*
X182795261Y-130522151D01*
X182492964Y-130724140D01*
X182492950Y-130724150D01*
X182211893Y-130954807D01*
X181954807Y-131211893D01*
X181724150Y-131492950D01*
X181724140Y-131492964D01*
X181522151Y-131795261D01*
X181522140Y-131795279D01*
X181350756Y-132115916D01*
X181350754Y-132115921D01*
X181211614Y-132451834D01*
X181106067Y-132799776D01*
X181106064Y-132799787D01*
X181035137Y-133156369D01*
X180999500Y-133518209D01*
X180999500Y-133881790D01*
X181035137Y-134243630D01*
X181106064Y-134600212D01*
X181106067Y-134600223D01*
X181211614Y-134948165D01*
X181350754Y-135284078D01*
X181350756Y-135284083D01*
X181522140Y-135604720D01*
X181522151Y-135604738D01*
X181724140Y-135907035D01*
X181724150Y-135907049D01*
X181954810Y-136188110D01*
X181956852Y-136190363D01*
X181956221Y-136190934D01*
X181988005Y-136249142D01*
X181983021Y-136318834D01*
X181941149Y-136374767D01*
X181875685Y-136399184D01*
X181866839Y-136399500D01*
X111333161Y-136399500D01*
X111266122Y-136379815D01*
X111220367Y-136327011D01*
X111210423Y-136257853D01*
X111239448Y-136194297D01*
X111244487Y-136188884D01*
X111245189Y-136188110D01*
X111245193Y-136188104D01*
X111245197Y-136188101D01*
X111475854Y-135907044D01*
X111677853Y-135604732D01*
X111849247Y-135284076D01*
X111988386Y-134948164D01*
X112093930Y-134600233D01*
X112093932Y-134600223D01*
X112093935Y-134600212D01*
X112164862Y-134243630D01*
X112200500Y-133881790D01*
X112200500Y-133518209D01*
X112164862Y-133156369D01*
X112093935Y-132799787D01*
X112093932Y-132799776D01*
X112093931Y-132799773D01*
X112093930Y-132799767D01*
X111988386Y-132451836D01*
X111849247Y-132115924D01*
X111677853Y-131795268D01*
X111475854Y-131492956D01*
X111245197Y-131211899D01*
X111245196Y-131211898D01*
X111245192Y-131211893D01*
X110988106Y-130954807D01*
X110707049Y-130724150D01*
X110707048Y-130724149D01*
X110707044Y-130724146D01*
X110404732Y-130522147D01*
X110404727Y-130522144D01*
X110404720Y-130522140D01*
X110084083Y-130350756D01*
X110084078Y-130350754D01*
X109748165Y-130211614D01*
X109400223Y-130106067D01*
X109400212Y-130106064D01*
X109043630Y-130035137D01*
X108771111Y-130008296D01*
X108681794Y-129999500D01*
X108318206Y-129999500D01*
X108235679Y-130007628D01*
X107956369Y-130035137D01*
X107599787Y-130106064D01*
X107599776Y-130106067D01*
X107251834Y-130211614D01*
X106915921Y-130350754D01*
X106915916Y-130350756D01*
X106595279Y-130522140D01*
X106595261Y-130522151D01*
X106292964Y-130724140D01*
X106292950Y-130724150D01*
X106011889Y-130954810D01*
X106009637Y-130956852D01*
X106009065Y-130956221D01*
X105950858Y-130988005D01*
X105881166Y-130983021D01*
X105825233Y-130941149D01*
X105800816Y-130875685D01*
X105800500Y-130866839D01*
X105800500Y-122268872D01*
X112599500Y-122268872D01*
X112599500Y-122531127D01*
X112619104Y-122680025D01*
X112633730Y-122791116D01*
X112693625Y-123014647D01*
X112701602Y-123044418D01*
X112701605Y-123044428D01*
X112801953Y-123286690D01*
X112801958Y-123286700D01*
X112933075Y-123513803D01*
X113092718Y-123721851D01*
X113092726Y-123721860D01*
X113278140Y-123907274D01*
X113278148Y-123907281D01*
X113486196Y-124066924D01*
X113713299Y-124198041D01*
X113713309Y-124198046D01*
X113955571Y-124298394D01*
X113955581Y-124298398D01*
X114208884Y-124366270D01*
X114457188Y-124398960D01*
X114465074Y-124399999D01*
X114468880Y-124400500D01*
X114468887Y-124400500D01*
X114731113Y-124400500D01*
X114731120Y-124400500D01*
X114991116Y-124366270D01*
X115244419Y-124298398D01*
X115486697Y-124198043D01*
X115713803Y-124066924D01*
X115921851Y-123907282D01*
X115921855Y-123907277D01*
X115921860Y-123907274D01*
X116107274Y-123721860D01*
X116107277Y-123721855D01*
X116107282Y-123721851D01*
X116266924Y-123513803D01*
X116398043Y-123286697D01*
X116498398Y-123044419D01*
X116566270Y-122791116D01*
X116600500Y-122531120D01*
X116600500Y-122268880D01*
X116578474Y-122101577D01*
X168149500Y-122101577D01*
X168149500Y-122298422D01*
X168180290Y-122492826D01*
X168241117Y-122680029D01*
X168297670Y-122791020D01*
X168330476Y-122855405D01*
X168446172Y-123014646D01*
X168585354Y-123153828D01*
X168744595Y-123269524D01*
X168827455Y-123311743D01*
X168919970Y-123358882D01*
X168919972Y-123358882D01*
X168919975Y-123358884D01*
X168955073Y-123370288D01*
X169107173Y-123419709D01*
X169301578Y-123450500D01*
X169301583Y-123450500D01*
X169498417Y-123450500D01*
X176010495Y-123450500D01*
X176043521Y-123454978D01*
X176951347Y-123705837D01*
X177008051Y-123718053D01*
X177151921Y-123719778D01*
X177160799Y-123718610D01*
X177227572Y-123702412D01*
X177265898Y-123693115D01*
X177265899Y-123693114D01*
X177265905Y-123693113D01*
X177375685Y-123634842D01*
X177444125Y-123620799D01*
X177509296Y-123645988D01*
X177550504Y-123702412D01*
X177554664Y-123772158D01*
X177521499Y-123832051D01*
X177373633Y-123979917D01*
X177373633Y-123979918D01*
X177486475Y-124066505D01*
X177486483Y-124066511D01*
X177713517Y-124197590D01*
X177713528Y-124197595D01*
X177955744Y-124297924D01*
X178208979Y-124365777D01*
X178208990Y-124365779D01*
X178468905Y-124399999D01*
X178468920Y-124400000D01*
X178731080Y-124400000D01*
X178731094Y-124399999D01*
X178991009Y-124365779D01*
X178991020Y-124365777D01*
X179244255Y-124297924D01*
X179486471Y-124197595D01*
X179486482Y-124197590D01*
X179713516Y-124066511D01*
X179713534Y-124066499D01*
X179826365Y-123979919D01*
X179826365Y-123979917D01*
X179393146Y-123546699D01*
X179359661Y-123485376D01*
X179364645Y-123415685D01*
X179394207Y-123370288D01*
X179400652Y-123363996D01*
X179414646Y-123353829D01*
X179553829Y-123214646D01*
X179553831Y-123214642D01*
X179573332Y-123195140D01*
X179634655Y-123161656D01*
X179704347Y-123166640D01*
X179748694Y-123195141D01*
X180179917Y-123626365D01*
X180179919Y-123626365D01*
X180266499Y-123513534D01*
X180266511Y-123513516D01*
X180397590Y-123286482D01*
X180397595Y-123286471D01*
X180497924Y-123044255D01*
X180565777Y-122791020D01*
X180565779Y-122791009D01*
X180599999Y-122531094D01*
X180600000Y-122531080D01*
X180600000Y-122268919D01*
X180599999Y-122268905D01*
X180565779Y-122008990D01*
X180565777Y-122008979D01*
X180497924Y-121755744D01*
X180397595Y-121513528D01*
X180397590Y-121513517D01*
X180266511Y-121286483D01*
X180266505Y-121286475D01*
X180179918Y-121173633D01*
X180152374Y-121171828D01*
X180086765Y-121147800D01*
X180044562Y-121092117D01*
X180038077Y-121028283D01*
X180041048Y-121009930D01*
X180035882Y-120866142D01*
X179852475Y-119850795D01*
X179850500Y-119828755D01*
X179850500Y-101971243D01*
X179852475Y-101949201D01*
X179970033Y-101298397D01*
X180059980Y-100800445D01*
X180091268Y-100737974D01*
X180094282Y-100734849D01*
X180107282Y-100721851D01*
X180266924Y-100513803D01*
X180398043Y-100286697D01*
X180498398Y-100044419D01*
X180566270Y-99791116D01*
X180600500Y-99531120D01*
X180600500Y-99268880D01*
X180566270Y-99008884D01*
X180498398Y-98755581D01*
X180498394Y-98755571D01*
X180398046Y-98513309D01*
X180398041Y-98513299D01*
X180266924Y-98286196D01*
X180107281Y-98078148D01*
X180107274Y-98078140D01*
X179921860Y-97892726D01*
X179921851Y-97892718D01*
X179713803Y-97733075D01*
X179486700Y-97601958D01*
X179486690Y-97601953D01*
X179244428Y-97501605D01*
X179244421Y-97501603D01*
X179244419Y-97501602D01*
X178991116Y-97433730D01*
X178933339Y-97426123D01*
X178731127Y-97399500D01*
X178731120Y-97399500D01*
X178468880Y-97399500D01*
X178468872Y-97399500D01*
X178237772Y-97429926D01*
X178208884Y-97433730D01*
X177955581Y-97501602D01*
X177955571Y-97501605D01*
X177713309Y-97601953D01*
X177713299Y-97601958D01*
X177486201Y-97733072D01*
X177278147Y-97892719D01*
X177278146Y-97892719D01*
X177265190Y-97905676D01*
X177203866Y-97939159D01*
X177199554Y-97940017D01*
X176050798Y-98147525D01*
X176028756Y-98149500D01*
X170101583Y-98149500D01*
X170082641Y-98152499D01*
X170082642Y-98152500D01*
X169907172Y-98180291D01*
X169719969Y-98241117D01*
X169544594Y-98330476D01*
X169453742Y-98396484D01*
X169385355Y-98446171D01*
X169385353Y-98446173D01*
X169385352Y-98446173D01*
X169046174Y-98785351D01*
X169046174Y-98785352D01*
X169046172Y-98785354D01*
X168996485Y-98853741D01*
X168930476Y-98944594D01*
X168841117Y-99119969D01*
X168780290Y-99307173D01*
X168749500Y-99501577D01*
X168749500Y-99698422D01*
X168780290Y-99892826D01*
X168841117Y-100080030D01*
X168909708Y-100214646D01*
X168930476Y-100255405D01*
X169046172Y-100414646D01*
X169185354Y-100553828D01*
X169344595Y-100669524D01*
X169427454Y-100711742D01*
X169519969Y-100758882D01*
X169519971Y-100758882D01*
X169519974Y-100758884D01*
X169620318Y-100791487D01*
X169707173Y-100819709D01*
X169901578Y-100850500D01*
X169901583Y-100850500D01*
X170098422Y-100850500D01*
X170292826Y-100819709D01*
X170352108Y-100800447D01*
X170480026Y-100758884D01*
X170655405Y-100669524D01*
X170655411Y-100669519D01*
X170656629Y-100668774D01*
X170657183Y-100668617D01*
X170659746Y-100667312D01*
X170660005Y-100667821D01*
X170721421Y-100650500D01*
X176028761Y-100650500D01*
X176050802Y-100652474D01*
X177064442Y-100835575D01*
X177126913Y-100866862D01*
X177162553Y-100926958D01*
X177164423Y-100935557D01*
X177347525Y-101949202D01*
X177349500Y-101971244D01*
X177349500Y-119828753D01*
X177347525Y-119850795D01*
X177184638Y-120752528D01*
X177153350Y-120815001D01*
X177093254Y-120850641D01*
X177073983Y-120853964D01*
X176078222Y-120945651D01*
X176054509Y-120948571D01*
X176039359Y-120949500D01*
X169301578Y-120949500D01*
X169107173Y-120980290D01*
X168919970Y-121041117D01*
X168744594Y-121130476D01*
X168653741Y-121196485D01*
X168585354Y-121246172D01*
X168585352Y-121246174D01*
X168585351Y-121246174D01*
X168446174Y-121385351D01*
X168446174Y-121385352D01*
X168446172Y-121385354D01*
X168396485Y-121453741D01*
X168330476Y-121544594D01*
X168241117Y-121719970D01*
X168180290Y-121907173D01*
X168149500Y-122101577D01*
X116578474Y-122101577D01*
X116566270Y-122008884D01*
X116498398Y-121755581D01*
X116498394Y-121755571D01*
X116398046Y-121513309D01*
X116398041Y-121513299D01*
X116266924Y-121286196D01*
X116107281Y-121078148D01*
X116107274Y-121078140D01*
X115921860Y-120892726D01*
X115921851Y-120892718D01*
X115713803Y-120733075D01*
X115486700Y-120601958D01*
X115486690Y-120601953D01*
X115244428Y-120501605D01*
X115244421Y-120501603D01*
X115244419Y-120501602D01*
X114991116Y-120433730D01*
X114933339Y-120426123D01*
X114731127Y-120399500D01*
X114731120Y-120399500D01*
X114468880Y-120399500D01*
X114468872Y-120399500D01*
X114237772Y-120429926D01*
X114208884Y-120433730D01*
X113955581Y-120501602D01*
X113955571Y-120501605D01*
X113713309Y-120601953D01*
X113713299Y-120601958D01*
X113486196Y-120733075D01*
X113278148Y-120892718D01*
X113092718Y-121078148D01*
X112933075Y-121286196D01*
X112801958Y-121513299D01*
X112801953Y-121513309D01*
X112701605Y-121755571D01*
X112701602Y-121755581D01*
X112633730Y-122008884D01*
X112633716Y-122008990D01*
X112599500Y-122268872D01*
X105800500Y-122268872D01*
X105800500Y-76268872D01*
X112599500Y-76268872D01*
X112599500Y-76531127D01*
X112626123Y-76733339D01*
X112633730Y-76791116D01*
X112677751Y-76955405D01*
X112701602Y-77044418D01*
X112701605Y-77044428D01*
X112801953Y-77286690D01*
X112801958Y-77286700D01*
X112933075Y-77513803D01*
X113092718Y-77721851D01*
X113092726Y-77721860D01*
X113105673Y-77734807D01*
X113139158Y-77796130D01*
X113140017Y-77800446D01*
X113347525Y-78949202D01*
X113349500Y-78971244D01*
X113349500Y-96828754D01*
X113347525Y-96850796D01*
X113140017Y-97999554D01*
X113108729Y-98062027D01*
X113105676Y-98065190D01*
X113092719Y-98078146D01*
X113092719Y-98078147D01*
X112933072Y-98286201D01*
X112801958Y-98513299D01*
X112801953Y-98513309D01*
X112701605Y-98755571D01*
X112701602Y-98755581D01*
X112650957Y-98944594D01*
X112633730Y-99008885D01*
X112599500Y-99268872D01*
X112599500Y-99531127D01*
X112621526Y-99698422D01*
X112633730Y-99791116D01*
X112657553Y-99880025D01*
X112701602Y-100044418D01*
X112701605Y-100044428D01*
X112801953Y-100286690D01*
X112801958Y-100286700D01*
X112933075Y-100513803D01*
X113092718Y-100721851D01*
X113092726Y-100721860D01*
X113278140Y-100907274D01*
X113278148Y-100907281D01*
X113278149Y-100907282D01*
X113326554Y-100944424D01*
X113486196Y-101066924D01*
X113713299Y-101198041D01*
X113713309Y-101198046D01*
X113955571Y-101298394D01*
X113955581Y-101298398D01*
X114208884Y-101366270D01*
X114468880Y-101400500D01*
X114468887Y-101400500D01*
X114731113Y-101400500D01*
X114731120Y-101400500D01*
X114991116Y-101366270D01*
X115244419Y-101298398D01*
X115486697Y-101198043D01*
X115713803Y-101066924D01*
X115921851Y-100907282D01*
X115934805Y-100894326D01*
X115996123Y-100860840D01*
X116000413Y-100859986D01*
X117149197Y-100652474D01*
X117171239Y-100650500D01*
X121298422Y-100650500D01*
X121492826Y-100619709D01*
X121680025Y-100558884D01*
X121855405Y-100469524D01*
X122014646Y-100353828D01*
X122153828Y-100214646D01*
X122269524Y-100055405D01*
X122358884Y-99880025D01*
X122419709Y-99692826D01*
X122450500Y-99498422D01*
X122450500Y-99301577D01*
X122419709Y-99107173D01*
X122387772Y-99008884D01*
X122358884Y-98919975D01*
X122358882Y-98919972D01*
X122358882Y-98919970D01*
X122311743Y-98827455D01*
X122269524Y-98744595D01*
X122153828Y-98585354D01*
X122014646Y-98446172D01*
X121855405Y-98330476D01*
X121680029Y-98241117D01*
X121492826Y-98180290D01*
X121298422Y-98149500D01*
X121298417Y-98149500D01*
X117171244Y-98149500D01*
X117149202Y-98147525D01*
X116135557Y-97964423D01*
X116073084Y-97933135D01*
X116037444Y-97873039D01*
X116035578Y-97864459D01*
X115852475Y-96850796D01*
X115850500Y-96828755D01*
X115850500Y-78971243D01*
X115852475Y-78949201D01*
X116045084Y-77882908D01*
X116076371Y-77820439D01*
X116136467Y-77784799D01*
X116139535Y-77784059D01*
X117152343Y-77553590D01*
X117179856Y-77550500D01*
X121698422Y-77550500D01*
X121892826Y-77519709D01*
X122080025Y-77458884D01*
X122255405Y-77369524D01*
X122414646Y-77253828D01*
X122553828Y-77114646D01*
X122669524Y-76955405D01*
X122758884Y-76780025D01*
X122819709Y-76592826D01*
X122829482Y-76531120D01*
X122850500Y-76398422D01*
X122850500Y-76201577D01*
X122819709Y-76007173D01*
X122758882Y-75819970D01*
X122669523Y-75644594D01*
X122553828Y-75485354D01*
X122414646Y-75346172D01*
X122255405Y-75230476D01*
X122080029Y-75141117D01*
X121892826Y-75080290D01*
X121698422Y-75049500D01*
X121698417Y-75049500D01*
X117166324Y-75049500D01*
X117149384Y-75047745D01*
X117149309Y-75048301D01*
X117144921Y-75047706D01*
X117144920Y-75047706D01*
X115937500Y-74884081D01*
X115878667Y-74859581D01*
X115713803Y-74733076D01*
X115713798Y-74733072D01*
X115486700Y-74601958D01*
X115486690Y-74601953D01*
X115244428Y-74501605D01*
X115244421Y-74501603D01*
X115244419Y-74501602D01*
X114991116Y-74433730D01*
X114933339Y-74426123D01*
X114731127Y-74399500D01*
X114731120Y-74399500D01*
X114468880Y-74399500D01*
X114468872Y-74399500D01*
X114237772Y-74429926D01*
X114208884Y-74433730D01*
X113955581Y-74501602D01*
X113955571Y-74501605D01*
X113713309Y-74601953D01*
X113713299Y-74601958D01*
X113486196Y-74733075D01*
X113278148Y-74892718D01*
X113092718Y-75078148D01*
X112933075Y-75286196D01*
X112801958Y-75513299D01*
X112801953Y-75513309D01*
X112701605Y-75755571D01*
X112701602Y-75755581D01*
X112634189Y-76007173D01*
X112633730Y-76008885D01*
X112599500Y-76268872D01*
X105800500Y-76268872D01*
X105800500Y-53268872D01*
X112599500Y-53268872D01*
X112599500Y-53531127D01*
X112626123Y-53733339D01*
X112633730Y-53791116D01*
X112635688Y-53798422D01*
X112701602Y-54044418D01*
X112701605Y-54044428D01*
X112801953Y-54286690D01*
X112801958Y-54286700D01*
X112933075Y-54513803D01*
X113092718Y-54721851D01*
X113092726Y-54721860D01*
X113105673Y-54734807D01*
X113139158Y-54796130D01*
X113140017Y-54800446D01*
X113347525Y-55949202D01*
X113349500Y-55971244D01*
X113349500Y-57575067D01*
X113341559Y-57614996D01*
X113342621Y-57615341D01*
X113280291Y-57807169D01*
X113280291Y-57807172D01*
X113249500Y-58001577D01*
X113249500Y-58198422D01*
X113280290Y-58392826D01*
X113341117Y-58580030D01*
X113430476Y-58755405D01*
X113546172Y-58914646D01*
X113685354Y-59053828D01*
X113844595Y-59169524D01*
X113927454Y-59211742D01*
X114019969Y-59258882D01*
X114019971Y-59258882D01*
X114019974Y-59258884D01*
X114120318Y-59291487D01*
X114207173Y-59319709D01*
X114401578Y-59350500D01*
X114401583Y-59350500D01*
X114598422Y-59350500D01*
X114792826Y-59319709D01*
X114980026Y-59258884D01*
X115155405Y-59169524D01*
X115314646Y-59053828D01*
X115553828Y-58814646D01*
X115669524Y-58655406D01*
X115756678Y-58484352D01*
X115758582Y-58480953D01*
X115819709Y-58292826D01*
X115850500Y-58098422D01*
X115850500Y-55971243D01*
X115852475Y-55949201D01*
X116059980Y-54800445D01*
X116091268Y-54737974D01*
X116094282Y-54734849D01*
X116107282Y-54721851D01*
X116266924Y-54513803D01*
X116398043Y-54286697D01*
X116498398Y-54044419D01*
X116566270Y-53791116D01*
X116591224Y-53601577D01*
X170749500Y-53601577D01*
X170749500Y-53798422D01*
X170780290Y-53992826D01*
X170841117Y-54180030D01*
X170895469Y-54286700D01*
X170930476Y-54355405D01*
X171046172Y-54514646D01*
X171185354Y-54653828D01*
X171344595Y-54769524D01*
X171405285Y-54800447D01*
X171519976Y-54858885D01*
X171650705Y-54901361D01*
X171678939Y-54910535D01*
X171707173Y-54919709D01*
X171901578Y-54950500D01*
X171901583Y-54950500D01*
X172098422Y-54950500D01*
X172292826Y-54919709D01*
X172349295Y-54901361D01*
X172480026Y-54858884D01*
X172655405Y-54769524D01*
X172786631Y-54674181D01*
X172852438Y-54650702D01*
X172859517Y-54650500D01*
X176028761Y-54650500D01*
X176050802Y-54652474D01*
X177064442Y-54835575D01*
X177126913Y-54866862D01*
X177162553Y-54926958D01*
X177164423Y-54935557D01*
X177347525Y-55949202D01*
X177349500Y-55971244D01*
X177349500Y-73828754D01*
X177347525Y-73850796D01*
X177164423Y-74864440D01*
X177133135Y-74926913D01*
X177073039Y-74962553D01*
X177064440Y-74964423D01*
X176423002Y-75080291D01*
X176086278Y-75141116D01*
X176050798Y-75147525D01*
X176028756Y-75149500D01*
X174124932Y-75149500D01*
X174085004Y-75141556D01*
X174084659Y-75142621D01*
X173892828Y-75080291D01*
X173698422Y-75049500D01*
X173698417Y-75049500D01*
X173501583Y-75049500D01*
X173501578Y-75049500D01*
X173307173Y-75080290D01*
X173119969Y-75141117D01*
X172944594Y-75230476D01*
X172867903Y-75286196D01*
X172785354Y-75346172D01*
X172785352Y-75346174D01*
X172785351Y-75346174D01*
X172646174Y-75485351D01*
X172646174Y-75485352D01*
X172646172Y-75485354D01*
X172596485Y-75553741D01*
X172530476Y-75644594D01*
X172441117Y-75819969D01*
X172380290Y-76007173D01*
X172349500Y-76201577D01*
X172349500Y-76398422D01*
X172380290Y-76592826D01*
X172441117Y-76780030D01*
X172530476Y-76955405D01*
X172646172Y-77114646D01*
X172885354Y-77353828D01*
X173044594Y-77469524D01*
X173093772Y-77494581D01*
X173219975Y-77558884D01*
X173342497Y-77598694D01*
X173407173Y-77619709D01*
X173462718Y-77628506D01*
X173601578Y-77650500D01*
X173601583Y-77650500D01*
X176028761Y-77650500D01*
X176050802Y-77652474D01*
X177199552Y-77859980D01*
X177262024Y-77891268D01*
X177265190Y-77894324D01*
X177278140Y-77907274D01*
X177278148Y-77907281D01*
X177486196Y-78066924D01*
X177713299Y-78198041D01*
X177713309Y-78198046D01*
X177955571Y-78298394D01*
X177955581Y-78298398D01*
X178208884Y-78366270D01*
X178468880Y-78400500D01*
X178468887Y-78400500D01*
X178731113Y-78400500D01*
X178731120Y-78400500D01*
X178991116Y-78366270D01*
X179244419Y-78298398D01*
X179486697Y-78198043D01*
X179713803Y-78066924D01*
X179921851Y-77907282D01*
X179921855Y-77907277D01*
X179921860Y-77907274D01*
X180107274Y-77721860D01*
X180107277Y-77721855D01*
X180107282Y-77721851D01*
X180266924Y-77513803D01*
X180398043Y-77286697D01*
X180498398Y-77044419D01*
X180566270Y-76791116D01*
X180600500Y-76531120D01*
X180600500Y-76268880D01*
X180566270Y-76008884D01*
X180498398Y-75755581D01*
X180452426Y-75644594D01*
X180398046Y-75513309D01*
X180398041Y-75513299D01*
X180266924Y-75286196D01*
X180144424Y-75126554D01*
X180107282Y-75078149D01*
X180107281Y-75078148D01*
X180107274Y-75078140D01*
X180094324Y-75065190D01*
X180060839Y-75003867D01*
X180059980Y-74999551D01*
X180050871Y-74949126D01*
X179852475Y-73850796D01*
X179850500Y-73828755D01*
X179850500Y-55971243D01*
X179852475Y-55949201D01*
X180059980Y-54800445D01*
X180091268Y-54737974D01*
X180094282Y-54734849D01*
X180107282Y-54721851D01*
X180266924Y-54513803D01*
X180398043Y-54286697D01*
X180498398Y-54044419D01*
X180566270Y-53791116D01*
X180600500Y-53531120D01*
X180600500Y-53268880D01*
X180566270Y-53008884D01*
X180498398Y-52755581D01*
X180498394Y-52755571D01*
X180398046Y-52513309D01*
X180398041Y-52513299D01*
X180266924Y-52286196D01*
X180107281Y-52078148D01*
X180107274Y-52078140D01*
X179921860Y-51892726D01*
X179921851Y-51892718D01*
X179713803Y-51733075D01*
X179486700Y-51601958D01*
X179486690Y-51601953D01*
X179244428Y-51501605D01*
X179244421Y-51501603D01*
X179244419Y-51501602D01*
X178991116Y-51433730D01*
X178933339Y-51426123D01*
X178731127Y-51399500D01*
X178731120Y-51399500D01*
X178468880Y-51399500D01*
X178468872Y-51399500D01*
X178237772Y-51429926D01*
X178208884Y-51433730D01*
X177955581Y-51501602D01*
X177955571Y-51501605D01*
X177713309Y-51601953D01*
X177713299Y-51601958D01*
X177486201Y-51733072D01*
X177278147Y-51892719D01*
X177278146Y-51892719D01*
X177265190Y-51905676D01*
X177203866Y-51939159D01*
X177199554Y-51940017D01*
X176050798Y-52147525D01*
X176028756Y-52149500D01*
X172201578Y-52149500D01*
X172007173Y-52180290D01*
X171819969Y-52241117D01*
X171644594Y-52330476D01*
X171553741Y-52396485D01*
X171485354Y-52446172D01*
X171485352Y-52446174D01*
X171485351Y-52446174D01*
X171046174Y-52885351D01*
X171046174Y-52885352D01*
X171046172Y-52885354D01*
X170996485Y-52953741D01*
X170930476Y-53044594D01*
X170841117Y-53219969D01*
X170780290Y-53407173D01*
X170749500Y-53601577D01*
X116591224Y-53601577D01*
X116600500Y-53531120D01*
X116600500Y-53268880D01*
X116566270Y-53008884D01*
X116498398Y-52755581D01*
X116498394Y-52755571D01*
X116398046Y-52513309D01*
X116398041Y-52513299D01*
X116266924Y-52286196D01*
X116107281Y-52078148D01*
X116107274Y-52078140D01*
X115921860Y-51892726D01*
X115921851Y-51892718D01*
X115713803Y-51733075D01*
X115486700Y-51601958D01*
X115486690Y-51601953D01*
X115244428Y-51501605D01*
X115244421Y-51501603D01*
X115244419Y-51501602D01*
X114991116Y-51433730D01*
X114933339Y-51426123D01*
X114731127Y-51399500D01*
X114731120Y-51399500D01*
X114468880Y-51399500D01*
X114468872Y-51399500D01*
X114237772Y-51429926D01*
X114208884Y-51433730D01*
X113955581Y-51501602D01*
X113955571Y-51501605D01*
X113713309Y-51601953D01*
X113713299Y-51601958D01*
X113486196Y-51733075D01*
X113278148Y-51892718D01*
X113092718Y-52078148D01*
X112933075Y-52286196D01*
X112801958Y-52513299D01*
X112801953Y-52513309D01*
X112701605Y-52755571D01*
X112701602Y-52755581D01*
X112666831Y-52885351D01*
X112633730Y-53008885D01*
X112599500Y-53268872D01*
X105800500Y-53268872D01*
X105800500Y-44933160D01*
X105820185Y-44866121D01*
X105872989Y-44820366D01*
X105942147Y-44810422D01*
X106005703Y-44839447D01*
X106011133Y-44844504D01*
X106011889Y-44845189D01*
X106011899Y-44845197D01*
X106292956Y-45075854D01*
X106595268Y-45277853D01*
X106595277Y-45277858D01*
X106595279Y-45277859D01*
X106915916Y-45449243D01*
X106915918Y-45449243D01*
X106915924Y-45449247D01*
X107251836Y-45588386D01*
X107599767Y-45693930D01*
X107599773Y-45693931D01*
X107599776Y-45693932D01*
X107599787Y-45693935D01*
X107956369Y-45764862D01*
X108318206Y-45800500D01*
X108318209Y-45800500D01*
X108681791Y-45800500D01*
X108681794Y-45800500D01*
X109043631Y-45764862D01*
X109113045Y-45751054D01*
X109400212Y-45693935D01*
X109400223Y-45693932D01*
X109400223Y-45693931D01*
X109400233Y-45693930D01*
X109748164Y-45588386D01*
X110084076Y-45449247D01*
X110404732Y-45277853D01*
X110707044Y-45075854D01*
X110988101Y-44845197D01*
X111245197Y-44588101D01*
X111475854Y-44307044D01*
X111677853Y-44004732D01*
X111849247Y-43684076D01*
X111988386Y-43348164D01*
X112093930Y-43000233D01*
X112093932Y-43000223D01*
X112093935Y-43000212D01*
X112164862Y-42643630D01*
X112200500Y-42281790D01*
X112200500Y-41918209D01*
X112164862Y-41556369D01*
X112093935Y-41199787D01*
X112093932Y-41199776D01*
X112093931Y-41199773D01*
X112093930Y-41199767D01*
X111988386Y-40851836D01*
X111849247Y-40515924D01*
X111677853Y-40195268D01*
X111475854Y-39892956D01*
X111245197Y-39611899D01*
X111245189Y-39611889D01*
X111243148Y-39609637D01*
X111243778Y-39609065D01*
X111211995Y-39550858D01*
X111216979Y-39481166D01*
X111258851Y-39425233D01*
X111324315Y-39400816D01*
X111333161Y-39400500D01*
X181866839Y-39400500D01*
X181933878Y-39420185D01*
G37*
%TD.AperFunction*%
%TD*%
%TA.AperFunction,Conductor*%
%TO.N,Net-(PV3--)*%
G36*
X179348497Y-119916260D02*
G01*
X179351738Y-119922453D01*
X179538433Y-120955999D01*
X179536531Y-120964750D01*
X179528999Y-120969593D01*
X179521069Y-120968211D01*
X179353726Y-120871595D01*
X179353721Y-120871592D01*
X179147790Y-120786293D01*
X179147779Y-120786289D01*
X178932461Y-120728595D01*
X178711457Y-120699500D01*
X178488543Y-120699500D01*
X178267538Y-120728595D01*
X178052220Y-120786289D01*
X178052209Y-120786293D01*
X177846282Y-120871591D01*
X177846277Y-120871593D01*
X177846274Y-120871595D01*
X177730391Y-120938500D01*
X177678929Y-120968212D01*
X177670051Y-120969380D01*
X177662946Y-120963929D01*
X177661565Y-120956002D01*
X177848262Y-119922452D01*
X177853105Y-119914921D01*
X177859776Y-119912833D01*
X179340224Y-119912833D01*
X179348497Y-119916260D01*
G37*
%TD.AperFunction*%
%TD*%
%TA.AperFunction,Conductor*%
%TO.N,Net-(PV3--)*%
G36*
X177248902Y-121348939D02*
G01*
X177253073Y-121356863D01*
X177250704Y-121365058D01*
X177183058Y-121453217D01*
X177183044Y-121453237D01*
X177071595Y-121646273D01*
X177071592Y-121646278D01*
X176986293Y-121852209D01*
X176986289Y-121852220D01*
X176928595Y-122067538D01*
X176899500Y-122288543D01*
X176899500Y-122511456D01*
X176928595Y-122732461D01*
X176986289Y-122947779D01*
X176986293Y-122947790D01*
X176988191Y-122952371D01*
X177071595Y-123153726D01*
X177093269Y-123191267D01*
X177099146Y-123201446D01*
X177100314Y-123210324D01*
X177094863Y-123217429D01*
X177085985Y-123218597D01*
X177085897Y-123218573D01*
X176122545Y-122952371D01*
X176115483Y-122946865D01*
X176113961Y-122941094D01*
X176113961Y-121460672D01*
X176117388Y-121452399D01*
X176124586Y-121449021D01*
X177240349Y-121346285D01*
X177248902Y-121348939D01*
G37*
%TD.AperFunction*%
%TD*%
%TA.AperFunction,Conductor*%
%TO.N,Net-(PV1--)*%
G36*
X177499913Y-52402925D02*
G01*
X177501092Y-52403862D01*
X177912002Y-52776004D01*
X178591424Y-53391328D01*
X178595256Y-53399421D01*
X178592242Y-53407854D01*
X178591424Y-53408672D01*
X177501096Y-54396134D01*
X177492663Y-54399148D01*
X177491162Y-54398976D01*
X176122453Y-54151737D01*
X176114921Y-54146894D01*
X176112833Y-54140223D01*
X176112833Y-52659776D01*
X176116260Y-52651503D01*
X176122452Y-52648262D01*
X177491163Y-52401023D01*
X177499913Y-52402925D01*
G37*
%TD.AperFunction*%
%TD*%
%TA.AperFunction,Conductor*%
%TO.N,Net-(PV1-+)*%
G36*
X114607854Y-53407757D02*
G01*
X114608672Y-53408575D01*
X115596134Y-54498903D01*
X115599148Y-54507336D01*
X115598976Y-54508837D01*
X115351738Y-55877547D01*
X115346895Y-55885079D01*
X115340224Y-55887167D01*
X113859776Y-55887167D01*
X113851503Y-55883740D01*
X113848262Y-55877547D01*
X113601023Y-54508837D01*
X113602925Y-54500086D01*
X113603856Y-54498914D01*
X114591328Y-53408574D01*
X114599421Y-53404743D01*
X114607854Y-53407757D01*
G37*
%TD.AperFunction*%
%TD*%
%TA.AperFunction,Conductor*%
%TO.N,Net-(PV1--)*%
G36*
X178607854Y-53407757D02*
G01*
X178608672Y-53408575D01*
X179596134Y-54498903D01*
X179599148Y-54507336D01*
X179598976Y-54508837D01*
X179351738Y-55877547D01*
X179346895Y-55885079D01*
X179340224Y-55887167D01*
X177859776Y-55887167D01*
X177851503Y-55883740D01*
X177848262Y-55877547D01*
X177601023Y-54508837D01*
X177602925Y-54500086D01*
X177603856Y-54498914D01*
X178591328Y-53408574D01*
X178599421Y-53404743D01*
X178607854Y-53407757D01*
G37*
%TD.AperFunction*%
%TD*%
M02*
