%TF.GenerationSoftware,KiCad,Pcbnew,9.0.0-rc3*%
%TF.CreationDate,2025-06-30T09:22:31-05:00*%
%TF.ProjectId,pv_panel,70765f70-616e-4656-9c2e-6b696361645f,rev?*%
%TF.SameCoordinates,Original*%
%TF.FileFunction,Soldermask,Bot*%
%TF.FilePolarity,Negative*%
%FSLAX46Y46*%
G04 Gerber Fmt 4.6, Leading zero omitted, Abs format (unit mm)*
G04 Created by KiCad (PCBNEW 9.0.0-rc3) date 2025-06-30 09:22:31*
%MOMM*%
%LPD*%
G01*
G04 APERTURE LIST*
G04 Aperture macros list*
%AMRoundRect*
0 Rectangle with rounded corners*
0 $1 Rounding radius*
0 $2 $3 $4 $5 $6 $7 $8 $9 X,Y pos of 4 corners*
0 Add a 4 corners polygon primitive as box body*
4,1,4,$2,$3,$4,$5,$6,$7,$8,$9,$2,$3,0*
0 Add four circle primitives for the rounded corners*
1,1,$1+$1,$2,$3*
1,1,$1+$1,$4,$5*
1,1,$1+$1,$6,$7*
1,1,$1+$1,$8,$9*
0 Add four rect primitives between the rounded corners*
20,1,$1+$1,$2,$3,$4,$5,0*
20,1,$1+$1,$4,$5,$6,$7,0*
20,1,$1+$1,$6,$7,$8,$9,0*
20,1,$1+$1,$8,$9,$2,$3,0*%
G04 Aperture macros list end*
%ADD10C,0.800000*%
%ADD11C,6.400000*%
%ADD12R,0.838200X0.660400*%
%ADD13R,2.641600X1.955800*%
%ADD14RoundRect,0.200000X0.200000X0.600000X-0.200000X0.600000X-0.200000X-0.600000X0.200000X-0.600000X0*%
%ADD15RoundRect,0.250001X0.799999X1.249999X-0.799999X1.249999X-0.799999X-1.249999X0.799999X-1.249999X0*%
G04 APERTURE END LIST*
D10*
%TO.C,H1*%
X106100000Y-42100000D03*
X106802944Y-40402944D03*
X106802944Y-43797056D03*
X108500000Y-39700000D03*
D11*
X108500000Y-42100000D03*
D10*
X108500000Y-44500000D03*
X110197056Y-40402944D03*
X110197056Y-43797056D03*
X110900000Y-42100000D03*
%TD*%
%TO.C,H4*%
X182300000Y-133700000D03*
X183002944Y-132002944D03*
X183002944Y-135397056D03*
X184700000Y-131300000D03*
D11*
X184700000Y-133700000D03*
D10*
X184700000Y-136100000D03*
X186397056Y-132002944D03*
X186397056Y-135397056D03*
X187100000Y-133700000D03*
%TD*%
%TO.C,H3*%
X106100000Y-133700000D03*
X106802944Y-132002944D03*
X106802944Y-135397056D03*
X108500000Y-131300000D03*
D11*
X108500000Y-133700000D03*
D10*
X108500000Y-136100000D03*
X110197056Y-132002944D03*
X110197056Y-135397056D03*
X110900000Y-133700000D03*
%TD*%
%TO.C,H2*%
X182300000Y-42100000D03*
X183002944Y-40402944D03*
X183002944Y-43797056D03*
X184700000Y-39700000D03*
D11*
X184700000Y-42100000D03*
D10*
X184700000Y-44500000D03*
X186397056Y-40402944D03*
X186397056Y-43797056D03*
X187100000Y-42100000D03*
%TD*%
D12*
%TO.C,CR3*%
X147502000Y-99400000D03*
D13*
X145111800Y-99400000D03*
%TD*%
D12*
%TO.C,CR2*%
X144953900Y-76400000D03*
D13*
X147344100Y-76400000D03*
%TD*%
D12*
%TO.C,CR1*%
X148990200Y-53400000D03*
D13*
X146600000Y-53400000D03*
%TD*%
D12*
%TO.C,CR0*%
X137109800Y-56900000D03*
D13*
X139500000Y-56900000D03*
%TD*%
D14*
%TO.C,J1*%
X147125000Y-58600000D03*
X145875000Y-58600000D03*
D15*
X149675000Y-61500000D03*
X143325000Y-61500000D03*
%TD*%
D12*
%TO.C,CR4*%
X144209800Y-122400000D03*
D13*
X146600000Y-122400000D03*
%TD*%
M02*
