%TF.GenerationSoftware,KiCad,Pcbnew,9.0.0-rc3*%
%TF.CreationDate,2025-06-30T09:22:31-05:00*%
%TF.ProjectId,pv_panel,70765f70-616e-4656-9c2e-6b696361645f,rev?*%
%TF.SameCoordinates,Original*%
%TF.FileFunction,Soldermask,Top*%
%TF.FilePolarity,Negative*%
%FSLAX46Y46*%
G04 Gerber Fmt 4.6, Leading zero omitted, Abs format (unit mm)*
G04 Created by KiCad (PCBNEW 9.0.0-rc3) date 2025-06-30 09:22:31*
%MOMM*%
%LPD*%
G01*
G04 APERTURE LIST*
%ADD10C,3.000000*%
%ADD11C,0.800000*%
%ADD12C,6.400000*%
G04 APERTURE END LIST*
D10*
%TO.C,PV1*%
X178600000Y-53400000D03*
X114600000Y-53400000D03*
%TD*%
%TO.C,PV4*%
X178600000Y-122400000D03*
X114600000Y-122400000D03*
%TD*%
%TO.C,PV3*%
X114600000Y-99400000D03*
X178600000Y-99400000D03*
%TD*%
D11*
%TO.C,H1*%
X106100000Y-42100000D03*
X106802944Y-40402944D03*
X106802944Y-43797056D03*
X108500000Y-39700000D03*
D12*
X108500000Y-42100000D03*
D11*
X108500000Y-44500000D03*
X110197056Y-40402944D03*
X110197056Y-43797056D03*
X110900000Y-42100000D03*
%TD*%
D10*
%TO.C,VP2*%
X178600000Y-76400000D03*
X114600000Y-76400000D03*
%TD*%
D11*
%TO.C,H4*%
X182300000Y-133700000D03*
X183002944Y-132002944D03*
X183002944Y-135397056D03*
X184700000Y-131300000D03*
D12*
X184700000Y-133700000D03*
D11*
X184700000Y-136100000D03*
X186397056Y-132002944D03*
X186397056Y-135397056D03*
X187100000Y-133700000D03*
%TD*%
%TO.C,H3*%
X106100000Y-133700000D03*
X106802944Y-132002944D03*
X106802944Y-135397056D03*
X108500000Y-131300000D03*
D12*
X108500000Y-133700000D03*
D11*
X108500000Y-136100000D03*
X110197056Y-132002944D03*
X110197056Y-135397056D03*
X110900000Y-133700000D03*
%TD*%
%TO.C,H2*%
X182300000Y-42100000D03*
X183002944Y-40402944D03*
X183002944Y-43797056D03*
X184700000Y-39700000D03*
D12*
X184700000Y-42100000D03*
D11*
X184700000Y-44500000D03*
X186397056Y-40402944D03*
X186397056Y-43797056D03*
X187100000Y-42100000D03*
%TD*%
M02*
