%TF.GenerationSoftware,KiCad,Pcbnew,9.0.0-rc3*%
%TF.CreationDate,2025-06-15T12:53:26-05:00*%
%TF.ProjectId,PCI-104-Template,5043492d-3130-4342-9d54-656d706c6174,A*%
%TF.SameCoordinates,Original*%
%TF.FileFunction,Soldermask,Top*%
%TF.FilePolarity,Negative*%
%FSLAX46Y46*%
G04 Gerber Fmt 4.6, Leading zero omitted, Abs format (unit mm)*
G04 Created by KiCad (PCBNEW 9.0.0-rc3) date 2025-06-15 12:53:26*
%MOMM*%
%LPD*%
G01*
G04 APERTURE LIST*
%ADD10C,3.600000*%
%ADD11C,6.400000*%
%ADD12O,1.350000X1.350000*%
%ADD13R,1.350000X1.350000*%
%ADD14C,2.000000*%
%ADD15C,1.780000*%
G04 APERTURE END LIST*
D10*
%TO.C,H4*%
X140725000Y-134430000D03*
D11*
X140725000Y-134430000D03*
%TD*%
D10*
%TO.C,H2*%
X140725000Y-54420000D03*
D11*
X140725000Y-54420000D03*
%TD*%
D12*
%TO.C,J1*%
X61000000Y-123000000D03*
X61000000Y-121000000D03*
X61000000Y-119000000D03*
X61000000Y-117000000D03*
X61000000Y-115000000D03*
X61000000Y-113000000D03*
X61000000Y-111000000D03*
X61000000Y-109000000D03*
X61000000Y-107000000D03*
X61000000Y-105000000D03*
X61000000Y-103000000D03*
X61000000Y-101000000D03*
X61000000Y-99000000D03*
X61000000Y-97000000D03*
X61000000Y-95000000D03*
X61000000Y-93000000D03*
X61000000Y-91000000D03*
X61000000Y-89000000D03*
X61000000Y-87000000D03*
X61000000Y-85000000D03*
X61000000Y-83000000D03*
X61000000Y-81000000D03*
X61000000Y-79000000D03*
X61000000Y-77000000D03*
X61000000Y-75000000D03*
X61000000Y-73000000D03*
X61000000Y-71000000D03*
X61000000Y-69000000D03*
X61000000Y-67000000D03*
X61000000Y-65000000D03*
D13*
X59000000Y-123000000D03*
D12*
X59000000Y-121000000D03*
X59000000Y-119000000D03*
X59000000Y-117000000D03*
X59000000Y-115000000D03*
X59000000Y-113000000D03*
X59000000Y-111000000D03*
X59000000Y-109000000D03*
X59000000Y-107000000D03*
X59000000Y-105000000D03*
X59000000Y-103000000D03*
X59000000Y-101000000D03*
X59000000Y-99000000D03*
X59000000Y-97000000D03*
X59000000Y-95000000D03*
X59000000Y-93000000D03*
X59000000Y-91000000D03*
X59000000Y-89000000D03*
X59000000Y-87000000D03*
X59000000Y-85000000D03*
X59000000Y-83000000D03*
X59000000Y-81000000D03*
X59000000Y-79000000D03*
X59000000Y-77000000D03*
X59000000Y-75000000D03*
X59000000Y-73000000D03*
X59000000Y-71000000D03*
X59000000Y-69000000D03*
X59000000Y-67000000D03*
X59000000Y-65000000D03*
%TD*%
D14*
%TO.C,H6*%
X61935000Y-62325000D03*
%TD*%
%TO.C,H5*%
X54065000Y-62325000D03*
%TD*%
%TO.C,H7*%
X54065000Y-125675000D03*
%TD*%
D10*
%TO.C,H1*%
X55000000Y-56960000D03*
D11*
X55000000Y-56960000D03*
%TD*%
D15*
%TO.C,J3*%
X66029625Y-60909650D03*
X66029625Y-76157050D03*
X66029625Y-86309650D03*
X66029625Y-101557050D03*
X66029625Y-111709650D03*
X66029625Y-126957050D03*
X66040000Y-53340000D03*
X66040000Y-55880000D03*
X66040000Y-63500000D03*
X66040000Y-66040000D03*
X66040000Y-68580000D03*
X66040000Y-71120000D03*
X66040000Y-73660000D03*
X66040000Y-78740000D03*
X66040000Y-81280000D03*
X66040000Y-83820000D03*
X66040000Y-88900000D03*
X66040000Y-91440000D03*
X66040000Y-93980000D03*
X66040000Y-96520000D03*
X66040000Y-99060000D03*
X66040000Y-104140000D03*
X66040000Y-106680000D03*
X66040000Y-109220000D03*
X66040000Y-114300000D03*
X66040000Y-116840000D03*
X66040000Y-119380000D03*
X66040000Y-121920000D03*
X66040000Y-124460000D03*
X66040000Y-129540000D03*
X66040000Y-132080000D03*
X66040000Y-134620000D03*
X66050375Y-58470350D03*
X68569625Y-60909650D03*
X68569625Y-76157050D03*
X68569625Y-86309650D03*
X68569625Y-101557050D03*
X68569625Y-111709650D03*
X68569625Y-126957050D03*
X68580000Y-53340000D03*
X68580000Y-55880000D03*
X68580000Y-63500000D03*
X68580000Y-66040000D03*
X68580000Y-68580000D03*
X68580000Y-71120000D03*
X68580000Y-73660000D03*
X68580000Y-78740000D03*
X68580000Y-81280000D03*
X68580000Y-83820000D03*
X68580000Y-88900000D03*
X68580000Y-91440000D03*
X68580000Y-93980000D03*
X68580000Y-96520000D03*
X68580000Y-99060000D03*
X68580000Y-104140000D03*
X68580000Y-106680000D03*
X68580000Y-109220000D03*
X68580000Y-114300000D03*
X68580000Y-116840000D03*
X68580000Y-119380000D03*
X68580000Y-121920000D03*
X68580000Y-124460000D03*
X68580000Y-129540000D03*
X68580000Y-132080000D03*
X68580000Y-134620000D03*
X68590375Y-58470350D03*
X71109625Y-60909650D03*
X71109625Y-76157050D03*
X71109625Y-86309650D03*
X71109625Y-101557050D03*
X71109625Y-111709650D03*
X71109625Y-126957050D03*
X71120000Y-53340000D03*
X71120000Y-55880000D03*
X71120000Y-63500000D03*
X71120000Y-66040000D03*
X71120000Y-68580000D03*
X71120000Y-71120000D03*
X71120000Y-73660000D03*
X71120000Y-78740000D03*
X71120000Y-81280000D03*
X71120000Y-83820000D03*
X71120000Y-88900000D03*
X71120000Y-91440000D03*
X71120000Y-93980000D03*
X71120000Y-96520000D03*
X71120000Y-99060000D03*
X71120000Y-104140000D03*
X71120000Y-106680000D03*
X71120000Y-109220000D03*
X71120000Y-114300000D03*
X71120000Y-116840000D03*
X71120000Y-119380000D03*
X71120000Y-121920000D03*
X71120000Y-124460000D03*
X71120000Y-129540000D03*
X71120000Y-132080000D03*
X71120000Y-134620000D03*
X71130375Y-58470350D03*
X73649625Y-60909650D03*
X73649625Y-76157050D03*
X73649625Y-86309650D03*
X73649625Y-101557050D03*
X73649625Y-111709650D03*
X73649625Y-126957050D03*
X73660000Y-53340000D03*
X73660000Y-55880000D03*
X73660000Y-63500000D03*
X73660000Y-66040000D03*
X73660000Y-68580000D03*
X73660000Y-71120000D03*
X73660000Y-73660000D03*
X73660000Y-78740000D03*
X73660000Y-81280000D03*
X73660000Y-83820000D03*
X73660000Y-88900000D03*
X73660000Y-91440000D03*
X73660000Y-93980000D03*
X73660000Y-96520000D03*
X73660000Y-99060000D03*
X73660000Y-104140000D03*
X73660000Y-106680000D03*
X73660000Y-109220000D03*
X73660000Y-114300000D03*
X73660000Y-116840000D03*
X73660000Y-119380000D03*
X73660000Y-121920000D03*
X73660000Y-124460000D03*
X73660000Y-129540000D03*
X73660000Y-132080000D03*
X73660000Y-134620000D03*
X73670375Y-58470350D03*
X76189625Y-60909650D03*
X76189625Y-76157050D03*
X76189625Y-86309650D03*
X76189625Y-101557050D03*
X76189625Y-111709650D03*
X76189625Y-126957050D03*
X76200000Y-53340000D03*
X76200000Y-55880000D03*
X76200000Y-63500000D03*
X76200000Y-66040000D03*
X76200000Y-68580000D03*
X76200000Y-71120000D03*
X76200000Y-73660000D03*
X76200000Y-78740000D03*
X76200000Y-81280000D03*
X76200000Y-83820000D03*
X76200000Y-88900000D03*
X76200000Y-91440000D03*
X76200000Y-93980000D03*
X76200000Y-96520000D03*
X76200000Y-99060000D03*
X76200000Y-104140000D03*
X76200000Y-106680000D03*
X76200000Y-109220000D03*
X76200000Y-114300000D03*
X76200000Y-116840000D03*
X76200000Y-119380000D03*
X76200000Y-121920000D03*
X76200000Y-124460000D03*
X76200000Y-129540000D03*
X76200000Y-132080000D03*
X76200000Y-134620000D03*
X76210375Y-58470350D03*
X78729625Y-60909650D03*
X78729625Y-76157050D03*
X78729625Y-86309650D03*
X78729625Y-101557050D03*
X78729625Y-111709650D03*
X78729625Y-126957050D03*
X78740000Y-53340000D03*
X78740000Y-55880000D03*
X78740000Y-63500000D03*
X78740000Y-66040000D03*
X78740000Y-68580000D03*
X78740000Y-71120000D03*
X78740000Y-73660000D03*
X78740000Y-78740000D03*
X78740000Y-81280000D03*
X78740000Y-83820000D03*
X78740000Y-88900000D03*
X78740000Y-91440000D03*
X78740000Y-93980000D03*
X78740000Y-96520000D03*
X78740000Y-99060000D03*
X78740000Y-104140000D03*
X78740000Y-106680000D03*
X78740000Y-109220000D03*
X78740000Y-114300000D03*
X78740000Y-116840000D03*
X78740000Y-119380000D03*
X78740000Y-121920000D03*
X78740000Y-124460000D03*
X78740000Y-129540000D03*
X78740000Y-132080000D03*
X78740000Y-134620000D03*
X78750375Y-58470350D03*
X81269625Y-60909650D03*
X81269625Y-76157050D03*
X81269625Y-86309650D03*
X81269625Y-101557050D03*
X81269625Y-111709650D03*
X81269625Y-126957050D03*
X81280000Y-53340000D03*
X81280000Y-55880000D03*
X81280000Y-63500000D03*
X81280000Y-66040000D03*
X81280000Y-68580000D03*
X81280000Y-71120000D03*
X81280000Y-73660000D03*
X81280000Y-78740000D03*
X81280000Y-81280000D03*
X81280000Y-83820000D03*
X81280000Y-88900000D03*
X81280000Y-91440000D03*
X81280000Y-93980000D03*
X81280000Y-96520000D03*
X81280000Y-99060000D03*
X81280000Y-104140000D03*
X81280000Y-106680000D03*
X81280000Y-109220000D03*
X81280000Y-114300000D03*
X81280000Y-116840000D03*
X81280000Y-119380000D03*
X81280000Y-121920000D03*
X81280000Y-124460000D03*
X81280000Y-129540000D03*
X81280000Y-132080000D03*
X81280000Y-134620000D03*
X81290375Y-58470350D03*
X83809625Y-60909650D03*
X83809625Y-76157050D03*
X83809625Y-86309650D03*
X83809625Y-101557050D03*
X83809625Y-111709650D03*
X83809625Y-126957050D03*
X83820000Y-53340000D03*
X83820000Y-55880000D03*
X83820000Y-63500000D03*
X83820000Y-66040000D03*
X83820000Y-68580000D03*
X83820000Y-71120000D03*
X83820000Y-73660000D03*
X83820000Y-78740000D03*
X83820000Y-81280000D03*
X83820000Y-83820000D03*
X83820000Y-88900000D03*
X83820000Y-91440000D03*
X83820000Y-93980000D03*
X83820000Y-96520000D03*
X83820000Y-99060000D03*
X83820000Y-104140000D03*
X83820000Y-106680000D03*
X83820000Y-109220000D03*
X83820000Y-114300000D03*
X83820000Y-116840000D03*
X83820000Y-119380000D03*
X83820000Y-121920000D03*
X83820000Y-124460000D03*
X83820000Y-129540000D03*
X83820000Y-132080000D03*
X83820000Y-134620000D03*
X83830375Y-58470350D03*
X86349625Y-60909650D03*
X86349625Y-76157050D03*
X86349625Y-86309650D03*
X86349625Y-101557050D03*
X86349625Y-111709650D03*
X86349625Y-126957050D03*
X86360000Y-53340000D03*
X86360000Y-55880000D03*
X86360000Y-63500000D03*
X86360000Y-66040000D03*
X86360000Y-68580000D03*
X86360000Y-71120000D03*
X86360000Y-73660000D03*
X86360000Y-78740000D03*
X86360000Y-81280000D03*
X86360000Y-83820000D03*
X86360000Y-88900000D03*
X86360000Y-91440000D03*
X86360000Y-93980000D03*
X86360000Y-96520000D03*
X86360000Y-99060000D03*
X86360000Y-104140000D03*
X86360000Y-106680000D03*
X86360000Y-109220000D03*
X86360000Y-114300000D03*
X86360000Y-116840000D03*
X86360000Y-119380000D03*
X86360000Y-121920000D03*
X86360000Y-124460000D03*
X86360000Y-129540000D03*
X86360000Y-132080000D03*
X86360000Y-134620000D03*
X86370375Y-58470350D03*
X88889625Y-60909650D03*
X88889625Y-76157050D03*
X88889625Y-86309650D03*
X88889625Y-101557050D03*
X88889625Y-111709650D03*
X88889625Y-126957050D03*
X88900000Y-53340000D03*
X88900000Y-55880000D03*
X88900000Y-63500000D03*
X88900000Y-66040000D03*
X88900000Y-68580000D03*
X88900000Y-71120000D03*
X88900000Y-73660000D03*
X88900000Y-78740000D03*
X88900000Y-81280000D03*
X88900000Y-83820000D03*
X88900000Y-88900000D03*
X88900000Y-91440000D03*
X88900000Y-93980000D03*
X88900000Y-96520000D03*
X88900000Y-99060000D03*
X88900000Y-104140000D03*
X88900000Y-106680000D03*
X88900000Y-109220000D03*
X88900000Y-114300000D03*
X88900000Y-116840000D03*
X88900000Y-119380000D03*
X88900000Y-121920000D03*
X88900000Y-124460000D03*
X88900000Y-129540000D03*
X88900000Y-132080000D03*
X88900000Y-134620000D03*
X88910375Y-58470350D03*
X91429625Y-60909650D03*
X91429625Y-76157050D03*
X91429625Y-86309650D03*
X91429625Y-101557050D03*
X91429625Y-111709650D03*
X91429625Y-126957050D03*
X91440000Y-53340000D03*
X91440000Y-55880000D03*
X91440000Y-63500000D03*
X91440000Y-66040000D03*
X91440000Y-68580000D03*
X91440000Y-71120000D03*
X91440000Y-73660000D03*
X91440000Y-78740000D03*
X91440000Y-81280000D03*
X91440000Y-83820000D03*
X91440000Y-88900000D03*
X91440000Y-91440000D03*
X91440000Y-93980000D03*
X91440000Y-96520000D03*
X91440000Y-99060000D03*
X91440000Y-104140000D03*
X91440000Y-106680000D03*
X91440000Y-109220000D03*
X91440000Y-114300000D03*
X91440000Y-116840000D03*
X91440000Y-119380000D03*
X91440000Y-121920000D03*
X91440000Y-124460000D03*
X91440000Y-129540000D03*
X91440000Y-132080000D03*
X91440000Y-134620000D03*
X91450375Y-58470350D03*
X93969625Y-60909650D03*
X93969625Y-76157050D03*
X93969625Y-86309650D03*
X93969625Y-101557050D03*
X93969625Y-111709650D03*
X93969625Y-126957050D03*
X93980000Y-53340000D03*
X93980000Y-55880000D03*
X93980000Y-63500000D03*
X93980000Y-66040000D03*
X93980000Y-68580000D03*
X93980000Y-71120000D03*
X93980000Y-73660000D03*
X93980000Y-78740000D03*
X93980000Y-81280000D03*
X93980000Y-83820000D03*
X93980000Y-88900000D03*
X93980000Y-91440000D03*
X93980000Y-93980000D03*
X93980000Y-96520000D03*
X93980000Y-99060000D03*
X93980000Y-104140000D03*
X93980000Y-106680000D03*
X93980000Y-109220000D03*
X93980000Y-114300000D03*
X93980000Y-116840000D03*
X93980000Y-119380000D03*
X93980000Y-121920000D03*
X93980000Y-124460000D03*
X93980000Y-129540000D03*
X93980000Y-132080000D03*
X93980000Y-134620000D03*
X93990375Y-58470350D03*
X96509625Y-60909650D03*
X96509625Y-76157050D03*
X96509625Y-86309650D03*
X96509625Y-101557050D03*
X96509625Y-111709650D03*
X96509625Y-126957050D03*
X96520000Y-53340000D03*
X96520000Y-55880000D03*
X96520000Y-63500000D03*
X96520000Y-66040000D03*
X96520000Y-68580000D03*
X96520000Y-71120000D03*
X96520000Y-73660000D03*
X96520000Y-78740000D03*
X96520000Y-81280000D03*
X96520000Y-83820000D03*
X96520000Y-88900000D03*
X96520000Y-91440000D03*
X96520000Y-93980000D03*
X96520000Y-96520000D03*
X96520000Y-99060000D03*
X96520000Y-104140000D03*
X96520000Y-106680000D03*
X96520000Y-109220000D03*
X96520000Y-114300000D03*
X96520000Y-116840000D03*
X96520000Y-119380000D03*
X96520000Y-121920000D03*
X96520000Y-124460000D03*
X96520000Y-129540000D03*
X96520000Y-132080000D03*
X96520000Y-134620000D03*
X96530375Y-58470350D03*
X99049625Y-60909650D03*
X99049625Y-76157050D03*
X99049625Y-86309650D03*
X99049625Y-101557050D03*
X99049625Y-111709650D03*
X99049625Y-126957050D03*
X99060000Y-53340000D03*
X99060000Y-55880000D03*
X99060000Y-63500000D03*
X99060000Y-66040000D03*
X99060000Y-68580000D03*
X99060000Y-71120000D03*
X99060000Y-73660000D03*
X99060000Y-78740000D03*
X99060000Y-81280000D03*
X99060000Y-83820000D03*
X99060000Y-88900000D03*
X99060000Y-91440000D03*
X99060000Y-93980000D03*
X99060000Y-96520000D03*
X99060000Y-99060000D03*
X99060000Y-104140000D03*
X99060000Y-106680000D03*
X99060000Y-109220000D03*
X99060000Y-114300000D03*
X99060000Y-116840000D03*
X99060000Y-119380000D03*
X99060000Y-121920000D03*
X99060000Y-124460000D03*
X99060000Y-129540000D03*
X99060000Y-132080000D03*
X99060000Y-134620000D03*
X99070375Y-58470350D03*
X101589625Y-60909650D03*
X101589625Y-76157050D03*
X101589625Y-86309650D03*
X101589625Y-101557050D03*
X101589625Y-111709650D03*
X101589625Y-126957050D03*
X101600000Y-53340000D03*
X101600000Y-55880000D03*
X101600000Y-63500000D03*
X101600000Y-66040000D03*
X101600000Y-68580000D03*
X101600000Y-71120000D03*
X101600000Y-73660000D03*
X101600000Y-78740000D03*
X101600000Y-81280000D03*
X101600000Y-83820000D03*
X101600000Y-88900000D03*
X101600000Y-91440000D03*
X101600000Y-93980000D03*
X101600000Y-96520000D03*
X101600000Y-99060000D03*
X101600000Y-104140000D03*
X101600000Y-106680000D03*
X101600000Y-109220000D03*
X101600000Y-114300000D03*
X101600000Y-116840000D03*
X101600000Y-119380000D03*
X101600000Y-121920000D03*
X101600000Y-124460000D03*
X101600000Y-129540000D03*
X101600000Y-132080000D03*
X101600000Y-134620000D03*
X101610375Y-58470350D03*
X104129625Y-60909650D03*
X104129625Y-76157050D03*
X104129625Y-86309650D03*
X104129625Y-101557050D03*
X104129625Y-111709650D03*
X104129625Y-126957050D03*
X104140000Y-53340000D03*
X104140000Y-55880000D03*
X104140000Y-63500000D03*
X104140000Y-66040000D03*
X104140000Y-68580000D03*
X104140000Y-71120000D03*
X104140000Y-73660000D03*
X104140000Y-78740000D03*
X104140000Y-81280000D03*
X104140000Y-83820000D03*
X104140000Y-88900000D03*
X104140000Y-91440000D03*
X104140000Y-93980000D03*
X104140000Y-96520000D03*
X104140000Y-99060000D03*
X104140000Y-104140000D03*
X104140000Y-106680000D03*
X104140000Y-109220000D03*
X104140000Y-114300000D03*
X104140000Y-116840000D03*
X104140000Y-119380000D03*
X104140000Y-121920000D03*
X104140000Y-124460000D03*
X104140000Y-129540000D03*
X104140000Y-132080000D03*
X104140000Y-134620000D03*
X104150375Y-58470350D03*
X106669625Y-60909650D03*
X106669625Y-76157050D03*
X106669625Y-86309650D03*
X106669625Y-101557050D03*
X106669625Y-111709650D03*
X106669625Y-126957050D03*
X106680000Y-53340000D03*
X106680000Y-55880000D03*
X106680000Y-63500000D03*
X106680000Y-66040000D03*
X106680000Y-68580000D03*
X106680000Y-71120000D03*
X106680000Y-73660000D03*
X106680000Y-78740000D03*
X106680000Y-81280000D03*
X106680000Y-83820000D03*
X106680000Y-88900000D03*
X106680000Y-91440000D03*
X106680000Y-93980000D03*
X106680000Y-96520000D03*
X106680000Y-99060000D03*
X106680000Y-104140000D03*
X106680000Y-106680000D03*
X106680000Y-109220000D03*
X106680000Y-114300000D03*
X106680000Y-116840000D03*
X106680000Y-119380000D03*
X106680000Y-121920000D03*
X106680000Y-124460000D03*
X106680000Y-129540000D03*
X106680000Y-132080000D03*
X106680000Y-134620000D03*
X106690375Y-58470350D03*
X109209625Y-60909650D03*
X109209625Y-76157050D03*
X109209625Y-86309650D03*
X109209625Y-101557050D03*
X109209625Y-111709650D03*
X109209625Y-126957050D03*
X109220000Y-53340000D03*
X109220000Y-55880000D03*
X109220000Y-63500000D03*
X109220000Y-66040000D03*
X109220000Y-68580000D03*
X109220000Y-71120000D03*
X109220000Y-73660000D03*
X109220000Y-78740000D03*
X109220000Y-81280000D03*
X109220000Y-83820000D03*
X109220000Y-88900000D03*
X109220000Y-91440000D03*
X109220000Y-93980000D03*
X109220000Y-96520000D03*
X109220000Y-99060000D03*
X109220000Y-104140000D03*
X109220000Y-106680000D03*
X109220000Y-109220000D03*
X109220000Y-114300000D03*
X109220000Y-116840000D03*
X109220000Y-119380000D03*
X109220000Y-121920000D03*
X109220000Y-124460000D03*
X109220000Y-129540000D03*
X109220000Y-132080000D03*
X109220000Y-134620000D03*
X109230375Y-58470350D03*
X111749625Y-60909650D03*
X111749625Y-76157050D03*
X111749625Y-86309650D03*
X111749625Y-101557050D03*
X111749625Y-111709650D03*
X111749625Y-126957050D03*
X111760000Y-53340000D03*
X111760000Y-55880000D03*
X111760000Y-63500000D03*
X111760000Y-66040000D03*
X111760000Y-68580000D03*
X111760000Y-71120000D03*
X111760000Y-73660000D03*
X111760000Y-78740000D03*
X111760000Y-81280000D03*
X111760000Y-83820000D03*
X111760000Y-88900000D03*
X111760000Y-91440000D03*
X111760000Y-93980000D03*
X111760000Y-96520000D03*
X111760000Y-99060000D03*
X111760000Y-104140000D03*
X111760000Y-106680000D03*
X111760000Y-109220000D03*
X111760000Y-114300000D03*
X111760000Y-116840000D03*
X111760000Y-119380000D03*
X111760000Y-121920000D03*
X111760000Y-124460000D03*
X111760000Y-129540000D03*
X111760000Y-132080000D03*
X111760000Y-134620000D03*
X111770375Y-58470350D03*
X114289625Y-60909650D03*
X114289625Y-76157050D03*
X114289625Y-86309650D03*
X114289625Y-101557050D03*
X114289625Y-111709650D03*
X114289625Y-126957050D03*
X114300000Y-53340000D03*
X114300000Y-55880000D03*
X114300000Y-63500000D03*
X114300000Y-66040000D03*
X114300000Y-68580000D03*
X114300000Y-71120000D03*
X114300000Y-73660000D03*
X114300000Y-78740000D03*
X114300000Y-81280000D03*
X114300000Y-83820000D03*
X114300000Y-88900000D03*
X114300000Y-91440000D03*
X114300000Y-93980000D03*
X114300000Y-96520000D03*
X114300000Y-99060000D03*
X114300000Y-104140000D03*
X114300000Y-106680000D03*
X114300000Y-109220000D03*
X114300000Y-114300000D03*
X114300000Y-116840000D03*
X114300000Y-119380000D03*
X114300000Y-121920000D03*
X114300000Y-124460000D03*
X114300000Y-129540000D03*
X114300000Y-132080000D03*
X114300000Y-134620000D03*
X114310375Y-58470350D03*
X116829625Y-60909650D03*
X116829625Y-76157050D03*
X116829625Y-86309650D03*
X116829625Y-101557050D03*
X116829625Y-111709650D03*
X116829625Y-126957050D03*
X116840000Y-53340000D03*
X116840000Y-55880000D03*
X116840000Y-63500000D03*
X116840000Y-66040000D03*
X116840000Y-68580000D03*
X116840000Y-71120000D03*
X116840000Y-73660000D03*
X116840000Y-78740000D03*
X116840000Y-81280000D03*
X116840000Y-83820000D03*
X116840000Y-88900000D03*
X116840000Y-91440000D03*
X116840000Y-93980000D03*
X116840000Y-96520000D03*
X116840000Y-99060000D03*
X116840000Y-104140000D03*
X116840000Y-106680000D03*
X116840000Y-109220000D03*
X116840000Y-114300000D03*
X116840000Y-116840000D03*
X116840000Y-119380000D03*
X116840000Y-121920000D03*
X116840000Y-124460000D03*
X116840000Y-129540000D03*
X116840000Y-132080000D03*
X116840000Y-134620000D03*
X116850375Y-58470350D03*
X119369625Y-60909650D03*
X119369625Y-76157050D03*
X119369625Y-86309650D03*
X119369625Y-101557050D03*
X119369625Y-111709650D03*
X119369625Y-126957050D03*
X119380000Y-53340000D03*
X119380000Y-55880000D03*
X119380000Y-63500000D03*
X119380000Y-66040000D03*
X119380000Y-68580000D03*
X119380000Y-71120000D03*
X119380000Y-73660000D03*
X119380000Y-78740000D03*
X119380000Y-81280000D03*
X119380000Y-83820000D03*
X119380000Y-88900000D03*
X119380000Y-91440000D03*
X119380000Y-93980000D03*
X119380000Y-96520000D03*
X119380000Y-99060000D03*
X119380000Y-104140000D03*
X119380000Y-106680000D03*
X119380000Y-109220000D03*
X119380000Y-114300000D03*
X119380000Y-116840000D03*
X119380000Y-119380000D03*
X119380000Y-121920000D03*
X119380000Y-124460000D03*
X119380000Y-129540000D03*
X119380000Y-132080000D03*
X119380000Y-134620000D03*
X119390375Y-58470350D03*
X121909625Y-60909650D03*
X121909625Y-76157050D03*
X121909625Y-86309650D03*
X121909625Y-101557050D03*
X121909625Y-111709650D03*
X121909625Y-126957050D03*
X121920000Y-53340000D03*
X121920000Y-55880000D03*
X121920000Y-63500000D03*
X121920000Y-66040000D03*
X121920000Y-68580000D03*
X121920000Y-71120000D03*
X121920000Y-73660000D03*
X121920000Y-78740000D03*
X121920000Y-81280000D03*
X121920000Y-83820000D03*
X121920000Y-88900000D03*
X121920000Y-91440000D03*
X121920000Y-93980000D03*
X121920000Y-96520000D03*
X121920000Y-99060000D03*
X121920000Y-104140000D03*
X121920000Y-106680000D03*
X121920000Y-109220000D03*
X121920000Y-114300000D03*
X121920000Y-116840000D03*
X121920000Y-119380000D03*
X121920000Y-121920000D03*
X121920000Y-124460000D03*
X121920000Y-129540000D03*
X121920000Y-132080000D03*
X121920000Y-134620000D03*
X121930375Y-58470350D03*
X124449625Y-60909650D03*
X124449625Y-76157050D03*
X124449625Y-86309650D03*
X124449625Y-101557050D03*
X124449625Y-111709650D03*
X124449625Y-126957050D03*
X124460000Y-53340000D03*
X124460000Y-55880000D03*
X124460000Y-63500000D03*
X124460000Y-66040000D03*
X124460000Y-68580000D03*
X124460000Y-71120000D03*
X124460000Y-73660000D03*
X124460000Y-78740000D03*
X124460000Y-81280000D03*
X124460000Y-83820000D03*
X124460000Y-88900000D03*
X124460000Y-91440000D03*
X124460000Y-93980000D03*
X124460000Y-96520000D03*
X124460000Y-99060000D03*
X124460000Y-104140000D03*
X124460000Y-106680000D03*
X124460000Y-109220000D03*
X124460000Y-114300000D03*
X124460000Y-116840000D03*
X124460000Y-119380000D03*
X124460000Y-121920000D03*
X124460000Y-124460000D03*
X124460000Y-129540000D03*
X124460000Y-132080000D03*
X124460000Y-134620000D03*
X124470375Y-58470350D03*
X126989625Y-60909650D03*
X126989625Y-76157050D03*
X126989625Y-86309650D03*
X126989625Y-101557050D03*
X126989625Y-111709650D03*
X126989625Y-126957050D03*
X127000000Y-53340000D03*
X127000000Y-55880000D03*
X127000000Y-63500000D03*
X127000000Y-66040000D03*
X127000000Y-68580000D03*
X127000000Y-71120000D03*
X127000000Y-73660000D03*
X127000000Y-78740000D03*
X127000000Y-81280000D03*
X127000000Y-83820000D03*
X127000000Y-88900000D03*
X127000000Y-91440000D03*
X127000000Y-93980000D03*
X127000000Y-96520000D03*
X127000000Y-99060000D03*
X127000000Y-104140000D03*
X127000000Y-106680000D03*
X127000000Y-109220000D03*
X127000000Y-114300000D03*
X127000000Y-116840000D03*
X127000000Y-119380000D03*
X127000000Y-121920000D03*
X127000000Y-124460000D03*
X127000000Y-129540000D03*
X127000000Y-132080000D03*
X127000000Y-134620000D03*
X127010375Y-58470350D03*
X129529625Y-60909650D03*
X129529625Y-76157050D03*
X129529625Y-86309650D03*
X129529625Y-101557050D03*
X129529625Y-111709650D03*
X129529625Y-126957050D03*
X129540000Y-53340000D03*
X129540000Y-55880000D03*
X129540000Y-63500000D03*
X129540000Y-66040000D03*
X129540000Y-68580000D03*
X129540000Y-71120000D03*
X129540000Y-73660000D03*
X129540000Y-78740000D03*
X129540000Y-81280000D03*
X129540000Y-83820000D03*
X129540000Y-88900000D03*
X129540000Y-91440000D03*
X129540000Y-93980000D03*
X129540000Y-96520000D03*
X129540000Y-99060000D03*
X129540000Y-104140000D03*
X129540000Y-106680000D03*
X129540000Y-109220000D03*
X129540000Y-114300000D03*
X129540000Y-116840000D03*
X129540000Y-119380000D03*
X129540000Y-121920000D03*
X129540000Y-124460000D03*
X129540000Y-129540000D03*
X129540000Y-132080000D03*
X129540000Y-134620000D03*
X129550375Y-58470350D03*
X132069625Y-60909650D03*
X132069625Y-76157050D03*
X132069625Y-86309650D03*
X132069625Y-101557050D03*
X132069625Y-111709650D03*
X132069625Y-126957050D03*
X132080000Y-53340000D03*
X132080000Y-55880000D03*
X132080000Y-63500000D03*
X132080000Y-66040000D03*
X132080000Y-68580000D03*
X132080000Y-71120000D03*
X132080000Y-73660000D03*
X132080000Y-78740000D03*
X132080000Y-81280000D03*
X132080000Y-83820000D03*
X132080000Y-88900000D03*
X132080000Y-91440000D03*
X132080000Y-93980000D03*
X132080000Y-96520000D03*
X132080000Y-99060000D03*
X132080000Y-104140000D03*
X132080000Y-106680000D03*
X132080000Y-109220000D03*
X132080000Y-114300000D03*
X132080000Y-116840000D03*
X132080000Y-119380000D03*
X132080000Y-121920000D03*
X132080000Y-124460000D03*
X132080000Y-129540000D03*
X132080000Y-132080000D03*
X132080000Y-134620000D03*
X132090375Y-58470350D03*
X134609625Y-60909650D03*
X134609625Y-76157050D03*
X134609625Y-86309650D03*
X134609625Y-101557050D03*
X134609625Y-111709650D03*
X134609625Y-126957050D03*
X134620000Y-53340000D03*
X134620000Y-55880000D03*
X134620000Y-63500000D03*
X134620000Y-66040000D03*
X134620000Y-68580000D03*
X134620000Y-71120000D03*
X134620000Y-73660000D03*
X134620000Y-78740000D03*
X134620000Y-81280000D03*
X134620000Y-83820000D03*
X134620000Y-88900000D03*
X134620000Y-91440000D03*
X134620000Y-93980000D03*
X134620000Y-96520000D03*
X134620000Y-99060000D03*
X134620000Y-104140000D03*
X134620000Y-106680000D03*
X134620000Y-109220000D03*
X134620000Y-114300000D03*
X134620000Y-116840000D03*
X134620000Y-119380000D03*
X134620000Y-121920000D03*
X134620000Y-124460000D03*
X134620000Y-129540000D03*
X134620000Y-132080000D03*
X134620000Y-134620000D03*
X134630375Y-58470350D03*
%TD*%
D10*
%TO.C,H3*%
X55000000Y-130620000D03*
D11*
X55000000Y-130620000D03*
%TD*%
D14*
%TO.C,H8*%
X61935000Y-125675000D03*
%TD*%
D12*
%TO.C,J2*%
X57000000Y-123000000D03*
X57000000Y-121000000D03*
X57000000Y-119000000D03*
X57000000Y-117000000D03*
X57000000Y-115000000D03*
X57000000Y-113000000D03*
X57000000Y-111000000D03*
X57000000Y-109000000D03*
X57000000Y-107000000D03*
X57000000Y-105000000D03*
X57000000Y-103000000D03*
X57000000Y-101000000D03*
X57000000Y-99000000D03*
X57000000Y-97000000D03*
X57000000Y-95000000D03*
X57000000Y-93000000D03*
X57000000Y-91000000D03*
X57000000Y-89000000D03*
X57000000Y-87000000D03*
X57000000Y-85000000D03*
X57000000Y-83000000D03*
X57000000Y-81000000D03*
X57000000Y-79000000D03*
X57000000Y-77000000D03*
X57000000Y-75000000D03*
X57000000Y-73000000D03*
X57000000Y-71000000D03*
X57000000Y-69000000D03*
X57000000Y-67000000D03*
X57000000Y-65000000D03*
D13*
X55000000Y-123000000D03*
D12*
X55000000Y-121000000D03*
X55000000Y-119000000D03*
X55000000Y-117000000D03*
X55000000Y-115000000D03*
X55000000Y-113000000D03*
X55000000Y-111000000D03*
X55000000Y-109000000D03*
X55000000Y-107000000D03*
X55000000Y-105000000D03*
X55000000Y-103000000D03*
X55000000Y-101000000D03*
X55000000Y-99000000D03*
X55000000Y-97000000D03*
X55000000Y-95000000D03*
X55000000Y-93000000D03*
X55000000Y-91000000D03*
X55000000Y-89000000D03*
X55000000Y-87000000D03*
X55000000Y-85000000D03*
X55000000Y-83000000D03*
X55000000Y-81000000D03*
X55000000Y-79000000D03*
X55000000Y-77000000D03*
X55000000Y-75000000D03*
X55000000Y-73000000D03*
X55000000Y-71000000D03*
X55000000Y-69000000D03*
X55000000Y-67000000D03*
X55000000Y-65000000D03*
%TD*%
M02*
